<svg width="72" height="72" viewBox="0 0 72 72" fill="none" xmlns="http://www.w3.org/2000/svg">
<rect width="72" height="72" rx="36" fill="white"/>
<path d="M21.9168 41.3333C21.9168 41.7475 22.2526 42.0833 22.6668 42.0833C23.081 42.0833 23.4168 41.7475 23.4168 41.3333H21.9168ZM30.9333 45.2627L30.8118 44.5226L30.9333 45.2627ZM34.1785 43.518L34.6586 44.0942L34.1785 43.518ZM32.7749 44.596L33.1553 45.2423L32.7749 44.596ZM41.0672 38.7371L41.1887 39.4772L41.0672 38.7371ZM37.822 40.4817L37.3419 39.9056L37.822 40.4817ZM39.2256 39.4038L38.8451 38.7575L39.2256 39.4038ZM48.6668 34.6666L48.6668 35.4166L48.6668 34.6666ZM36.2164 36.7086L35.7363 36.1325L36.2164 36.7086ZM38.1906 35.2408L38.5291 35.9101L38.1906 35.2408ZM41.8565 34.6667L41.8565 33.9167L41.8565 34.6667ZM39.4003 34.8028L39.5687 35.5337L39.4003 34.8028ZM29.2629 41.307L29.337 42.0534L29.2629 41.307ZM32.5729 39.7449L33.053 40.3211L32.5729 39.7449ZM31.7289 40.4142L31.308 39.7935L31.7289 40.4142ZM31.0829 44.7093C30.7382 44.4795 30.2726 44.5726 30.0428 44.9173C29.813 45.2619 29.9062 45.7276 30.2508 45.9573L31.0829 44.7093ZM32.9434 46.851L33.3594 46.2269L32.9434 46.851ZM36.2065 46.6143L36.7082 47.1718L36.2065 46.6143ZM38.4579 44.588L37.9562 44.0305L38.4579 44.588ZM39.0338 41.3639L38.3701 41.7132L38.3701 41.7132L39.0338 41.3639ZM39.3305 40.3173C39.1376 39.9508 38.6841 39.81 38.3175 40.0029C37.951 40.1959 37.8102 40.6494 38.0031 41.0159L39.3305 40.3173ZM39.6496 43.1374L40.388 43.2692V43.2692L39.6496 43.1374ZM34.6411 47.6459L34.5869 46.8979H34.5869L34.6411 47.6459ZM35.7495 46.7093C35.4049 46.4795 34.9392 46.5726 34.7095 46.9173C34.4797 47.2619 34.5728 47.7276 34.9175 47.9573L35.7495 46.7093ZM42.0002 49.3333L42.3644 49.9889L42.0002 49.3333ZM41.2771 38.8974C41.0364 38.5603 40.568 38.4822 40.2309 38.723C39.8938 38.9637 39.8158 39.4322 40.0565 39.7692L41.2771 38.8974ZM36.0002 23.4166H36.8891V21.9166H36.0002V23.4166ZM23.4168 41.3333V36H21.9168V41.3333H23.4168ZM36.8891 23.4166C43.3477 23.4166 48.5835 28.6524 48.5835 35.1111H50.0835C50.0835 27.824 44.1761 21.9166 36.8891 21.9166V23.4166ZM36.0002 21.9166C28.2222 21.9166 21.9168 28.2219 21.9168 36H23.4168C23.4168 29.0504 29.0506 23.4166 36.0002 23.4166V21.9166ZM28.186 40.5831H23.3335V42.0831H28.186V40.5831ZM33.053 40.3211L36.6965 37.2848L35.7363 36.1325L32.0927 39.1687L33.053 40.3211ZM48.6668 33.9166L41.8565 33.9167L41.8565 35.4167L48.6668 35.4166L48.6668 33.9166ZM42.8355 39.4166H48.6668V37.9166H42.8355V39.4166ZM23.3335 46.0831H29.1649V44.5831H23.3335V46.0831ZM37.3419 39.9056L33.6983 42.9418L34.6586 44.0942L38.3022 41.0579L37.3419 39.9056ZM29.1649 46.0831C30.0337 46.0831 30.5514 46.0854 31.0548 46.0028L30.8118 44.5226C30.457 44.5808 30.0819 44.5831 29.1649 44.5831V46.0831ZM33.6983 42.9418C32.9939 43.5289 32.7043 43.7672 32.3944 43.9496L33.1553 45.2423C33.595 44.9835 33.9912 44.6503 34.6586 44.0942L33.6983 42.9418ZM31.0548 46.0028C31.7959 45.8811 32.5081 45.6233 33.1553 45.2423L32.3944 43.9496C31.9068 44.2367 31.3702 44.4309 30.8118 44.5226L31.0548 46.0028ZM42.8355 37.9166C41.9668 37.9166 41.4491 37.9143 40.9457 37.997L41.1887 39.4772C41.5435 39.4189 41.9186 39.4166 42.8355 39.4166V37.9166ZM38.3022 41.0579C39.0066 40.4709 39.2962 40.2325 39.606 40.0501L38.8451 38.7575C38.4055 39.0163 38.0093 39.3494 37.3419 39.9056L38.3022 41.0579ZM40.9457 37.997C40.2046 38.1186 39.4924 38.3765 38.8451 38.7575L39.606 40.0501C40.0937 39.7631 40.6303 39.5688 41.1887 39.4772L40.9457 37.997ZM49.9168 36.6666C49.9168 37.357 49.3572 37.9166 48.6668 37.9166V39.4166C50.1856 39.4166 51.4168 38.1854 51.4168 36.6666H49.9168ZM48.6668 35.4166C49.3572 35.4166 49.9168 35.9763 49.9168 36.6666H51.4168C51.4168 35.1478 50.1856 33.9166 48.6668 33.9166L48.6668 35.4166ZM36.6965 37.2848C37.6778 36.4671 38.0816 36.1364 38.5291 35.9101L37.852 34.5715C37.2172 34.8927 36.6656 35.358 35.7363 36.1325L36.6965 37.2848ZM41.8565 33.9167C40.6468 33.9167 39.9252 33.9122 39.2319 34.072L39.5687 35.5337C40.0573 35.4211 40.5792 35.4167 41.8565 35.4167L41.8565 33.9167ZM38.5291 35.9101C38.8591 35.7431 39.2082 35.6167 39.5687 35.5337L39.2319 34.072C38.7535 34.1822 38.2901 34.35 37.852 34.5715L38.5291 35.9101ZM28.186 42.0831C28.7142 42.0831 29.0287 42.084 29.337 42.0534L29.1888 40.5607C28.9715 40.5823 28.7434 40.5831 28.186 40.5831V42.0831ZM32.0927 39.1687C31.6646 39.5255 31.4888 39.6709 31.308 39.7935L32.1498 41.035C32.4062 40.8612 32.6473 40.6592 33.053 40.3211L32.0927 39.1687ZM29.337 42.0534C30.3447 41.9533 31.3115 41.6033 32.1498 41.035L31.308 39.7935C30.6765 40.2216 29.9481 40.4853 29.1888 40.5607L29.337 42.0534ZM22.0835 43.3331C22.0835 42.6428 22.6431 42.0831 23.3335 42.0831V40.5831C21.8147 40.5831 20.5835 41.8143 20.5835 43.3331H22.0835ZM20.5835 43.3331C20.5835 44.8519 21.8147 46.0831 23.3335 46.0831V44.5831C22.6431 44.5831 22.0835 44.0235 22.0835 43.3331H20.5835ZM30.2508 45.9573L32.5273 47.475L33.3594 46.2269L31.0829 44.7093L30.2508 45.9573ZM36.7082 47.1718L38.9596 45.1454L37.9562 44.0305L35.7047 46.0568L36.7082 47.1718ZM39.6975 41.0146L39.3305 40.3173L38.0031 41.0159L38.3701 41.7132L39.6975 41.0146ZM38.9596 45.1454C39.3165 44.8243 39.6341 44.5401 39.8657 44.2756C40.1105 43.9961 40.3149 43.6784 40.388 43.2692L38.9113 43.0055C38.904 43.0468 38.8829 43.1211 38.7372 43.2875C38.5782 43.469 38.3402 43.6849 37.9562 44.0305L38.9596 45.1454ZM38.3701 41.7132C38.6107 42.1703 38.7593 42.4552 38.8456 42.6806C38.9247 42.8872 38.9187 42.9642 38.9113 43.0055L40.388 43.2692C40.4611 42.86 40.3793 42.4913 40.2464 42.1442C40.1207 41.816 39.9211 41.4394 39.6975 41.0146L38.3701 41.7132ZM32.5273 47.475C32.9262 47.7409 33.2796 47.978 33.5926 48.1367C33.9236 48.3046 34.2814 48.424 34.6954 48.3939L34.5869 46.8979C34.5451 46.9009 34.468 46.8988 34.271 46.7989C34.0561 46.69 33.7885 46.513 33.3594 46.2269L32.5273 47.475ZM35.7047 46.0568C35.3214 46.4018 35.0821 46.6155 34.8852 46.7544C34.7047 46.8816 34.6287 46.8948 34.5869 46.8979L34.6954 48.3939C35.1094 48.3639 35.4462 48.1942 35.7495 47.9803C36.0364 47.778 36.3519 47.4924 36.7082 47.1718L35.7047 46.0568ZM35.3335 47.3333C34.9175 47.9573 34.9176 47.9574 34.9177 47.9575C34.9178 47.9576 34.918 47.9577 34.9181 47.9578C34.9184 47.958 34.9188 47.9582 34.9192 47.9585C34.9201 47.9591 34.9212 47.9598 34.9227 47.9608C34.9255 47.9627 34.9295 47.9653 34.9346 47.9686C34.9447 47.9753 34.9592 47.9848 34.9779 47.997C35.0152 48.0212 35.0692 48.0559 35.138 48.0993C35.2755 48.186 35.4727 48.3075 35.7151 48.4494C36.1985 48.7322 36.8687 49.1 37.6085 49.4336C38.3431 49.7649 39.1748 50.0756 39.9759 50.2266C40.756 50.3736 41.6355 50.3938 42.3644 49.9889L41.6359 48.6777C41.3648 48.8283 40.911 48.8764 40.2536 48.7525C39.6172 48.6326 38.9072 48.3739 38.2252 48.0663C37.5483 47.761 36.9269 47.4205 36.4727 47.1547C36.2464 47.0223 36.0634 46.9095 35.9379 46.8303C35.8751 46.7908 35.8269 46.7598 35.7949 46.739C35.7789 46.7286 35.767 46.7208 35.7593 46.7157C35.7555 46.7132 35.7528 46.7114 35.7511 46.7103C35.7503 46.7098 35.7497 46.7094 35.7495 46.7092C35.7493 46.7091 35.7493 46.7091 35.7493 46.7091C35.7493 46.7091 35.7494 46.7091 35.7494 46.7091C35.7494 46.7092 35.7495 46.7093 35.3335 47.3333ZM42.3644 49.9889C43.9376 49.1149 44.915 48.156 45.3348 47.0732C45.7645 45.9652 45.5503 44.8874 45.0942 43.9279C44.6455 42.9841 43.9278 42.0791 43.2284 41.2544C42.5032 40.3993 41.8085 39.6413 41.2771 38.8974L40.0565 39.7692C40.6363 40.5808 41.4138 41.4339 42.0844 42.2246C42.7809 43.0459 43.3826 43.8213 43.7395 44.572C44.0889 45.3069 44.1664 45.9375 43.9363 46.5309C43.6964 47.1495 43.0627 47.885 41.6359 48.6777L42.3644 49.9889ZM38.6669 44.6666C38.1559 45.2156 38.156 45.2157 38.1561 45.2158C38.1562 45.2159 38.1563 45.216 38.1564 45.2161C38.1566 45.2163 38.1569 45.2165 38.1572 45.2168C38.1578 45.2174 38.1586 45.2181 38.1596 45.2191C38.1617 45.221 38.1645 45.2236 38.1682 45.227C38.1754 45.2337 38.1859 45.2432 38.1993 45.2555C38.2261 45.28 38.2649 45.3151 38.3146 45.3595C38.414 45.4482 38.557 45.5737 38.7345 45.7239C39.0887 46.0237 39.5843 46.4248 40.1469 46.8277C40.7071 47.2288 41.3485 47.6421 41.9932 47.9579C42.6226 48.2662 43.3293 48.5191 44.0002 48.5191L44.0002 47.0191C43.6711 47.0191 43.2111 46.8842 42.6531 46.6108C42.1103 46.3449 41.5433 45.9826 41.0202 45.6081C40.4995 45.2353 40.0367 44.8609 39.7034 44.5789C39.5372 44.4382 39.4042 44.3214 39.3134 44.2404C39.2681 44.1999 39.2333 44.1684 39.2104 44.1475C39.1989 44.137 39.1903 44.1291 39.1849 44.1241C39.1821 44.1216 39.1802 44.1198 39.179 44.1187C39.1784 44.1181 39.178 44.1178 39.1778 44.1176C39.1777 44.1175 39.1777 44.1175 39.1777 44.1175C39.1777 44.1175 39.1777 44.1175 39.1777 44.1175C39.1778 44.1176 39.1779 44.1176 38.6669 44.6666Z" fill="#2F3037"/>
</svg>
