<svg width="30" height="20" viewBox="0 0 30 20" fill="none" xmlns="http://www.w3.org/2000/svg">
<path d="M1.6665 9.24996C1.25229 9.24996 0.916504 9.58575 0.916504 9.99996C0.916504 10.4142 1.25229 10.75 1.6665 10.75L1.6665 9.24996ZM28.3332 10.75C28.7474 10.75 29.0832 10.4142 29.0832 9.99996C29.0832 9.58575 28.7474 9.24996 28.3332 9.24996L28.3332 10.75ZM22.1945 1.13394C21.9003 0.842352 21.4254 0.84447 21.1338 1.13867C20.8422 1.43286 20.8443 1.90773 21.1385 2.19932L22.1945 1.13394ZM24.6048 4.57881L24.0768 5.1115L24.6048 4.57881ZM24.6048 15.4211L25.1327 15.9538L25.1327 15.9538L24.6048 15.4211ZM21.1385 17.8006C20.8443 18.0922 20.8422 18.5671 21.1338 18.8613C21.4254 19.1554 21.9003 19.1576 22.1945 18.866L21.1385 17.8006ZM28.3 9.47774L29.044 9.38291L29.044 9.38291L28.3 9.47774ZM28.3 10.5222L29.044 10.617L29.044 10.617L28.3 10.5222ZM1.6665 10.75L28.3332 10.75L28.3332 9.24996L1.6665 9.24996L1.6665 10.75ZM21.1385 2.19932L24.0768 5.1115L25.1327 4.04611L22.1945 1.13394L21.1385 2.19932ZM24.0768 14.8884L21.1385 17.8006L22.1945 18.866L25.1327 15.9538L24.0768 14.8884ZM24.0768 5.1115C25.261 6.28512 26.1032 7.12152 26.6787 7.83805C27.2446 8.54275 27.4905 9.05842 27.556 9.57257L29.044 9.38291C28.9291 8.48173 28.499 7.70914 27.8482 6.89881C27.207 6.10031 26.2918 5.1949 25.1327 4.04611L24.0768 5.1115ZM25.1327 15.9538C26.2918 14.805 27.207 13.8996 27.8482 13.1011C28.499 12.2908 28.9291 11.5182 29.044 10.617L27.556 10.4274C27.4905 10.9415 27.2446 11.4572 26.6787 12.1619C26.1032 12.8784 25.261 13.7148 24.0768 14.8884L25.1327 15.9538ZM27.556 9.57257C27.5922 9.85637 27.5922 10.1435 27.556 10.4274L29.044 10.617C29.0962 10.2073 29.0962 9.79264 29.044 9.38291L27.556 9.57257Z" fill="#2F3037"/>
</svg>
