<svg width="30" height="20" viewBox="0 0 30 20" fill="none" xmlns="http://www.w3.org/2000/svg">
<path d="M28.3332 10.75C28.7474 10.75 29.0832 10.4142 29.0832 9.99996C29.0832 9.58574 28.7474 9.24996 28.3332 9.24996V10.75ZM1.6665 9.24996C1.25229 9.24996 0.916505 9.58574 0.916505 9.99996C0.916505 10.4142 1.25229 10.75 1.6665 10.75V9.24996ZM7.80521 18.866C8.09941 19.1576 8.57428 19.1554 8.86586 18.8613C9.15744 18.5671 9.15533 18.0922 8.86113 17.8006L7.80521 18.866ZM5.39489 15.4211L5.92285 14.8884L5.92285 14.8884L5.39489 15.4211ZM5.39489 4.57881L4.86693 4.04612L4.86693 4.04612L5.39489 4.57881ZM8.86113 2.19932C9.15533 1.90773 9.15745 1.43286 8.86586 1.13867C8.57428 0.84447 8.09941 0.842352 7.80521 1.13394L8.86113 2.19932ZM1.69965 10.5222L0.955673 10.617L0.955673 10.617L1.69965 10.5222ZM1.69965 9.47774L0.955673 9.38291L0.955673 9.38291L1.69965 9.47774ZM28.3332 9.24996H1.6665V10.75H28.3332V9.24996ZM8.86113 17.8006L5.92285 14.8884L4.86693 15.9538L7.80521 18.866L8.86113 17.8006ZM5.92285 5.1115L8.86113 2.19932L7.80521 1.13394L4.86693 4.04612L5.92285 5.1115ZM5.92285 14.8884C4.73871 13.7148 3.89642 12.8784 3.32098 12.1619C2.75504 11.4572 2.50917 10.9415 2.44363 10.4274L0.955673 10.617C1.07054 11.5182 1.50067 12.2908 2.15144 13.1011C2.79271 13.8996 3.70784 14.805 4.86693 15.9538L5.92285 14.8884ZM4.86693 4.04612C3.70784 5.1949 2.79271 6.10031 2.15144 6.89881C1.50067 7.70914 1.07054 8.48173 0.955673 9.38291L2.44363 9.57257C2.50917 9.05842 2.75504 8.54275 3.32098 7.83805C3.89642 7.12152 4.73871 6.28512 5.92285 5.1115L4.86693 4.04612ZM2.44363 10.4274C2.40746 10.1435 2.40746 9.85637 2.44363 9.57257L0.955673 9.38291C0.903448 9.79264 0.903448 10.2073 0.955673 10.617L2.44363 10.4274Z" fill="#2F3037"/>
</svg>
