<svg width="72" height="72" viewBox="0 0 72 72" fill="none" xmlns="http://www.w3.org/2000/svg">
<rect width="72" height="72" rx="36" fill="white"/>
<path d="M49.3332 36C49.3332 43.3638 43.3636 49.3333 35.9998 49.3333C28.636 49.3333 22.6665 43.3638 22.6665 36C22.6665 28.6362 28.636 22.6666 35.9998 22.6666C43.3636 22.6666 49.3332 28.6362 49.3332 36Z" stroke="#2F3037" stroke-width="1.5" stroke-linecap="round"/>
<path d="M35.9998 22.6666C35.3331 24 32.6665 27.3333 34.6665 29.3333C35.9998 30.6666 37.9998 30 38.6665 28" stroke="#2F3037" stroke-width="1.5" stroke-linecap="round"/>
<path d="M32 41.3333C32.5333 41.9047 34.08 42.6666 36 42.6666C37.92 42.6666 39.4667 41.9047 40 41.3333" stroke="#2F3037" stroke-width="1.5" stroke-linecap="round"/>
<path d="M31.9997 36C31.9997 36.7363 31.4027 37.3333 30.6663 37.3333C29.93 37.3333 29.333 36.7363 29.333 36C29.333 35.2636 29.93 34.6666 30.6663 34.6666C31.4027 34.6666 31.9997 35.2636 31.9997 36Z" fill="#2F3037"/>
<path d="M42.6663 36C42.6663 36.7363 42.0694 37.3333 41.333 37.3333C40.5966 37.3333 39.9997 36.7363 39.9997 36C39.9997 35.2636 40.5966 34.6666 41.333 34.6666C42.0694 34.6666 42.6663 35.2636 42.6663 36Z" fill="#2F3037"/>
</svg>
