<svg width="111" height="42" viewBox="0 0 111 42" fill="none" xmlns="http://www.w3.org/2000/svg">
<path d="M16.3303 20.61C16.3303 23.3952 14.1101 25.6233 11.3349 25.6233C8.5596 25.6233 6.3394 23.3952 6.3394 20.61C6.3394 17.8249 8.5596 15.5968 11.3349 15.5968H16.3303V20.61ZM21.8808 -6.10352e-05H16.3303V10.1379C14.4431 10.1379 12.556 10.1379 11.3349 10.1379C5.56233 10.1379 0.899902 14.8169 0.899902 20.61C0.899902 26.4031 5.56233 31.0822 11.3349 31.0822C17.1074 31.0822 21.7698 26.4031 21.7698 20.61C21.7698 17.7135 21.7698 10.1379 21.7698 10.1379L21.8808 -6.10352e-05Z" fill="#D9D9E3"/>
<path d="M77.0529 25.6233C79.8282 25.6233 82.0484 23.3952 82.0484 20.61C82.0484 17.8249 79.8282 15.5968 77.0529 15.5968C74.2777 15.5968 72.0575 17.8249 72.0575 20.61C72.1685 23.3952 74.3887 25.6233 77.0529 25.6233ZM66.729 20.61C66.729 14.8169 71.3914 10.1379 77.164 10.1379C82.9365 10.1379 87.5989 14.8169 87.5989 20.61C87.5989 26.4031 82.9365 31.0822 77.164 31.0822C71.3914 31.0822 66.729 26.4031 66.729 20.61Z" fill="#D9D9E3"/>
<path d="M105.027 20.61C105.027 17.9363 102.807 15.7082 100.143 15.7082C97.4785 15.7082 95.2583 17.9363 95.2583 20.61C95.2583 21.9469 95.2583 30.6365 95.2583 30.6365C92.4831 30.6365 89.8188 30.6365 89.8188 30.6365C89.8188 30.6365 89.8188 23.5066 89.8188 20.61C89.8188 14.8169 94.4813 10.1379 100.254 10.1379C106.026 10.1379 110.689 14.8169 110.689 20.61C110.689 23.5066 110.689 30.6365 110.689 30.6365C110.689 30.6365 108.024 30.6365 105.249 30.6365C105.027 30.6365 105.027 21.9469 105.027 20.61Z" fill="#D9D9E3"/>
<path d="M53.963 17.0451C53.1859 16.488 53.4079 15.5968 54.74 15.2626C56.4052 14.8169 59.2915 15.1512 61.7337 16.2652L64.2869 12.7002C63.1768 11.809 60.7346 10.5835 57.1823 10.3607C57.1823 10.3607 51.1877 9.58087 48.7455 14.1485C48.7455 14.1485 46.6363 18.3819 50.8547 21.0557C53.4079 22.6154 57.8483 23.2838 59.2915 23.9522C60.4016 24.6207 60.0685 25.8461 58.4034 26.1803C55.5171 26.8488 51.7428 25.1777 50.5217 24.2864L47.8574 27.9628C49.6336 29.2997 51.8538 30.5252 55.4061 31.0822C55.4061 31.0822 61.0676 32.0848 64.1759 28.1856C64.731 27.5172 67.2842 22.7268 62.1777 19.9416C59.5135 18.4933 55.2951 17.8249 53.963 17.0451Z" fill="#D9D9E3"/>
<path d="M28.4304 34.6472C28.6524 34.7586 31.2057 36.5411 33.6479 36.5411C39.6424 36.6525 39.9755 30.4137 39.9755 28.9655C38.8654 30.1909 36.5342 30.9708 35.091 30.9708C29.3185 30.9708 24.7671 26.5145 24.7671 20.7214C24.7671 17.8249 24.7671 10.5835 24.7671 10.5835C24.7671 10.5835 27.4313 10.5835 30.2066 10.5835C30.2066 10.5835 30.2066 19.496 30.2066 20.7214C30.2066 23.3952 32.4268 25.6233 35.091 25.6233C37.7553 25.6233 39.9755 23.3952 39.9755 20.7214C39.9755 19.6074 39.9755 10.5835 39.9755 10.5835C42.7507 10.5835 45.415 10.5835 45.415 10.5835V20.7214C45.415 29.7453 45.859 38.992 37.0892 41.1087C30.5396 42.6684 25.8772 38.5464 25.5442 38.3235L28.4304 34.6472Z" fill="#D9D9E3"/>
</svg>
