<svg width="256" height="66" viewBox="0 0 256 66" fill="none" xmlns="http://www.w3.org/2000/svg">
<path d="M54.2292 0C47.9998 0 42.9294 2.74009 36.7483 7.16269C33.2715 9.8547 30.6639 12.739 28.3942 15.3349C27.9114 15.9117 27.4285 16.4405 26.9456 16.9693C26.7041 17.2097 26.511 17.45 26.2695 17.6904C26.2212 17.7385 26.2212 17.7385 26.1729 17.7865C25.9798 17.9788 25.7866 18.2192 25.5935 18.4115C25.5452 18.4595 25.5452 18.4595 25.4969 18.5076C25.3037 18.6999 25.1106 18.8922 24.9174 19.0845C24.8691 19.1325 24.8691 19.1325 24.8208 19.1806C24.6277 19.3729 24.3862 19.5652 24.1931 19.7575L24.1448 19.8055C23.2273 20.6228 22.2615 21.2477 21.2957 21.7284C21.2474 21.7284 21.2474 21.7284 21.1991 21.7765C21.0059 21.8726 20.7645 21.9688 20.5231 22.0649C20.4748 22.0649 20.4265 22.113 20.3782 22.113C20.185 22.1611 19.9919 22.2572 19.7504 22.3053C19.7021 22.3053 19.6056 22.3533 19.5573 22.3533C19.3641 22.4014 19.1709 22.4495 18.9295 22.4495C18.8329 22.4495 18.7846 22.4495 18.6881 22.4976C18.4949 22.5456 18.2534 22.5456 18.0603 22.5456C17.9637 22.5456 17.9154 22.5456 17.8188 22.5456C17.7705 22.5456 17.7223 22.5456 17.674 22.5456C17.1911 22.5456 16.6599 22.4976 16.1287 22.4014C16.0804 22.4014 16.0804 22.4014 16.0321 22.4014C22.2132 25.9107 28.6357 27.6412 35.5411 27.6412C49.5934 27.6412 57.706 20.0459 63.0661 15.0464C63.1144 14.9984 63.211 14.9503 63.2593 14.8542C63.4525 14.6619 63.6456 14.5177 63.8388 14.3254C63.9353 14.2292 64.0802 14.1331 64.1768 14.0369C64.4182 13.7966 64.6597 13.5562 64.9011 13.3639C64.9977 13.2678 65.0943 13.2197 65.1426 13.1236C65.1909 13.0755 65.2392 13.0274 65.3357 12.9794C67.1708 11.393 68.6194 10.4796 70.0198 10.9123C70.213 10.9603 70.4062 11.0565 70.5993 11.1526C70.6476 11.2007 70.7442 11.2488 70.7925 11.2969C70.889 11.393 71.0339 11.4411 71.1305 11.5853C71.1305 11.5853 71.1305 11.5853 71.1788 11.5853C68.3297 4.51874 62.0038 0 54.2292 0ZM39.1628 25.5261C35.0582 25.5261 31.7262 22.2091 31.7262 18.123C31.7262 14.0369 35.0582 10.72 39.1628 10.72C43.2674 10.72 46.5994 14.0369 46.5994 18.123C46.6477 22.2091 43.3157 25.5261 39.1628 25.5261ZM49.5451 58.2629C46.6477 46.8699 53.1185 38.9862 59.3961 31.3908C62.8247 27.2086 66.0601 23.2667 67.4122 19.0364C68.4263 15.8156 68.2814 14.4696 66.9293 13.6524C66.7844 13.5562 66.6396 13.5082 66.4464 13.4601C66.9776 12.9794 67.5088 12.5948 67.9917 12.3544C67.9917 12.3544 68.04 12.3544 68.04 12.3064C68.2331 12.2102 68.4263 12.1141 68.6194 12.0179H68.6677C68.8609 11.9699 69.0058 11.9218 69.1989 11.8737C69.2472 11.8737 69.2955 11.8737 69.3438 11.8737C69.4886 11.8737 69.6335 11.8737 69.7784 11.9218C70.3096 12.066 70.8408 12.6429 71.3236 13.6043C71.4202 13.7966 71.5168 14.0369 71.6134 14.2773C71.6617 14.3254 71.6617 14.3734 71.71 14.4215C71.8065 14.6138 71.8548 14.8542 71.9514 15.0945C71.9997 15.1907 72.048 15.2868 72.048 15.431C72.0963 15.6233 72.1446 15.8156 72.2411 16.0079C72.2894 16.2002 72.3377 16.3925 72.4343 16.5847C72.4826 16.729 72.4826 16.8251 72.5309 16.9693C72.724 17.6904 72.8206 18.4115 72.8689 19.1325C72.8689 19.421 72.8689 19.8055 72.8689 20.1901C72.8689 31.2466 66.7844 43.4088 56.547 52.7347C55.1467 54.0326 52.7805 55.8593 49.5451 58.2629ZM16.853 0.096142C16.7082 0.144214 16.6116 0.192288 16.515 0.192288C16.177 0.288431 15.839 0.384573 15.5009 0.528788C15.2595 0.624932 15.018 0.673003 14.8249 0.769147C14.4869 0.913362 14.1971 1.05758 13.8591 1.20179C13.6659 1.29794 13.4728 1.39408 13.2796 1.49022C12.9416 1.68251 12.6519 1.8748 12.3621 2.11516C12.2173 2.2113 12.0724 2.30744 11.9275 2.40359C11.4929 2.74009 11.1066 3.07659 10.7203 3.46116C7.24343 7.11461 7.43659 12.1141 7.58146 13.6043C8.11264 19.3248 11.4929 28.17 24.7242 37.544C38.2936 47.1583 37.2312 60.6184 36.3137 65.5217C33.1266 63.7431 19.3641 55.7151 12.169 47.7352C4.87724 39.6592 0 31.8235 0 20.142C0 9.13363 7.00198 0.961433 16.853 0.096142ZM24.1931 0.673005C28.2494 1.58637 31.8228 3.55731 35.5894 6.73004C35.4445 6.82618 35.2997 6.9704 35.1548 7.06654C34.9616 7.21076 34.7685 7.35497 34.5753 7.54726C34.3821 7.73954 34.1407 7.93183 33.9475 8.07605C33.7544 8.22026 33.5612 8.41255 33.4164 8.55676C33.2232 8.74905 33.03 8.94134 32.8369 9.08555C32.6437 9.22977 32.4989 9.42206 32.3057 9.56627C32.1125 9.75856 31.9194 9.95084 31.7745 10.0951C31.6297 10.2393 31.4365 10.4316 31.2916 10.5758C31.0985 10.7681 30.9536 10.9604 30.7604 11.1046C30.6156 11.2488 30.4707 11.4411 30.3258 11.5853C30.1327 11.7776 29.9395 12.0179 29.7464 12.2102C29.6498 12.3544 29.5049 12.4506 29.4083 12.5948C28.7806 13.2678 28.2011 13.8927 27.6699 14.5657C26.8973 15.4791 26.1246 16.2963 25.4003 17.0655C21.6337 21.1035 18.4466 22.9783 12.0724 19.7575C11.7344 19.5171 11.4446 19.2768 11.1066 19.0364C10.0442 18.1711 9.27159 16.9693 8.98186 15.6233C8.98186 15.5752 8.98186 15.5752 8.98186 15.5272C8.83699 14.8542 8.74041 14.1331 8.69212 13.4601C8.54725 12.1141 8.40238 7.49919 11.5412 4.18224C14.0523 1.53829 18.1569 0.28843 23.6619 0.528788L24.1931 0.673005Z" fill="#8C8C8C"/>
<path d="M114.072 14.5211C114.072 17.6396 112.831 20.0651 110.349 21.8471C113.674 23.5796 115.312 26.3516 115.312 30.0641C115.312 33.1826 114.121 35.6576 111.788 37.5881C109.456 39.5186 106.428 40.4591 102.705 40.4591C96.253 40.4591 91.9349 37.7366 89.751 32.2916L95.6574 28.9751C96.6997 32.3411 99.0821 34.0241 102.705 34.0241C106.478 34.0241 108.513 32.3411 108.513 29.6186C108.513 26.8961 106.478 25.2131 102.854 25.2131H98.5362V19.1246H101.812C105.237 19.1246 107.272 17.5406 107.272 14.9666C107.272 12.3926 105.584 10.8086 102.358 10.8086C99.3799 10.8086 97.2953 12.2441 96.1041 15.1646L90.2969 11.7986C92.6297 6.8981 96.6501 4.4231 102.358 4.4231C105.783 4.4231 108.612 5.3636 110.796 7.1951C112.98 9.0266 114.072 11.5016 114.072 14.5211Z" fill="#8C8C8C"/>
<path fill-rule="evenodd" clip-rule="evenodd" d="M130.23 14.3231C133.704 14.3231 136.384 15.5111 138.32 17.9366V15.0161H144.723V39.7661H138.32V36.8456C136.384 39.2711 133.704 40.4591 130.23 40.4591C126.904 40.4591 124.075 39.2216 121.693 36.6971C119.36 34.1726 118.169 31.0541 118.169 27.3911C118.169 23.7281 119.36 20.6591 121.693 18.1346C124.075 15.6101 126.904 14.3231 130.23 14.3231ZM124.571 27.3911C124.571 29.4206 125.217 31.1036 126.507 32.4401C127.798 33.7271 129.436 34.3706 131.421 34.3706C133.406 34.3706 135.044 33.7271 136.335 32.4401C137.675 31.1036 138.32 29.4206 138.32 27.3911C138.32 25.3616 137.675 23.6786 136.335 22.3916C135.044 21.0551 133.406 20.4116 131.421 20.4116C129.436 20.4116 127.798 21.0551 126.507 22.3916C125.217 23.6786 124.571 25.3616 124.571 27.3911Z" fill="#8C8C8C"/>
<path d="M173.013 15.0161L164.327 27.0941L173.41 39.7661H166.015L160.654 32.2421L155.244 39.7661H147.849L156.932 27.1436L148.246 15.0161H155.641L160.654 21.9956L165.667 15.0161H173.013Z" fill="#8C8C8C"/>
<path d="M193.035 25.7081L181.371 39.7661H176.606V15.0161H182.86V29.0741L194.524 15.0161H199.289V39.7661H193.035V25.7081Z" fill="#8C8C8C"/>
<path d="M228.185 34.0241C226.001 37.9346 221.782 40.4591 216.968 40.4591C213.245 40.4591 210.118 39.2216 207.587 36.6971C205.105 34.1726 203.865 31.1036 203.865 27.3911C203.865 23.6786 205.105 20.6096 207.587 18.0851C210.118 15.5606 213.245 14.3231 216.968 14.3231C221.782 14.3231 226.051 16.7981 228.086 20.7086L222.577 23.9261C221.584 21.8966 219.45 20.6096 216.918 20.6096C213.096 20.6096 210.267 23.4311 210.267 27.3911C210.267 29.3216 210.913 30.9551 212.153 32.2421C213.394 33.4796 214.983 34.1231 216.918 34.1231C219.499 34.1231 221.633 32.8856 222.626 30.8561L228.185 34.0241Z" fill="#8C8C8C"/>
<path d="M228.994 21.1541V15.0161H250.982V21.1541H243.239V39.7661H236.836V21.1541H228.994Z" fill="#8C8C8C"/>
<path d="M93.047 57.9564L91.0064 52.5278H89.4263V59.5661H90.638V57.2265L90.5184 54.0917L92.6108 59.5661H93.4736L95.5709 54.0885L95.4512 57.2265V59.5661H96.6678V52.5278H95.0828L93.047 57.9564Z" fill="#8C8C8C"/>
<path d="M98.1704 52.523C98.054 52.639 97.9959 52.7856 97.9959 52.9629C97.9959 53.1369 98.054 53.2819 98.1704 53.3979C98.2899 53.514 98.4547 53.572 98.6648 53.572C98.8716 53.572 99.0347 53.514 99.1543 53.3979C99.2739 53.2819 99.3336 53.1369 99.3336 52.9629C99.3336 52.7856 99.2739 52.639 99.1543 52.523C99.0347 52.4038 98.8716 52.3441 98.6648 52.3441C98.4547 52.3441 98.2899 52.4038 98.1704 52.523Z" fill="#8C8C8C"/>
<path d="M102.758 57.4537L101.515 59.5661H100.08L101.847 56.8291L100.172 54.3357H101.607L102.828 56.395H103.391V54.3357H104.554V56.395H105.126L106.347 54.3357H107.787L106.122 56.8148L107.889 59.5661H106.439L105.192 57.4537H104.554V59.5661H103.391V57.4537H102.758Z" fill="#8C8C8C"/>
<path fill-rule="evenodd" clip-rule="evenodd" d="M117.156 55.5394C117.224 55.6748 117.258 55.8359 117.258 56.0228V56.3854H116.512C116.13 56.3854 115.791 56.424 115.494 56.5014C115.196 56.5755 114.944 56.6851 114.738 56.8301C114.534 56.9751 114.379 57.1556 114.272 57.3715C114.169 57.5842 114.117 57.8291 114.117 58.1063C114.117 58.4027 114.193 58.6686 114.345 58.9039C114.497 59.1359 114.707 59.3212 114.975 59.4598C115.243 59.5951 115.549 59.6628 115.891 59.6628C116.163 59.6628 116.402 59.6193 116.609 59.5323C116.819 59.4453 116.998 59.3341 117.147 59.1987C117.2 59.1499 117.25 59.1003 117.296 59.0499C117.298 59.0624 117.3 59.075 117.302 59.0876C117.334 59.2809 117.378 59.4404 117.433 59.5661H118.63V59.4888C118.565 59.3502 118.515 59.1875 118.48 59.0005C118.447 58.8104 118.431 58.5961 118.431 58.3576V56.0325C118.431 55.6329 118.342 55.3009 118.164 55.0367C117.99 54.7692 117.749 54.5694 117.442 54.4373C117.138 54.3051 116.79 54.2391 116.395 54.2391C116.066 54.2391 115.768 54.2826 115.503 54.3696C115.238 54.4566 115.011 54.5758 114.82 54.7273C114.629 54.8788 114.484 55.0512 114.384 55.2445C114.284 55.4379 114.233 55.6377 114.233 55.8439H115.397C115.397 55.7054 115.436 55.5813 115.513 55.4717C115.591 55.3622 115.699 55.2751 115.838 55.2107C115.977 55.1462 116.142 55.114 116.332 55.114C116.539 55.114 116.71 55.1511 116.846 55.2252C116.985 55.2993 117.088 55.4041 117.156 55.5394ZM117.258 58.0896V57.1056H116.599C116.382 57.1056 116.192 57.1266 116.027 57.1685C115.862 57.2071 115.725 57.2651 115.615 57.3425C115.505 57.4198 115.423 57.5133 115.368 57.6229C115.313 57.7324 115.285 57.8565 115.285 57.9951C115.285 58.1336 115.318 58.2609 115.382 58.377C115.447 58.4897 115.541 58.5784 115.663 58.6428C115.789 58.7073 115.941 58.7395 116.119 58.7395C116.358 58.7395 116.567 58.6912 116.744 58.5945C116.925 58.4946 117.067 58.3737 117.171 58.2319C117.205 58.1836 117.234 58.1362 117.258 58.0896Z" fill="#8C8C8C"/>
<path fill-rule="evenodd" clip-rule="evenodd" d="M120.783 54.8807L120.733 54.3357H119.657V61.5771H120.825V59.0794C120.975 59.2482 121.149 59.383 121.349 59.4839C121.595 59.6032 121.881 59.6628 122.207 59.6628C122.536 59.6628 122.827 59.5967 123.079 59.4646C123.331 59.3325 123.543 59.1472 123.714 58.9087C123.889 58.667 124.02 58.385 124.107 58.0627C124.197 57.7373 124.243 57.3844 124.243 57.0041V56.9026C124.243 56.503 124.199 56.1404 124.112 55.8149C124.025 55.4862 123.894 55.2059 123.719 54.9738C123.545 54.7386 123.33 54.5581 123.075 54.4324C122.819 54.3035 122.527 54.2391 122.197 54.2391C121.874 54.2391 121.591 54.3003 121.349 54.4228C121.13 54.5333 120.942 54.686 120.783 54.8807ZM120.825 58.1014C120.919 58.2948 121.052 58.4495 121.223 58.5655C121.397 58.6783 121.62 58.7347 121.892 58.7347C122.102 58.7347 122.281 58.6896 122.43 58.5993C122.578 58.5091 122.7 58.385 122.793 58.2271C122.89 58.066 122.961 57.8807 123.007 57.6712C123.052 57.4617 123.075 57.2394 123.075 57.0041V56.9026C123.075 56.6609 123.052 56.4369 123.007 56.2307C122.961 56.0212 122.89 55.8375 122.793 55.6796C122.696 55.5217 122.572 55.3992 122.42 55.3122C122.272 55.222 122.092 55.1769 121.882 55.1769C121.675 55.1769 121.498 55.2123 121.349 55.2832C121.2 55.3509 121.076 55.4459 120.976 55.5684C120.918 55.6388 120.868 55.716 120.825 55.8002V58.1014Z" fill="#8C8C8C"/>
<path fill-rule="evenodd" clip-rule="evenodd" d="M125.178 55.8488C125.068 56.171 125.013 56.5207 125.013 56.8978V57.0089C125.013 57.386 125.068 57.7356 125.178 58.0579C125.288 58.3802 125.448 58.6622 125.658 58.9039C125.868 59.1423 126.123 59.3292 126.424 59.4646C126.728 59.5967 127.072 59.6628 127.456 59.6628C127.838 59.6628 128.178 59.5967 128.479 59.4646C128.779 59.3292 129.035 59.1423 129.245 58.9039C129.455 58.6622 129.615 58.3802 129.725 58.0579C129.835 57.7356 129.889 57.386 129.889 57.0089V56.8978C129.889 56.5207 129.835 56.171 129.725 55.8488C129.615 55.5233 129.455 55.2413 129.245 55.0028C129.035 54.7611 128.778 54.5742 128.474 54.4421C128.174 54.3067 127.831 54.2391 127.447 54.2391C127.065 54.2391 126.723 54.3067 126.419 54.4421C126.118 54.5742 125.863 54.7611 125.653 55.0028C125.446 55.2413 125.288 55.5233 125.178 55.8488ZM126.254 57.676C126.206 57.4666 126.181 57.2442 126.181 57.0089V56.8978C126.181 56.6657 126.206 56.4466 126.254 56.2403C126.303 56.0309 126.379 55.8456 126.482 55.6844C126.585 55.5233 126.716 55.3976 126.875 55.3074C127.036 55.2139 127.227 55.1672 127.447 55.1672C127.666 55.1672 127.855 55.2139 128.014 55.3074C128.175 55.3976 128.308 55.5233 128.411 55.6844C128.518 55.8456 128.595 56.0309 128.644 56.2403C128.695 56.4466 128.721 56.6657 128.721 56.8978V57.0089C128.721 57.2442 128.695 57.4666 128.644 57.676C128.595 57.8855 128.519 58.0692 128.416 58.2271C128.313 58.385 128.18 58.5091 128.019 58.5993C127.86 58.6896 127.673 58.7347 127.456 58.7347C127.233 58.7347 127.041 58.6896 126.879 58.5993C126.718 58.5091 126.585 58.385 126.482 58.2271C126.379 58.0692 126.303 57.8855 126.254 57.676Z" fill="#8C8C8C"/>
<path fill-rule="evenodd" clip-rule="evenodd" d="M130.544 58.638C130.683 58.4897 130.802 58.3415 130.903 58.1933C131.006 58.0418 131.093 57.8758 131.164 57.6954C131.235 57.5117 131.29 57.2974 131.329 57.0524C131.371 56.8075 131.399 56.5159 131.411 56.1775L131.47 54.3357H135.105V58.638H135.822V61.1227H134.654V59.5661H131.295V61.1227H130.108L130.112 58.638H130.544ZM132.58 56.1775L132.607 55.3219H133.942V58.638H131.902C131.928 58.6019 131.954 58.5649 131.979 58.5268C132.15 58.2626 132.289 57.9387 132.395 57.5552C132.502 57.1717 132.563 56.7125 132.58 56.1775Z" fill="#8C8C8C"/>
<path fill-rule="evenodd" clip-rule="evenodd" d="M145.153 55.5394C145.221 55.6748 145.255 55.8359 145.255 56.0228V56.3854H144.508C144.127 56.3854 143.788 56.424 143.49 56.5014C143.193 56.5755 142.941 56.6851 142.734 56.8301C142.531 56.9751 142.375 57.1556 142.269 57.3715C142.165 57.5842 142.114 57.8291 142.114 58.1063C142.114 58.4027 142.19 58.6686 142.342 58.9039C142.493 59.1359 142.703 59.3212 142.972 59.4598C143.24 59.5951 143.545 59.6628 143.888 59.6628C144.159 59.6628 144.398 59.6193 144.605 59.5323C144.815 59.4453 144.995 59.3341 145.143 59.1987C145.197 59.1499 145.247 59.1003 145.293 59.0499C145.295 59.0624 145.296 59.075 145.298 59.0876C145.331 59.2809 145.374 59.4404 145.429 59.5661H146.626V59.4888C146.562 59.3502 146.512 59.1875 146.476 59.0005C146.444 58.8104 146.428 58.5961 146.428 58.3576V56.0325C146.428 55.6329 146.339 55.3009 146.161 55.0367C145.987 54.7692 145.746 54.5694 145.439 54.4373C145.135 54.3051 144.786 54.2391 144.392 54.2391C144.062 54.2391 143.765 54.2826 143.5 54.3696C143.235 54.4566 143.007 54.5758 142.817 54.7273C142.626 54.8788 142.48 55.0512 142.38 55.2445C142.28 55.4379 142.23 55.6377 142.23 55.8439H143.393C143.393 55.7054 143.432 55.5813 143.51 55.4717C143.587 55.3622 143.695 55.2751 143.834 55.2107C143.973 55.1462 144.138 55.114 144.329 55.114C144.536 55.114 144.707 55.1511 144.843 55.2252C144.982 55.2993 145.085 55.4041 145.153 55.5394ZM145.255 58.0896V57.1056H144.595C144.379 57.1056 144.188 57.1266 144.023 57.1685C143.859 57.2071 143.721 57.2651 143.611 57.3425C143.502 57.4198 143.419 57.5133 143.364 57.6229C143.309 57.7324 143.282 57.8565 143.282 57.9951C143.282 58.1336 143.314 58.2609 143.379 58.377C143.443 58.4897 143.537 58.5784 143.66 58.6428C143.786 58.7073 143.938 58.7395 144.116 58.7395C144.355 58.7395 144.563 58.6912 144.741 58.5945C144.922 58.4946 145.064 58.3737 145.167 58.2319C145.202 58.1836 145.231 58.1362 145.255 58.0896Z" fill="#8C8C8C"/>
<path fill-rule="evenodd" clip-rule="evenodd" d="M154.236 52.755C154.317 52.5681 154.357 52.3313 154.357 52.0444H153.412C153.412 52.1927 153.372 52.3103 153.291 52.3973C153.213 52.4811 153.094 52.5504 152.932 52.6052C152.771 52.6567 152.569 52.7083 152.326 52.7599C151.971 52.8308 151.648 52.9597 151.357 53.1466C151.069 53.3335 150.821 53.5849 150.611 53.9007C150.404 54.2133 150.244 54.5984 150.131 55.056C150.018 55.5136 149.961 56.0502 149.961 56.6657V56.9005C149.961 56.9108 149.961 56.9212 149.961 56.9316V57.0379C149.961 57.415 150.014 57.763 150.121 58.0821C150.228 58.4011 150.384 58.6799 150.591 58.9184C150.798 59.1536 151.052 59.3373 151.352 59.4694C151.653 59.6016 151.994 59.6676 152.375 59.6676C152.759 59.6676 153.1 59.6048 153.398 59.4791C153.698 59.3502 153.952 59.173 154.159 58.9474C154.365 58.7186 154.522 58.4511 154.629 58.1449C154.735 57.8388 154.789 57.5052 154.789 57.1443V57.0379C154.789 56.6931 154.739 56.3741 154.639 56.0808C154.542 55.7875 154.399 55.533 154.212 55.317C154.025 55.1011 153.795 54.9335 153.524 54.8143C153.252 54.6918 152.942 54.6306 152.593 54.6306C152.244 54.6306 151.927 54.6999 151.643 54.8385C151.381 54.9675 151.146 55.1427 150.937 55.364C150.94 55.3498 150.942 55.3358 150.945 55.3219C151.01 54.9771 151.115 54.6951 151.26 54.4759C151.409 54.2536 151.591 54.0812 151.808 53.9587C152.028 53.833 152.273 53.7412 152.545 53.6832C152.839 53.6251 153.097 53.5607 153.32 53.4898C153.546 53.4189 153.735 53.3254 153.887 53.2094C154.042 53.0902 154.159 52.9387 154.236 52.755ZM151.653 55.7618C151.837 55.6232 152.074 55.5539 152.365 55.5539C152.588 55.5539 152.779 55.5942 152.937 55.6748C153.096 55.7553 153.225 55.8649 153.325 56.0035C153.425 56.1388 153.498 56.2951 153.543 56.4724C153.592 56.6496 153.616 56.8381 153.616 57.0379V57.1443C153.616 57.3602 153.592 57.5648 153.543 57.7582C153.498 57.9516 153.425 58.1224 153.325 58.2706C153.228 58.4156 153.1 58.53 152.942 58.6138C152.787 58.6976 152.598 58.7395 152.375 58.7395C152.155 58.7395 151.965 58.6976 151.803 58.6138C151.645 58.53 151.515 58.4156 151.415 58.2706C151.318 58.1224 151.246 57.9516 151.197 57.7582C151.149 57.5648 151.124 57.3602 151.124 57.1443V57.0379C151.124 56.7737 151.166 56.5288 151.25 56.3032C151.338 56.0776 151.472 55.8971 151.653 55.7618Z" fill="#8C8C8C"/>
<path d="M160.145 54.3357V59.5661H158.977V55.2639H157.487L157.396 56.9219C157.377 57.3054 157.338 57.6438 157.28 57.9371C157.225 58.2271 157.151 58.4769 157.057 58.6863C156.963 58.8926 156.849 59.0602 156.713 59.1891C156.577 59.318 156.419 59.413 156.238 59.4743C156.057 59.5355 155.854 59.5661 155.627 59.5661H155.264L155.259 58.609L155.443 58.5945C155.563 58.5848 155.666 58.5542 155.753 58.5026C155.841 58.4479 155.915 58.3705 155.976 58.2706C156.041 58.1707 156.093 58.0418 156.131 57.8839C156.173 57.726 156.206 57.5391 156.228 57.3231C156.254 57.1072 156.274 56.8559 156.287 56.569L156.383 54.3357H160.145Z" fill="#8C8C8C"/>
<path fill-rule="evenodd" clip-rule="evenodd" d="M163.93 55.2252C164.069 55.2993 164.173 55.4041 164.241 55.5394C164.308 55.6748 164.342 55.8359 164.342 56.0228V56.3854H163.596C163.215 56.3854 162.875 56.424 162.578 56.5014C162.281 56.5755 162.029 56.6851 161.822 56.8301C161.618 56.9751 161.463 57.1556 161.357 57.3715C161.253 57.5842 161.201 57.8291 161.201 58.1063C161.201 58.4027 161.277 58.6686 161.429 58.9039C161.581 59.1359 161.791 59.3212 162.059 59.4598C162.328 59.5951 162.633 59.6628 162.975 59.6628C163.247 59.6628 163.486 59.6193 163.693 59.5323C163.903 59.4453 164.082 59.3341 164.231 59.1987C164.284 59.1499 164.334 59.1003 164.381 59.0499C164.382 59.0624 164.384 59.075 164.386 59.0876C164.418 59.2809 164.462 59.4404 164.517 59.5661H165.714V59.4888C165.649 59.3502 165.599 59.1875 165.564 59.0005C165.531 58.8104 165.515 58.5961 165.515 58.3576V56.0325C165.515 55.6329 165.426 55.3009 165.249 55.0367C165.074 54.7692 164.833 54.5694 164.527 54.4373C164.223 54.3051 163.874 54.2391 163.48 54.2391C163.15 54.2391 162.853 54.2826 162.588 54.3696C162.323 54.4566 162.095 54.5758 161.904 54.7273C161.714 54.8788 161.568 55.0512 161.468 55.2445C161.368 55.4379 161.318 55.6377 161.318 55.8439H162.481C162.481 55.7054 162.52 55.5813 162.597 55.4717C162.675 55.3622 162.783 55.2751 162.922 55.2107C163.061 55.1462 163.226 55.114 163.417 55.114C163.623 55.114 163.795 55.1511 163.93 55.2252ZM164.342 58.0896V57.1056H163.683C163.467 57.1056 163.276 57.1266 163.111 57.1685C162.946 57.2071 162.809 57.2651 162.699 57.3425C162.589 57.4198 162.507 57.5133 162.452 57.6229C162.397 57.7324 162.37 57.8565 162.37 57.9951C162.37 58.1336 162.402 58.2609 162.467 58.377C162.531 58.4897 162.625 58.5784 162.748 58.6428C162.874 58.7073 163.026 58.7395 163.203 58.7395C163.442 58.7395 163.651 58.6912 163.829 58.5945C164.009 58.4946 164.152 58.3737 164.255 58.2319C164.29 58.1836 164.319 58.1362 164.342 58.0896Z" fill="#8C8C8C"/>
<path fill-rule="evenodd" clip-rule="evenodd" d="M170.75 55.8488C170.64 56.171 170.585 56.5207 170.585 56.8978V57.0089C170.585 57.386 170.64 57.7356 170.75 58.0579C170.86 58.3802 171.02 58.6622 171.23 58.9039C171.44 59.1423 171.695 59.3292 171.996 59.4646C172.3 59.5967 172.644 59.6628 173.028 59.6628C173.41 59.6628 173.75 59.5967 174.051 59.4646C174.351 59.3292 174.607 59.1423 174.817 58.9039C175.027 58.6622 175.187 58.3802 175.297 58.0579C175.407 57.7356 175.461 57.386 175.461 57.0089V56.8978C175.461 56.5207 175.407 56.171 175.297 55.8488C175.187 55.5233 175.027 55.2413 174.817 55.0028C174.607 54.7611 174.35 54.5742 174.046 54.4421C173.746 54.3067 173.403 54.2391 173.019 54.2391C172.637 54.2391 172.295 54.3067 171.991 54.4421C171.69 54.5742 171.435 54.7611 171.225 55.0028C171.018 55.2413 170.86 55.5233 170.75 55.8488ZM171.826 57.676C171.778 57.4666 171.753 57.2442 171.753 57.0089V56.8978C171.753 56.6657 171.778 56.4466 171.826 56.2403C171.875 56.0309 171.951 55.8456 172.054 55.6844C172.157 55.5233 172.288 55.3976 172.447 55.3074C172.608 55.2139 172.799 55.1672 173.019 55.1672C173.238 55.1672 173.427 55.2139 173.586 55.3074C173.747 55.3976 173.88 55.5233 173.983 55.6844C174.09 55.8456 174.167 56.0309 174.216 56.2403C174.267 56.4466 174.293 56.6657 174.293 56.8978V57.0089C174.293 57.2442 174.267 57.4666 174.216 57.676C174.167 57.8855 174.091 58.0692 173.988 58.2271C173.885 58.385 173.752 58.5091 173.591 58.5993C173.432 58.6896 173.245 58.7347 173.028 58.7347C172.805 58.7347 172.613 58.6896 172.451 58.5993C172.29 58.5091 172.157 58.385 172.054 58.2271C171.951 58.0692 171.875 57.8855 171.826 57.676Z" fill="#8C8C8C"/>
<path fill-rule="evenodd" clip-rule="evenodd" d="M176.116 58.638C176.255 58.4897 176.374 58.3415 176.475 58.1933C176.578 58.0418 176.665 57.8758 176.736 57.6954C176.807 57.5117 176.862 57.2974 176.901 57.0524C176.943 56.8075 176.971 56.5159 176.983 56.1775L177.042 54.3357H180.677V58.638H181.394V61.1227H180.226V59.5661H176.867V61.1227H175.68L175.684 58.638H176.116ZM178.152 56.1775L178.179 55.3219H179.514V58.638H177.474C177.5 58.6019 177.526 58.5649 177.551 58.5268C177.722 58.2626 177.861 57.9387 177.967 57.5552C178.074 57.1717 178.135 56.7125 178.152 56.1775Z" fill="#8C8C8C"/>
<path d="M182.402 52.523C182.286 52.639 182.228 52.7856 182.228 52.9629C182.228 53.1369 182.286 53.2819 182.402 53.3979C182.522 53.514 182.687 53.572 182.897 53.572C183.104 53.572 183.267 53.514 183.386 53.3979C183.506 53.2819 183.566 53.1369 183.566 52.9629C183.566 52.7856 183.506 52.639 183.386 52.523C183.267 52.4038 183.104 52.3441 182.897 52.3441C182.687 52.3441 182.522 52.4038 182.402 52.523Z" fill="#8C8C8C"/>
<path d="M188.025 54.3357L185.965 57.8646V54.3357H184.797V59.5661H185.965L188.025 56.0325V59.5661H189.193V54.3357H188.025Z" fill="#8C8C8C"/>
<path d="M188.389 53.0354C188.518 52.8292 188.582 52.5923 188.582 52.3248H187.715C187.715 52.5053 187.661 52.6648 187.555 52.8034C187.448 52.9387 187.267 53.0064 187.012 53.0064C186.753 53.0064 186.569 52.9387 186.459 52.8034C186.353 52.6648 186.299 52.5053 186.299 52.3248H185.432C185.432 52.7276 185.572 53.0563 185.854 53.3109C186.138 53.5623 186.524 53.688 187.012 53.688C187.335 53.688 187.613 53.63 187.846 53.514C188.082 53.3979 188.263 53.2384 188.389 53.0354Z" fill="#8C8C8C"/>
<path fill-rule="evenodd" clip-rule="evenodd" d="M198.645 55.2252C198.784 55.2993 198.887 55.4041 198.955 55.5394C199.023 55.6748 199.057 55.8359 199.057 56.0228V56.3854H198.31C197.929 56.3854 197.59 56.424 197.293 56.5014C196.995 56.5755 196.743 56.6851 196.536 56.8301C196.333 56.9751 196.178 57.1556 196.071 57.3715C195.968 57.5842 195.916 57.8291 195.916 58.1063C195.916 58.4027 195.992 58.6686 196.144 58.9039C196.296 59.1359 196.506 59.3212 196.774 59.4598C197.042 59.5951 197.348 59.6628 197.69 59.6628C197.961 59.6628 198.201 59.6193 198.407 59.5323C198.617 59.4453 198.797 59.3341 198.945 59.1987C198.999 59.1499 199.049 59.1003 199.095 59.0499C199.097 59.0624 199.099 59.075 199.101 59.0876C199.133 59.2809 199.176 59.4404 199.231 59.5661H200.429V59.4888C200.364 59.3502 200.314 59.1875 200.278 59.0005C200.246 58.8104 200.23 58.5961 200.23 58.3576V56.0325C200.23 55.6329 200.141 55.3009 199.963 55.0367C199.789 54.7692 199.548 54.5694 199.241 54.4373C198.937 54.3051 198.588 54.2391 198.194 54.2391C197.865 54.2391 197.567 54.2826 197.302 54.3696C197.037 54.4566 196.81 54.5758 196.619 54.7273C196.428 54.8788 196.283 55.0512 196.183 55.2445C196.082 55.4379 196.032 55.6377 196.032 55.8439H197.196C197.196 55.7054 197.234 55.5813 197.312 55.4717C197.39 55.3622 197.498 55.2751 197.637 55.2107C197.776 55.1462 197.94 55.114 198.131 55.114C198.338 55.114 198.509 55.1511 198.645 55.2252ZM199.057 58.0896V57.1056H198.398C198.181 57.1056 197.991 57.1266 197.826 57.1685C197.661 57.2071 197.524 57.2651 197.414 57.3425C197.304 57.4198 197.222 57.5133 197.167 57.6229C197.112 57.7324 197.084 57.8565 197.084 57.9951C197.084 58.1336 197.116 58.2609 197.181 58.377C197.246 58.4897 197.339 58.5784 197.462 58.6428C197.588 58.7073 197.74 58.7395 197.918 58.7395C198.157 58.7395 198.365 58.6912 198.543 58.5945C198.724 58.4946 198.866 58.3737 198.97 58.2319C199.004 58.1836 199.033 58.1362 199.057 58.0896Z" fill="#8C8C8C"/>
<path fill-rule="evenodd" clip-rule="evenodd" d="M203.865 55.8488C203.755 56.171 203.7 56.5207 203.7 56.8978V57.0089C203.7 57.386 203.755 57.7356 203.865 58.0579C203.975 58.3802 204.135 58.6622 204.345 58.9039C204.555 59.1423 204.81 59.3292 205.111 59.4646C205.415 59.5967 205.759 59.6628 206.143 59.6628C206.525 59.6628 206.866 59.5967 207.166 59.4646C207.467 59.3292 207.722 59.1423 207.932 58.9039C208.142 58.6622 208.302 58.3802 208.412 58.0579C208.522 57.7356 208.577 57.386 208.577 57.0089V56.8978C208.577 56.5207 208.522 56.171 208.412 55.8488C208.302 55.5233 208.142 55.2413 207.932 55.0028C207.722 54.7611 207.465 54.5742 207.161 54.4421C206.861 54.3067 206.518 54.2391 206.134 54.2391C205.752 54.2391 205.41 54.3067 205.106 54.4421C204.806 54.5742 204.55 54.7611 204.34 55.0028C204.133 55.2413 203.975 55.5233 203.865 55.8488ZM204.941 57.676C204.893 57.4666 204.869 57.2442 204.869 57.0089V56.8978C204.869 56.6657 204.893 56.4466 204.941 56.2403C204.99 56.0309 205.066 55.8456 205.169 55.6844C205.272 55.5233 205.403 55.3976 205.562 55.3074C205.723 55.2139 205.914 55.1672 206.134 55.1672C206.353 55.1672 206.542 55.2139 206.701 55.3074C206.862 55.3976 206.995 55.5233 207.098 55.6844C207.205 55.8456 207.282 56.0309 207.331 56.2403C207.383 56.4466 207.408 56.6657 207.408 56.8978V57.0089C207.408 57.2442 207.383 57.4666 207.331 57.676C207.282 57.8855 207.206 58.0692 207.103 58.2271C207 58.385 206.867 58.5091 206.706 58.5993C206.547 58.6896 206.36 58.7347 206.143 58.7347C205.92 58.7347 205.728 58.6896 205.567 58.5993C205.405 58.5091 205.272 58.385 205.169 58.2271C205.066 58.0692 204.99 57.8855 204.941 57.676Z" fill="#8C8C8C"/>
<path fill-rule="evenodd" clip-rule="evenodd" d="M210.686 54.8807L210.637 54.3357H209.56V61.5771H210.729V59.0794C210.878 59.2482 211.052 59.383 211.252 59.4839C211.498 59.6032 211.784 59.6628 212.11 59.6628C212.44 59.6628 212.73 59.5967 212.983 59.4646C213.235 59.3325 213.446 59.1472 213.617 58.9087C213.792 58.667 213.923 58.385 214.01 58.0627C214.101 57.7373 214.146 57.3844 214.146 57.0041V56.9026C214.146 56.503 214.102 56.1404 214.015 55.8149C213.928 55.4862 213.797 55.2059 213.622 54.9738C213.448 54.7386 213.233 54.5581 212.978 54.4324C212.722 54.3035 212.43 54.2391 212.1 54.2391C211.777 54.2391 211.494 54.3003 211.252 54.4228C211.033 54.5333 210.845 54.686 210.686 54.8807ZM210.729 58.1014C210.822 58.2948 210.955 58.4495 211.126 58.5655C211.301 58.6783 211.524 58.7347 211.795 58.7347C212.005 58.7347 212.184 58.6896 212.333 58.5993C212.482 58.5091 212.603 58.385 212.697 58.2271C212.793 58.066 212.865 57.8807 212.91 57.6712C212.955 57.4617 212.978 57.2394 212.978 57.0041V56.9026C212.978 56.6609 212.955 56.4369 212.91 56.2307C212.865 56.0212 212.793 55.8375 212.697 55.6796C212.6 55.5217 212.475 55.3992 212.323 55.3122C212.175 55.222 211.995 55.1769 211.785 55.1769C211.578 55.1769 211.401 55.2123 211.252 55.2832C211.103 55.3509 210.979 55.4459 210.879 55.5684C210.821 55.6388 210.771 55.716 210.729 55.8002V58.1014Z" fill="#8C8C8C"/>
<path fill-rule="evenodd" clip-rule="evenodd" d="M221.853 55.2252C221.992 55.2993 222.095 55.4041 222.163 55.5394C222.231 55.6748 222.265 55.8359 222.265 56.0228V56.3854H221.518C221.137 56.3854 220.798 56.424 220.5 56.5014C220.203 56.5755 219.951 56.6851 219.744 56.8301C219.541 56.9751 219.385 57.1556 219.279 57.3715C219.175 57.5842 219.124 57.8291 219.124 58.1063C219.124 58.4027 219.2 58.6686 219.352 58.9039C219.503 59.1359 219.713 59.3212 219.982 59.4598C220.25 59.5951 220.555 59.6628 220.898 59.6628C221.169 59.6628 221.408 59.6193 221.615 59.5323C221.825 59.4453 222.004 59.3341 222.153 59.1987C222.207 59.1499 222.257 59.1003 222.303 59.0499C222.305 59.0624 222.306 59.075 222.308 59.0876C222.341 59.2809 222.384 59.4404 222.439 59.5661H223.636V59.4888C223.572 59.3502 223.522 59.1875 223.486 59.0005C223.454 58.8104 223.438 58.5961 223.438 58.3576V56.0325C223.438 55.6329 223.349 55.3009 223.171 55.0367C222.997 54.7692 222.756 54.5694 222.449 54.4373C222.145 54.3051 221.796 54.2391 221.402 54.2391C221.072 54.2391 220.775 54.2826 220.51 54.3696C220.245 54.4566 220.017 54.5758 219.827 54.7273C219.636 54.8788 219.49 55.0512 219.39 55.2445C219.29 55.4379 219.24 55.6377 219.24 55.8439H220.403C220.403 55.7054 220.442 55.5813 220.52 55.4717C220.597 55.3622 220.705 55.2751 220.844 55.2107C220.983 55.1462 221.148 55.114 221.339 55.114C221.546 55.114 221.717 55.1511 221.853 55.2252ZM222.265 58.0896V57.1056H221.605C221.389 57.1056 221.198 57.1266 221.033 57.1685C220.869 57.2071 220.731 57.2651 220.621 57.3425C220.512 57.4198 220.429 57.5133 220.374 57.6229C220.319 57.7324 220.292 57.8565 220.292 57.9951C220.292 58.1336 220.324 58.2609 220.389 58.377C220.453 58.4897 220.547 58.5784 220.67 58.6428C220.796 58.7073 220.948 58.7395 221.126 58.7395C221.365 58.7395 221.573 58.6912 221.751 58.5945C221.932 58.4946 222.074 58.3737 222.177 58.2319C222.212 58.1836 222.241 58.1362 222.265 58.0896Z" fill="#8C8C8C"/>
<path d="M230.505 52.523C230.388 52.639 230.33 52.7856 230.33 52.9629C230.33 53.1369 230.388 53.2819 230.505 53.3979C230.624 53.514 230.789 53.572 230.999 53.572C231.206 53.572 231.369 53.514 231.489 53.3979C231.608 53.2819 231.668 53.1369 231.668 52.9629C231.668 52.7856 231.608 52.639 231.489 52.523C231.369 52.4038 231.206 52.3441 230.999 52.3441C230.789 52.3441 230.624 52.4038 230.505 52.523Z" fill="#8C8C8C"/>
<path d="M235.332 56.395C235.209 56.4498 235.045 56.4772 234.838 56.4772H234.024V57.3086H234.838C235.048 57.3086 235.222 57.3344 235.361 57.386C235.5 57.4343 235.604 57.5117 235.672 57.618C235.739 57.7244 235.773 57.8646 235.773 58.0386C235.773 58.1675 235.739 58.2899 235.672 58.406C235.604 58.5188 235.5 58.6106 235.361 58.6815C235.222 58.7492 235.043 58.783 234.823 58.783C234.61 58.783 234.427 58.7476 234.276 58.6767C234.124 58.6025 234.007 58.5075 233.927 58.3915C233.846 58.2754 233.805 58.1514 233.805 58.0192H232.637C232.637 58.3963 232.742 58.7073 232.952 58.9522C233.166 59.1939 233.435 59.3728 233.762 59.4888C234.091 59.6048 234.431 59.6628 234.78 59.6628C235.1 59.6628 235.392 59.6273 235.657 59.5564C235.922 59.4855 236.15 59.3824 236.34 59.2471C236.534 59.1117 236.683 58.9474 236.786 58.754C236.893 58.5574 236.946 58.3367 236.946 58.0917C236.946 57.8726 236.904 57.6792 236.82 57.5117C236.74 57.3409 236.618 57.1975 236.457 57.0814C236.338 56.996 236.198 56.9264 236.037 56.8724C236.157 56.8193 236.265 56.7569 236.36 56.6851C236.518 56.5626 236.639 56.4224 236.723 56.2645C236.807 56.1066 236.849 55.939 236.849 55.7618C236.849 55.5136 236.801 55.2961 236.704 55.1092C236.61 54.919 236.473 54.7611 236.292 54.6354C236.114 54.5065 235.898 54.4099 235.642 54.3454C235.387 54.2777 235.1 54.2439 234.78 54.2439C234.405 54.2439 234.061 54.3067 233.747 54.4324C233.434 54.5581 233.183 54.7386 232.996 54.9738C232.812 55.2091 232.72 55.4895 232.72 55.8149H233.888C233.888 55.6796 233.928 55.5604 234.009 55.4572C234.09 55.3541 234.2 55.2735 234.339 55.2155C234.481 55.1575 234.641 55.1285 234.818 55.1285C235.035 55.1285 235.206 55.1624 235.332 55.23C235.458 55.2977 235.547 55.3847 235.599 55.4911C235.654 55.5942 235.681 55.7038 235.681 55.8198C235.681 55.9519 235.654 56.0679 235.599 56.1678C235.547 56.2645 235.458 56.3402 235.332 56.395Z" fill="#8C8C8C"/>
<path fill-rule="evenodd" clip-rule="evenodd" d="M240.485 55.2252C240.624 55.2993 240.727 55.4041 240.795 55.5394C240.863 55.6748 240.897 55.8359 240.897 56.0228V56.3854H240.15C239.769 56.3854 239.43 56.424 239.132 56.5014C238.835 56.5755 238.583 56.6851 238.376 56.8301C238.173 56.9751 238.018 57.1556 237.911 57.3715C237.807 57.5842 237.756 57.8291 237.756 58.1063C237.756 58.4027 237.832 58.6686 237.984 58.9039C238.135 59.1359 238.346 59.3212 238.614 59.4598C238.882 59.5951 239.187 59.6628 239.53 59.6628C239.801 59.6628 240.04 59.6193 240.247 59.5323C240.457 59.4453 240.637 59.3341 240.785 59.1987C240.839 59.1499 240.889 59.1003 240.935 59.0499C240.937 59.0624 240.938 59.075 240.94 59.0876C240.973 59.2809 241.016 59.4404 241.071 59.5661H242.268V59.4888C242.204 59.3502 242.154 59.1875 242.118 59.0005C242.086 58.8104 242.07 58.5961 242.07 58.3576V56.0325C242.07 55.6329 241.981 55.3009 241.803 55.0367C241.629 54.7692 241.388 54.5694 241.081 54.4373C240.777 54.3051 240.428 54.2391 240.034 54.2391C239.704 54.2391 239.407 54.2826 239.142 54.3696C238.877 54.4566 238.649 54.5758 238.459 54.7273C238.268 54.8788 238.123 55.0512 238.022 55.2445C237.922 55.4379 237.872 55.6377 237.872 55.8439H239.035C239.035 55.7054 239.074 55.5813 239.152 55.4717C239.229 55.3622 239.338 55.2751 239.477 55.2107C239.615 55.1462 239.78 55.114 239.971 55.114C240.178 55.114 240.349 55.1511 240.485 55.2252ZM240.897 58.0896V57.1056H240.237C240.021 57.1056 239.83 57.1266 239.666 57.1685C239.501 57.2071 239.363 57.2651 239.254 57.3425C239.144 57.4198 239.061 57.5133 239.006 57.6229C238.951 57.7324 238.924 57.8565 238.924 57.9951C238.924 58.1336 238.956 58.2609 239.021 58.377C239.086 58.4897 239.179 58.5784 239.302 58.6428C239.428 58.7073 239.58 58.7395 239.758 58.7395C239.997 58.7395 240.205 58.6912 240.383 58.5945C240.564 58.4946 240.706 58.3737 240.809 58.2319C240.844 58.1836 240.873 58.1362 240.897 58.0896Z" fill="#8C8C8C"/>
<path d="M248.347 61.1178L248.439 58.6428H247.726V54.3357H246.553V58.638H244.498V54.3357H243.33V59.5661H247.275V61.1178H248.347Z" fill="#8C8C8C"/>
<path d="M249.437 52.523C249.321 52.639 249.263 52.7856 249.263 52.9629C249.263 53.1369 249.321 53.2819 249.437 53.3979C249.557 53.514 249.722 53.572 249.932 53.572C250.138 53.572 250.302 53.514 250.421 53.3979C250.541 53.2819 250.6 53.1369 250.6 52.9629C250.6 52.7856 250.541 52.639 250.421 52.523C250.302 52.4038 250.138 52.3441 249.932 52.3441C249.722 52.3441 249.557 52.4038 249.437 52.523Z" fill="#8C8C8C"/>
<path fill-rule="evenodd" clip-rule="evenodd" d="M252.64 57.4542L251.415 59.5661H252.622L253.741 57.6422H254.837V59.5661H256V54.3357H253.751C253.418 54.3357 253.119 54.3776 252.854 54.4614C252.593 54.542 252.37 54.658 252.185 54.8095C252.005 54.9609 251.866 55.1382 251.769 55.3412C251.672 55.5442 251.623 55.7666 251.623 56.0083C251.623 56.2436 251.67 56.4611 251.764 56.6609C251.857 56.8575 251.993 57.0299 252.171 57.1781C252.305 57.2876 252.461 57.3796 252.64 57.4542ZM254.837 56.7914V55.2542H253.751C253.531 55.2542 253.35 55.2929 253.208 55.3702C253.066 55.4443 252.961 55.5426 252.893 55.6651C252.825 55.7843 252.791 55.9068 252.791 56.0325C252.791 56.1582 252.822 56.279 252.883 56.395C252.948 56.511 253.047 56.6061 253.179 56.6802C253.315 56.7543 253.484 56.7914 253.688 56.7914H254.837Z" fill="#8C8C8C"/>
<path d="M99.2464 59.5661V54.3357H98.0734V59.5661H99.2464Z" fill="#8C8C8C"/>
<path d="M111.888 56.5207H109.837V54.3357H108.669V59.5661H109.837V57.4392H111.888V59.5661H113.056V54.3357H111.888V56.5207Z" fill="#8C8C8C"/>
<path d="M139.884 56.5207H137.834V54.3357H136.666V59.5661H137.834V57.4392H139.884V59.5661H141.052V54.3357H139.884V56.5207Z" fill="#8C8C8C"/>
<path d="M170.227 55.2639V54.3357H166.771V59.5661H167.939V55.2639H170.227Z" fill="#8C8C8C"/>
<path d="M183.478 59.5661V54.3357H182.306V59.5661H183.478Z" fill="#8C8C8C"/>
<path d="M193.686 56.5207H191.636V54.3357H190.468V59.5661H191.636V57.4392H193.686V59.5661H194.855V54.3357H193.686V56.5207Z" fill="#8C8C8C"/>
<path d="M218.629 55.2639V54.3357H215.173V59.5661H216.342V55.2639H218.629Z" fill="#8C8C8C"/>
<path d="M227.916 56.5207H225.866V54.3357H224.698V59.5661H225.866V57.4392H227.916V59.5661H229.084V54.3357H227.916V56.5207Z" fill="#8C8C8C"/>
<path d="M231.581 59.5661V54.3357H230.408V59.5661H231.581Z" fill="#8C8C8C"/>
<path d="M250.513 59.5661V54.3357H249.34V59.5661H250.513Z" fill="#8C8C8C"/>
</svg>
