<svg width="115" height="64" viewBox="0 0 115 64" fill="none" xmlns="http://www.w3.org/2000/svg">
<path d="M6.24133 63.4785H4.41315C2.41291 63.4785 0.799805 61.8659 0.799805 59.8662V45.116C0.799805 43.1164 2.41291 41.5037 4.41315 41.5037H7.25221V30.5164H4.41315C2.41291 30.5164 0.799805 28.9038 0.799805 26.9041V18.3034C0.799805 16.3038 2.41291 14.6911 4.41315 14.6911H7.25221V4.11229C7.25221 2.11263 8.88682 0.5 10.8656 0.5H42.0952C44.0954 0.5 45.7085 2.11263 45.7085 4.11229V13.702C45.7085 15.7017 44.0954 17.3143 42.0952 17.3143H9.85468V27.9792H25.6201C27.6203 27.9792 29.2334 29.5918 29.2334 31.5915V40.4932C29.2334 42.4928 27.6203 44.1055 25.6201 44.1055H9.85468V59.8877C9.85468 61.8659 8.22007 63.4785 6.24133 63.4785ZM4.41315 44.1055C3.85394 44.1055 3.38077 44.557 3.38077 45.1375V59.8877C3.38077 60.4468 3.83243 60.9198 4.41315 60.9198H6.24133C6.80054 60.9198 7.27372 60.4683 7.27372 59.8877V44.1055H4.41315ZM9.85468 41.5253H25.6201C26.1793 41.5253 26.6524 41.0737 26.6524 40.4932V31.57C26.6524 31.0109 26.2008 30.5379 25.6201 30.5379H9.85468V41.5253ZM4.41315 17.2928C3.85394 17.2928 3.38077 17.7444 3.38077 18.3249V26.9256C3.38077 27.4846 3.83243 27.9577 4.41315 27.9577H7.25221V17.2928H4.41315ZM9.85468 14.7126H42.0952C42.6544 14.7126 43.1276 14.2611 43.1276 13.6805V4.11229C43.1276 3.55324 42.6759 3.0802 42.0952 3.0802H10.8656C10.3063 3.0802 9.83317 3.53174 9.83317 4.11229V14.7126H9.85468Z" fill="#D9D9E3"/>
<path d="M37.9012 26.7107V30.581H41.192V34.0428H37.9012V41.5254H34.3094V23.3565H41.5576V26.7107H37.9012ZM54.5484 36.881C54.5484 37.9131 54.4839 38.7302 53.9462 39.6548C52.9568 41.3104 50.9136 41.8049 49.1284 41.8049C46.1603 41.8049 43.7944 40.3643 43.7944 37.1391V23.335H47.3863V35.3974C47.3863 36.752 47.3217 38.5367 49.1929 38.5367C51.0211 38.5367 50.9566 36.924 50.9566 35.5694V23.335H54.5484V36.881ZM62.3558 26.6677V41.5039H58.764V26.6677H55.968V23.3565H65.1734V26.6677H62.3558ZM77.3469 36.881C77.3469 37.9131 77.2824 38.7302 76.7447 39.6548C75.7553 41.3104 73.7121 41.8049 71.9269 41.8049C68.9588 41.8049 66.5929 40.3643 66.5929 37.1391V23.335H70.1848V35.3974C70.1848 36.752 70.1202 38.5367 71.9914 38.5367C73.8196 38.5367 73.7551 36.924 73.7551 35.5694V23.335H77.3469V36.881ZM86.961 41.5254L83.7778 33.1612V41.5254H80.1645V23.3565H84.0574C85.3909 23.3565 86.8535 23.464 88.0149 24.238C89.4559 25.1841 90.1657 26.9687 90.1657 28.6459C90.1657 30.71 89.3484 32.1937 87.5847 33.2687L90.7464 41.5254H86.961ZM83.7778 31.1616C83.9714 31.1831 84.1865 31.1831 84.38 31.1831C85.9286 31.1831 86.7029 30.1295 86.7029 28.6459C86.7029 27.1838 86.0577 26.1732 84.4661 26.1732H83.7778V31.1616ZM93.0478 41.5254V23.3565H100.274V26.7322H96.6611V30.6455H99.8443V34.0858H96.6611V38.1711H100.339V41.5254H93.0478ZM46.2033 63.1776L45.3 50.1046C45.214 51.5237 44.9989 52.8998 44.7623 54.2974L43.1492 63.1776H40.3962L38.697 54.964C38.5035 54.0609 38.3099 53.1578 38.2239 52.2333L38.0088 50.1046L37.4281 63.1776H33.5781L35.2127 45.0087H39.9445L41.7082 55.738L43.1707 45.0087H48.01L49.8812 63.1776H46.2033ZM62.657 58.5548C62.657 59.5868 62.5924 60.4039 62.0547 61.3285C61.0654 62.9841 59.0221 63.4786 57.2369 63.4786C54.2688 63.4786 51.903 62.038 51.903 58.8128V45.0087H55.4948V57.0711C55.4948 58.4258 55.4303 60.2104 57.3015 60.2104C59.1296 60.2104 59.0651 58.5978 59.0651 57.2432V45.0087H62.657V58.5548ZM72.9808 49.137C72.2495 48.5135 71.4107 47.9759 70.3998 47.9759C69.3459 47.9759 68.5932 48.6855 68.5932 49.7391C68.5932 52.8783 74.0347 52.8138 74.0347 57.8882C74.0347 61.0275 72.1635 63.5002 68.8513 63.5002C67.7328 63.5002 66.6359 63.1991 65.7111 62.5756V59.1353C66.5284 59.6729 67.3672 60.1244 68.3781 60.1244C69.604 60.1244 70.5074 59.3718 70.5074 58.1032C70.5074 57.7807 70.4429 57.4797 70.3138 57.1786C69.9912 56.4906 68.9803 55.8885 68.3781 55.48C66.3348 54.0609 65.0228 52.7493 65.0228 50.1261C65.0228 47.2664 66.679 44.7722 69.7546 44.7722C70.9806 44.7722 71.8839 45.0517 72.9378 45.6537V49.137H72.9808ZM76.1425 63.1776V45.0087H83.3692V48.3845H79.7343V52.3193H82.9175V55.7595H79.7343V59.8449H83.4122V63.1991H76.1425V63.1776ZM96.5751 58.5548C96.5751 59.5868 96.5106 60.4039 95.9729 61.3285C94.9835 62.9841 92.9402 63.4786 91.1551 63.4786C88.187 63.4786 85.8211 62.038 85.8211 58.8128V45.0087H89.4129V57.0711C89.4129 58.4258 89.3484 60.2104 91.2196 60.2104C93.0478 60.2104 92.9832 58.5978 92.9832 57.2432V45.0087H96.5751V58.5548ZM111.308 63.1776L110.405 50.1046C110.319 51.5237 110.104 52.8998 109.867 54.2974L108.254 63.1776H105.501L103.802 54.964C103.608 54.0609 103.415 53.1578 103.329 52.2333L103.114 50.1046L102.533 63.1776H98.6829L100.253 45.0087H104.985L106.748 55.738L108.189 45.0087H113.029L114.9 63.1776H111.308Z" fill="#D9D9E3"/>
</svg>
