<svg width="106" height="20" viewBox="0 0 106 20" fill="none" xmlns="http://www.w3.org/2000/svg">
<path fill-rule="evenodd" clip-rule="evenodd" d="M95.3983 0.200012C90.0844 0.200012 85.7793 4.55617 85.7793 9.93316C85.7793 15.3102 90.0844 19.6663 95.3983 19.6663C100.712 19.6663 105.017 15.3102 105.017 9.93316C105.009 4.55617 100.704 0.200012 95.3983 0.200012ZM95.3983 7.72428C94.1894 7.72428 93.2153 8.70992 93.2153 9.93316C93.2153 11.1564 94.1894 12.142 95.3983 12.142C96.5985 12.142 97.5813 11.1476 97.5813 9.93316C97.5813 8.70992 96.5985 7.72428 95.3983 7.72428ZM95.407 0.789633C96.9203 1.47606 98.7119 2.25049 100.103 3.27132C101.495 4.29216 102.86 5.84981 104.035 7.14346C103.817 8.89472 103.608 10.8572 103.078 12.5117C102.547 14.1661 101.591 15.8382 100.73 17.4046C99.0685 17.7126 97.1029 18.1087 95.3809 18.1087C93.6676 18.1087 91.7629 17.7214 90.067 17.4046C89.2668 15.9526 88.2493 14.2101 87.7188 12.5469C87.1882 10.8924 86.9708 8.90352 86.7708 7.14346C87.8057 5.95542 89.1625 4.33616 90.5453 3.31532C91.9369 2.30329 93.8415 1.49366 95.407 0.789633Z" fill="#D9D9E3"/>
<path d="M65.1151 15.9437H56.5485C54.6351 15.9437 53.7741 14.3948 53.7741 12.8548V6.76497C53.7741 5.18971 54.8873 3.56166 56.7572 3.56166H63.3235C65.1412 3.56166 66.0979 5.28652 66.0979 6.98498C66.0979 8.61304 65.2282 10.3643 63.3235 10.3643H54.9395L54.9569 12.8372C54.9569 13.726 55.3744 14.7645 56.5485 14.7645H65.1151C65.4456 14.7645 65.6978 15.0197 65.6978 15.3541C65.6978 15.6885 65.4456 15.9437 65.1151 15.9437ZM54.9395 9.19386H63.3235C64.428 9.19386 64.9151 8.09382 64.9151 7.00258C64.9151 5.87614 64.3672 4.7409 63.3235 4.7409H56.7572C55.7483 4.7409 54.9482 5.63853 54.9482 6.78257L54.9395 9.19386ZM48.9559 15.9437H40.3893C38.4759 15.9437 37.6149 14.3948 37.6149 12.8548V6.76497C37.6149 5.18971 38.7281 3.56166 40.598 3.56166H47.1643C48.9907 3.56166 49.9387 5.28652 49.9387 6.98498C49.9387 8.61304 49.069 10.3643 47.1643 10.3643H38.7803L38.7977 12.8372C38.7977 13.726 39.2152 14.7645 40.3893 14.7645H48.9559C49.2864 14.7645 49.5386 15.0197 49.5386 15.3541C49.5386 15.6885 49.2864 15.9437 48.9559 15.9437ZM38.7803 9.19386H47.1643C48.2688 9.19386 48.7559 8.09382 48.7559 7.00258C48.7559 5.87614 48.208 4.7409 47.1643 4.7409H40.598C39.5892 4.7409 38.789 5.63853 38.789 6.78257L38.7803 9.19386ZM81.6048 15.9349H71.377C70.603 15.9349 69.9507 15.4421 69.7246 14.6853C69.4984 13.9372 69.7507 13.1892 70.3682 12.7668C71.9945 11.6579 73.6209 10.5667 75.2559 9.47547C77.0997 8.24342 78.9348 7.01138 80.7612 5.76173C81.0134 5.59453 81.0395 5.32172 80.9786 5.13691C80.9525 5.04011 80.8221 4.7321 80.4307 4.7321H70.4464C70.1246 4.7321 69.8724 4.47689 69.8724 4.14248C69.8724 3.81687 70.1246 3.55286 70.4464 3.55286H80.4307C81.2047 3.55286 81.857 4.03687 82.0918 4.7849C82.318 5.52413 82.057 6.29855 81.4482 6.72097C79.9002 7.76821 78.3521 8.79784 76.804 9.83628C74.8819 11.1211 72.9599 12.406 71.0552 13.6996C70.803 13.8756 70.7769 14.1396 70.8378 14.342C70.8639 14.4388 70.9943 14.7469 71.3857 14.7469H81.6135C81.9353 14.7469 82.1875 15.0021 82.1875 15.3365C82.1788 15.6709 81.9266 15.9349 81.6048 15.9349ZM30.9442 15.9349H22.2385C21.7862 15.9349 21.4383 15.5741 21.4383 15.1077V4.38889C21.4383 3.92247 21.7862 3.56166 22.2385 3.56166H30.9269C32.3271 3.56166 33.649 4.8905 33.649 6.29855V13.2156C33.649 14.6324 32.3619 15.9349 30.9442 15.9349ZM22.595 4.7409V14.7645C23.9431 14.7645 25.2564 14.7557 26.5783 14.7557C28.022 14.7469 29.4657 14.7469 30.9356 14.7469C31.7183 14.7469 32.4575 14.0076 32.4575 13.2156V6.31615C32.4575 5.52413 31.6922 4.7409 30.9182 4.7409H22.595ZM11.7585 15.9349C11.428 15.9349 11.1671 15.6797 11.1671 15.3541V10.3643H1.16541V15.3541C1.16541 15.6797 0.913194 15.9349 0.582705 15.9349C0.260913 15.9349 0 15.6797 0 15.3541V4.13368C0 3.80807 0.252216 3.55286 0.582705 3.55286C0.904497 3.55286 1.16541 3.80807 1.16541 4.13368V9.18506H11.1671V4.13368C11.1671 3.80807 11.428 3.55286 11.7585 3.55286C12.089 3.55286 12.3499 3.80807 12.3499 4.13368V15.3453C12.3499 15.6797 12.089 15.9349 11.7585 15.9349ZM16.9941 15.9349C16.6636 15.9349 16.4114 15.6709 16.4114 15.3453V4.15128C16.4114 3.81687 16.6636 3.56166 16.9941 3.56166C17.3072 3.56166 17.5594 3.79927 17.5768 4.12488V15.3629C17.5507 15.6973 17.3072 15.9349 16.9941 15.9349Z" fill="#D9D9E3"/>
</svg>
