<svg width="119" height="29" viewBox="0 0 119 29" fill="none" xmlns="http://www.w3.org/2000/svg">
<path fill-rule="evenodd" clip-rule="evenodd" d="M0 5.77046V28.6797H3.52396V27.0681H1.80242V7.50916H3.52396V5.77046H0ZM9.13918 25.6124V9.01102H5.32637V25.6124H9.13918ZM12.952 9.01102V15.5961H9.80931V18.3804H12.952V25.6124H16.811V9.01102H12.952ZM18.8041 13.2856V20.8758C18.8041 24.099 20.6469 25.7973 24.3153 25.9475V23.2672C23.2466 23.1632 22.7035 22.5509 22.7035 21.4881V13.1181C22.7035 12.0667 23.2466 11.4833 24.3153 11.3562V8.65289C20.6469 8.75686 18.8041 10.3107 18.8041 13.2856ZM26.6665 13.1181V21.4823C26.6665 22.5683 26.1235 23.1575 25.0085 23.2614V25.9417C28.7636 25.855 30.6469 24.203 30.6469 20.9566V13.3722C30.6469 10.2472 28.7636 8.65289 25.0085 8.63556V11.362C26.1177 11.4602 26.6665 12.0494 26.6665 13.1181ZM32.5128 13.2856V20.8758C32.5128 24.099 34.3557 25.7973 38.0241 25.9475V23.2672C36.9553 23.1632 36.4123 22.5509 36.4123 21.4881V13.1181C36.4123 12.0667 36.9553 11.4833 38.0241 11.3562V8.65289C34.3615 8.75686 32.5128 10.3107 32.5128 13.2856ZM40.3753 13.1181V21.4823C40.3753 22.5683 39.8323 23.1575 38.7173 23.2614V25.9417C42.4724 25.855 44.3556 24.203 44.3556 20.9566V13.3722C44.3556 10.2472 42.4724 8.65289 38.7173 8.63556V11.362C39.8323 11.4602 40.3753 12.0494 40.3753 13.1181ZM49.8958 9.01102H46.3314V25.6124H49.8958V9.01102ZM54.5058 24.5034V18.7789L50.3521 10.3107V16.0929L54.5058 24.5034ZM58.5728 9.01102H54.9448V25.6124H58.5728V9.01102ZM60.6467 9.01102V25.6124H64.5404V9.01102H60.6467ZM66.5566 13.1816V21.0433C66.5566 22.7416 66.9956 23.9604 67.8564 24.7344C68.7172 25.5085 70.0979 25.8839 72.01 25.8839V23.2672C70.9817 23.1632 70.4618 22.5914 70.4618 21.6094V13.0372C70.4618 12.0494 70.9817 11.4833 72.01 11.3562V8.65289C68.3821 8.65289 66.5566 10.1605 66.5566 13.1816ZM72.6166 8.63556V11.3389C73.8125 11.3794 74.419 11.9454 74.419 13.0372V14.7297H78.1279V13.222C78.1279 10.1605 76.285 8.63556 72.6166 8.63556ZM72.6166 23.2672V25.9013H72.7842C74.0435 25.9013 74.9679 25.4045 75.5282 24.4167L76.3659 25.6067H78.1279V15.8041H72.2989V18.2995H73.5352C74.1244 18.2995 74.4133 18.6576 74.4133 19.3508V21.6152C74.419 22.678 73.8125 23.2441 72.6166 23.2672ZM88.3993 9.01102H83.4716L79.2602 25.6124H83.0325L85.9672 12.5982L87.267 19.3508H85.066L84.523 22.1408H87.8332L88.6073 25.6182H92.6107L88.3993 9.01102ZM97.3074 9.01102H93.743V25.6124H97.3074V9.01102ZM101.917 24.5034V18.7789L97.7638 10.3107V16.0929L101.917 24.5034ZM105.99 9.01102H102.362V25.6124H105.99V9.01102ZM111.311 28.6682V5.81667H107.787V7.55537H109.526V27.0623H107.787V28.6682H111.311ZM113.258 7.25499L114.557 7.71711L115.355 4.55163L117.117 7.21456L118.185 6.33654L115.88 4.05486L119 3.84691L118.746 2.44324L115.771 3.36747L117.07 0.519694L115.748 -0.000183105L115.077 3.12486L113.194 0.485036L112.143 1.42659L114.552 3.6043L111.432 3.81225L111.704 5.21592L114.702 4.26859L113.258 7.25499Z" fill="#D9D9E3"/>
</svg>
