<svg width="72" height="72" viewBox="0 0 72 72" fill="none" xmlns="http://www.w3.org/2000/svg">
<rect width="72" height="72" rx="36" fill="white"/>
<path d="M46.3129 38.3544L42.5133 36L46.3129 33.6455C46.7082 33.4044 47.0523 33.0855 47.3253 32.7075C47.5983 32.3294 47.7946 31.8998 47.9029 31.4437C48.0111 30.9875 48.0291 30.514 47.9558 30.0507C47.8824 29.5874 47.7192 29.1437 47.4757 28.7453C47.2322 28.3469 46.9132 28.0019 46.5374 27.7304C46.1616 27.459 45.7365 27.2664 45.2869 27.164C44.8372 27.0617 44.3721 27.0515 43.9185 27.1342C43.465 27.2168 43.0322 27.3907 42.6453 27.6455L39.222 29.8777V26C39.222 25.1159 38.8772 24.2681 38.2634 23.6429C37.6497 23.0178 36.8173 22.6666 35.9493 22.6666C35.0813 22.6666 34.2489 23.0178 33.6351 23.6429C33.0214 24.2681 32.6766 25.1159 32.6766 26V29.9866L29.2533 27.6455C28.4726 27.1693 27.5395 27.0244 26.655 27.2422C25.7704 27.4599 25.0053 28.0228 24.5243 28.8096C24.0433 29.5964 23.8851 30.5442 24.0836 31.4487C24.2821 32.3533 24.8215 33.1422 25.5857 33.6455L29.3853 36L25.5857 38.3544C24.8215 38.8577 24.2821 39.6467 24.0836 40.5512C23.8851 41.4557 24.0433 42.4035 24.5243 43.1903C25.0053 43.9771 25.7704 44.54 26.655 44.7578C27.5395 44.9755 28.4726 44.8307 29.2533 44.3544L32.6766 42.09V46C32.6766 46.884 33.0214 47.7319 33.6351 48.357C34.2489 48.9821 35.0813 49.3333 35.9493 49.3333C36.8173 49.3333 37.6497 48.9821 38.2634 48.357C38.8772 47.7319 39.222 46.884 39.222 46V42.0222L42.6453 44.3555C43.426 44.8318 44.3591 44.9766 45.2436 44.7589C46.1281 44.5411 46.8933 43.9782 47.3743 43.1914C47.8552 42.4046 48.0135 41.4568 47.815 40.5523C47.6165 39.6478 47.077 38.8589 46.3129 38.3555V38.3544Z" stroke="#2F3037" stroke-width="1.5" stroke-linejoin="round"/>
</svg>
