<svg width="119" height="38" viewBox="0 0 119 38" fill="none" xmlns="http://www.w3.org/2000/svg">
<path fill-rule="evenodd" clip-rule="evenodd" d="M0 19C0 8.55773 8.55983 0.0999756 19.1182 0.0999756C29.6858 0.0999756 38.2433 8.55773 38.2433 19C38.2433 29.4422 29.6858 37.9 19.1182 37.9C17.0333 37.9 15.029 37.5692 13.1518 36.9644C14.511 29.1635 19.4938 22.8012 26.0785 20.1021C26.4825 20.5622 26.9786 20.9299 27.5337 21.1811C28.0889 21.4322 28.6905 21.5609 29.2985 21.5586C31.6447 21.5586 33.5452 19.6768 33.5452 17.3533C33.5452 15.0322 31.6447 13.1504 29.2985 13.1504C26.9512 13.1504 25.0518 15.0263 25.046 17.345C16.6425 19.8434 9.83383 25.6421 6.37933 33.0947C5.28366 32.1281 4.30253 31.036 3.45567 29.8403C3.654 22.5827 7.28583 16.2406 12.7237 12.5031C13.1269 12.9502 13.618 13.307 14.1655 13.5505C14.7131 13.794 15.3048 13.9189 15.9028 13.9171C18.2513 13.9171 20.153 12.0294 20.153 9.71181C20.153 7.38829 18.2513 5.50774 15.9028 5.50774C13.552 5.50774 11.6503 7.38829 11.6503 9.71299C11.6503 9.83348 11.6585 9.95751 11.6678 10.0733C6.60333 11.8298 2.44533 15.305 0.0128333 19.7324C0.00116667 19.4937 0 19.2445 0 19Z" fill="#D9D9E3"/>
<path fill-rule="evenodd" clip-rule="evenodd" d="M112.91 24.3012V9.59705C112.91 9.40333 112.812 9.31946 112.577 9.31946H108.683C108.456 9.31946 108.358 9.40333 108.358 9.59705V25.3573C108.358 28.1923 109.649 28.6801 112.622 28.6801C112.713 28.6801 112.787 28.6719 112.855 28.6116C112.923 28.5596 112.91 28.412 112.91 28.412V24.3012ZM51.9026 24.2989V9.59823C51.9026 9.40569 51.7976 9.31946 51.569 9.31946H47.6793C47.4506 9.31946 47.3491 9.40569 47.3491 9.59823V25.3561C47.3491 28.1911 48.6406 28.6801 51.6063 28.6801C51.7055 28.6801 51.7731 28.673 51.8455 28.6128C51.9073 28.5585 51.9026 28.4144 51.9026 28.4144V24.2989ZM61.6186 28.6801C61.4273 28.6801 61.3456 28.5974 61.3456 28.4025V18.0607C61.3456 17.9497 61.2908 17.8953 61.1835 17.8953H60.3668C60.1766 17.8953 60.0985 17.815 60.0985 17.6189V15.3308C60.0985 15.1407 60.1766 15.0544 60.3668 15.0544H61.1835C61.2908 15.0544 61.3456 15.0001 61.3456 14.8914V13.9275C61.3456 10.7003 62.8156 9.31946 65.9656 9.31946H68.0178C68.2091 9.31946 68.2931 9.40333 68.2931 9.59705V12.0871C68.2931 12.2832 68.2091 12.3624 68.0178 12.3624H66.6201C65.4208 12.3624 65.1268 12.6659 65.1268 13.7988V14.8914C65.1268 15.0001 65.1805 15.0544 65.2866 15.0544H67.0215C67.2116 15.0544 67.2945 15.1407 67.2945 15.3308V17.6189C67.2945 17.815 67.2116 17.8965 67.0215 17.8965H65.2866C65.1805 17.8965 65.1268 17.9497 65.1268 18.0607V28.4025C65.1268 28.5974 65.0416 28.6801 64.8538 28.6801H61.6186ZM54.0493 12.0848C53.823 12.0848 53.7226 12.0103 53.7226 11.8343V9.57343C53.7226 9.39624 53.823 9.31946 54.0493 9.31946H57.9518C58.177 9.31946 58.2761 9.39624 58.2761 9.57343V11.8343C58.2761 12.0115 58.177 12.0848 57.9518 12.0848H54.0493ZM54.0493 28.6801C53.823 28.6801 53.7226 28.5963 53.7226 28.3978V15.13C53.7226 14.9375 53.823 14.8512 54.0493 14.8512H57.9518C58.177 14.8512 58.2761 14.9375 58.2761 15.13V28.3978C58.2761 28.5963 58.177 28.6813 57.9518 28.6813H54.0493V28.6801ZM83.2299 24.9379C82.9616 24.143 82.8613 23.0763 82.8613 21.7639C82.8613 20.4527 82.9604 19.3861 83.2299 18.5958C83.9813 16.1624 86.0451 14.8512 88.8346 14.8512C90.9743 14.8512 92.771 15.8376 93.7346 17.3378C93.8139 17.476 93.814 17.6118 93.6821 17.7229L91.3488 19.2774C91.189 19.3861 91.0536 19.3624 90.9498 19.2242C90.4096 18.46 89.7154 18.0761 88.8848 18.0761C87.8383 18.0761 87.1709 18.5427 86.8746 19.4971C86.7136 19.9602 86.6355 20.7291 86.6355 21.7651C86.6355 22.8046 86.7136 23.5665 86.8746 24.0355C87.1709 24.9899 87.8383 25.4541 88.8848 25.4541C89.7154 25.4541 90.4096 25.0738 90.9498 24.3083C91.0548 24.1725 91.189 24.143 91.3488 24.254L93.6821 25.8121C93.814 25.9184 93.8139 26.0554 93.7346 26.196C92.771 27.6926 90.9743 28.6801 88.8346 28.6801C86.0451 28.6801 83.9813 27.3678 83.2299 24.9379ZM103.407 20.3724C103.524 20.3724 103.575 20.3169 103.579 20.2094C103.579 19.8527 103.525 19.5243 103.435 19.2242C103.095 18.2674 102.389 17.7772 101.184 17.7772C100.115 17.7772 99.1363 18.2686 98.7921 19.2242C98.707 19.5255 98.6521 19.8527 98.6521 20.2094C98.6521 20.3157 98.707 20.3724 98.819 20.3724H103.407ZM95.1521 24.912C94.8394 23.9788 94.6994 22.9393 94.6994 21.7639C94.6994 20.5378 94.8068 19.4699 95.1241 18.5958C95.928 16.218 98.1341 14.8512 101.085 14.8512C104.092 14.8512 106.273 16.2475 107.079 18.5698C107.388 19.4971 107.448 20.8614 107.448 22.6428C107.448 22.8318 107.333 22.9121 107.128 22.9121H98.8948C98.7804 22.9121 98.7233 22.9712 98.7233 23.0763C98.7536 23.3503 98.7373 23.596 98.819 23.8134C99.19 24.9899 100.165 25.5628 101.69 25.5652C102.8 25.5675 103.685 25.2309 104.242 24.8623C104.751 24.5233 104.743 24.4052 105.028 24.6261L107.162 26.0849C107.354 26.2184 107.333 26.3306 107.189 26.4653C105.729 27.943 103.78 28.6801 101.285 28.6801C98.1621 28.6801 95.9559 27.3122 95.1521 24.912ZM77.0011 20.3724C77.1178 20.3724 77.1738 20.3169 77.1738 20.2094C77.1738 19.8527 77.1178 19.5243 77.0291 19.2242C76.6885 18.2674 75.9838 17.7772 74.7821 17.7772C73.7053 17.7772 72.7311 18.2686 72.3905 19.2242C72.2947 19.5436 72.2459 19.8756 72.2458 20.2094C72.2458 20.3157 72.2995 20.3724 72.4185 20.3724H77.0011ZM68.7458 24.912C68.4331 23.9788 68.2931 22.9393 68.2931 21.7639C68.2931 20.5378 68.4016 19.4699 68.719 18.5958C69.5216 16.218 71.729 14.8512 74.6806 14.8512C77.686 14.8512 79.8688 16.2475 80.6691 18.5698C80.9829 19.4971 81.0401 20.8614 81.0401 22.6428C81.0401 22.8318 80.927 22.9121 80.7275 22.9121H72.4896C72.3753 22.9121 72.3216 22.9712 72.3216 23.0763C72.3438 23.3503 72.3333 23.596 72.4185 23.8134C72.7883 24.9899 73.7601 25.5628 75.2838 25.5652C76.3991 25.5675 77.2823 25.2309 77.8411 24.8623C78.3475 24.5233 78.3416 24.4052 78.6228 24.6261L80.7578 26.0849C80.9468 26.2184 80.9293 26.3306 80.7881 26.4653C79.3228 27.943 77.3779 28.6801 74.8848 28.6801C71.7569 28.6801 69.5473 27.3122 68.7458 24.912ZM118.373 24.3012V9.59705C118.373 9.40333 118.274 9.31946 118.042 9.31946H114.147C113.919 9.31946 113.82 9.40333 113.82 9.59705V25.3573C113.82 28.1923 115.111 28.6801 118.078 28.6801C118.17 28.6801 118.244 28.6719 118.316 28.6116C118.379 28.5596 118.372 28.412 118.372 28.412V24.3012H118.373Z" fill="#D9D9E3"/>
</svg>
