<svg width="310" height="80" viewBox="0 0 310 80" fill="none" xmlns="http://www.w3.org/2000/svg">
<g clip-path="url(#clip0_124_3105)">
<path d="M88.0794 21.781C85.3251 10.8029 82.5122 13.2555 76.652 18.8029C77.824 17.8686 79.2891 16.9927 80.1681 17.4599C81.2815 18.1022 81.7504 19.0949 80.4611 23.1241C76.0073 37.2555 53.0353 49.1095 59.3643 71.2993C62.9977 68.6716 66.5138 65.9854 68.5649 64.1168C80.6369 53.0803 88.2552 38.4234 88.2552 24.7591C88.1966 22.7737 88.0794 21.9562 88.0794 21.781Z" fill="url(#paint0_linear_124_3105)"/>
<path d="M44.0692 8.70076C40.4945 5.54748 35.6305 2.16061 29.3015 0.759154C29.1257 0.759154 29.0085 0.759154 28.8327 0.759154C8.3219 -0.175153 10.1972 16.0584 10.3144 16.9343C10.4316 18.3942 10.7832 20.2044 11.4278 22.3066C12.4827 23.2409 13.5375 24.0584 14.6509 24.8759C28.5983 31.9416 30.7079 18.9781 44.0692 8.70076Z" fill="url(#paint1_linear_124_3105)"/>
<path d="M65.3418 0C57.5477 0 51.2772 3.56204 44.1278 8.70073C30.7665 18.9781 28.6568 31.9416 14.6509 24.8175C25.0235 32.1752 34.6342 34.219 43.1315 34.219C76.359 34.219 82.395 -1.0511 88.0794 21.781C86.8488 9.51824 78.0584 0 65.3418 0ZM47.3509 31.1825C42.4283 31.1825 38.4434 27.2117 38.4434 22.3066C38.4434 17.4015 42.4283 13.4307 47.3509 13.4307C52.2735 13.4307 56.2584 17.4015 56.2584 22.3066C56.2584 27.2117 52.2735 31.1825 47.3509 31.1825Z" fill="url(#paint2_linear_124_3105)"/>
<path d="M30.4731 45.0219C13.9473 33.2263 10.7828 22.4234 10.314 16.8759C10.2554 16 8.32151 -0.175184 28.8323 0.700728C29.0081 0.700728 29.1253 0.700728 29.3011 0.700728C27.3086 0.233575 25.1403 0 22.8548 0C9.14194 0 0 11.0949 0 24.7591C0 38.4234 5.5086 48 14.6505 58.1606C23.0307 67.5036 39.2049 77.1387 44.3619 80C45.5925 74.5109 47.7022 57.2847 30.4731 45.0219Z" fill="url(#paint3_linear_124_3105)"/>
<path d="M138.134 17.6013C138.134 21.3813 136.631 24.3213 133.626 26.4813C137.653 28.5813 139.636 31.9413 139.636 36.4413C139.636 40.2213 138.194 43.2213 135.369 45.5613C132.544 47.9013 128.878 49.0413 124.37 49.0413C116.557 49.0413 111.328 45.7413 108.683 39.1413L115.835 35.1213C117.098 39.2013 119.983 41.2413 124.37 41.2413C128.938 41.2413 131.402 39.2013 131.402 35.9013C131.402 32.6013 128.938 30.5613 124.55 30.5613H119.321V23.1813H123.288C127.435 23.1813 129.9 21.2613 129.9 18.1413C129.9 15.0213 127.856 13.1013 123.949 13.1013C120.343 13.1013 117.819 14.8413 116.376 18.3813L109.344 14.3013C112.169 8.36126 117.037 5.36126 123.949 5.36126C128.097 5.36126 131.522 6.50126 134.167 8.72126C136.812 10.9413 138.134 13.9413 138.134 17.6013Z" fill="#2F3037"/>
<path fill-rule="evenodd" clip-rule="evenodd" d="M157.7 17.3613C161.908 17.3613 165.153 18.8013 167.497 21.7413V18.2013H175.251V48.2013H167.497V44.6613C165.153 47.6013 161.908 49.0413 157.7 49.0413C153.673 49.0413 150.247 47.5413 147.363 44.4813C144.538 41.4213 143.095 37.6413 143.095 33.2013C143.095 28.7613 144.538 25.0413 147.363 21.9813C150.247 18.9213 153.673 17.3613 157.7 17.3613ZM150.849 33.2013C150.849 35.6613 151.63 37.7013 153.193 39.3213C154.755 40.8813 156.739 41.6613 159.143 41.6613C161.547 41.6613 163.53 40.8813 165.093 39.3213C166.716 37.7013 167.497 35.6613 167.497 33.2013C167.497 30.7413 166.716 28.7013 165.093 27.1413C163.53 25.5213 161.547 24.7413 159.143 24.7413C156.739 24.7413 154.755 25.5213 153.193 27.1413C151.63 28.7013 150.849 30.7413 150.849 33.2013Z" fill="#2F3037"/>
<path d="M209.508 18.2013L198.99 32.8413L209.989 48.2013H201.033L194.542 39.0813L187.991 48.2013H179.036L190.035 32.9013L179.516 18.2013H188.472L194.542 26.6613L200.613 18.2013H209.508Z" fill="#2F3037"/>
<path d="M233.753 31.1613L219.629 48.2013H213.859V18.2013H221.432V35.2413L235.556 18.2013H241.326V48.2013H233.753V31.1613Z" fill="#2F3037"/>
<path d="M276.318 41.2413C273.674 45.9813 268.565 49.0413 262.735 49.0413C258.227 49.0413 254.441 47.5413 251.375 44.4813C248.37 41.4213 246.868 37.7013 246.868 33.2013C246.868 28.7013 248.37 24.9813 251.375 21.9213C254.441 18.8613 258.227 17.3613 262.735 17.3613C268.565 17.3613 273.734 20.3613 276.198 25.1013L269.527 29.0013C268.324 26.5413 265.74 24.9813 262.675 24.9813C258.047 24.9813 254.621 28.4013 254.621 33.2013C254.621 35.5413 255.402 37.5213 256.905 39.0813C258.407 40.5813 260.331 41.3613 262.675 41.3613C265.8 41.3613 268.385 39.8613 269.587 37.4013L276.318 41.2413Z" fill="#2F3037"/>
<path d="M277.298 25.6413V18.2013H303.924V25.6413H294.547V48.2013H286.794V25.6413H277.298Z" fill="#2F3037"/>
<path d="M112.674 70.2501L110.203 63.67H108.29V72.2013H109.757V69.3653L109.612 65.5655L112.146 72.2013H113.191L115.73 65.5618L115.585 69.3653V72.2013H117.059V63.67H115.139L112.674 70.2501Z" fill="#8C8C8C"/>
<path d="M118.878 63.6641C118.737 63.8048 118.667 63.9825 118.667 64.1973C118.667 64.4083 118.737 64.5841 118.878 64.7247C119.023 64.8653 119.222 64.9356 119.477 64.9356C119.727 64.9356 119.925 64.8653 120.07 64.7247C120.214 64.5841 120.287 64.4083 120.287 64.1973C120.287 63.9825 120.214 63.8048 120.07 63.6641C119.925 63.5196 119.727 63.4473 119.477 63.4473C119.222 63.4473 119.023 63.5196 118.878 63.6641Z" fill="#8C8C8C"/>
<path d="M124.433 69.6407L122.928 72.2013H121.191L123.33 68.8836L121.302 65.8614H123.04L124.519 68.3575H125.2V65.8614H126.608V68.3575H127.301L128.78 65.8614H130.523L128.507 68.8663L130.646 72.2013H128.891L127.381 69.6407H126.608V72.2013H125.2V69.6407H124.433Z" fill="#8C8C8C"/>
<path fill-rule="evenodd" clip-rule="evenodd" d="M141.869 67.3204C141.951 67.4845 141.992 67.6798 141.992 67.9063V68.3458H141.088C140.626 68.3458 140.216 68.3927 139.856 68.4864C139.496 68.5763 139.19 68.7091 138.94 68.8848C138.693 69.0606 138.506 69.2794 138.376 69.5411C138.251 69.7989 138.189 70.0958 138.189 70.4317C138.189 70.7911 138.281 71.1134 138.465 71.3985C138.648 71.6798 138.903 71.9044 139.228 72.0723C139.552 72.2364 139.922 72.3184 140.337 72.3184C140.666 72.3184 140.955 72.2657 141.206 72.1602C141.46 72.0548 141.677 71.92 141.857 71.7559C141.922 71.6968 141.982 71.6366 142.038 71.5755C142.04 71.5907 142.043 71.6059 142.045 71.6212C142.084 71.8555 142.137 72.0489 142.203 72.2013H143.653V72.1075C143.575 71.9395 143.514 71.7423 143.471 71.5157C143.432 71.2852 143.413 71.0255 143.413 70.7364V67.918C143.413 67.4337 143.305 67.0313 143.09 66.711C142.878 66.3868 142.587 66.1446 142.215 65.9845C141.847 65.8243 141.425 65.7442 140.947 65.7442C140.548 65.7442 140.188 65.797 139.867 65.9024C139.546 66.0079 139.271 66.1524 139.04 66.336C138.809 66.5196 138.633 66.7286 138.511 66.963C138.39 67.1973 138.33 67.4395 138.33 67.6895H139.738C139.738 67.5216 139.785 67.3712 139.879 67.2384C139.973 67.1055 140.104 67.0001 140.272 66.922C140.441 66.8438 140.64 66.8048 140.871 66.8048C141.121 66.8048 141.329 66.8497 141.493 66.9395C141.661 67.0294 141.787 67.1563 141.869 67.3204ZM141.992 70.4115V69.2188H141.194C140.932 69.2188 140.701 69.2442 140.501 69.295C140.302 69.3419 140.135 69.4122 140.002 69.5059C139.869 69.5997 139.77 69.713 139.703 69.8458C139.636 69.9786 139.603 70.129 139.603 70.297C139.603 70.4649 139.642 70.6192 139.721 70.7598C139.799 70.8966 139.912 71.004 140.061 71.0821C140.214 71.1602 140.398 71.1993 140.613 71.1993C140.902 71.1993 141.155 71.1407 141.37 71.0235C141.589 70.9024 141.761 70.7559 141.886 70.5841C141.928 70.5255 141.963 70.468 141.992 70.4115Z" fill="#8C8C8C"/>
<path fill-rule="evenodd" clip-rule="evenodd" d="M146.261 66.5219L146.201 65.8614H144.897V74.6388H146.312V71.6113C146.493 71.8158 146.704 71.9793 146.946 72.1016C147.243 72.2462 147.59 72.3184 147.985 72.3184C148.384 72.3184 148.736 72.2384 149.041 72.0782C149.347 71.918 149.603 71.6934 149.81 71.4044C150.022 71.1114 150.18 70.7696 150.286 70.379C150.395 69.9845 150.45 69.5567 150.45 69.0958V68.9727C150.45 68.4884 150.397 68.0489 150.292 67.6544C150.186 67.2559 150.027 66.9161 149.816 66.6348C149.605 66.3497 149.345 66.1309 149.035 65.9786C148.726 65.8223 148.372 65.7442 147.973 65.7442C147.582 65.7442 147.239 65.8184 146.946 65.9669C146.681 66.1009 146.453 66.2859 146.261 66.5219ZM146.312 70.4259C146.426 70.6602 146.586 70.8477 146.793 70.9884C147.005 71.1251 147.275 71.1934 147.603 71.1934C147.858 71.1934 148.075 71.1388 148.255 71.0294C148.435 70.92 148.582 70.7696 148.695 70.5782C148.812 70.3829 148.899 70.1583 148.953 69.9044C149.008 69.6505 149.035 69.3809 149.035 69.0958V68.9727C149.035 68.6798 149.008 68.4083 148.953 68.1583C148.899 67.9044 148.812 67.6817 148.695 67.4903C148.578 67.2989 148.427 67.1505 148.243 67.045C148.063 66.9356 147.846 66.8809 147.592 66.8809C147.341 66.8809 147.126 66.9239 146.946 67.0098C146.766 67.0919 146.615 67.2071 146.494 67.3555C146.424 67.4408 146.364 67.5345 146.312 67.6365V70.4259Z" fill="#8C8C8C"/>
<path fill-rule="evenodd" clip-rule="evenodd" d="M151.583 67.6954C151.45 68.086 151.383 68.5098 151.383 68.9669V69.1016C151.383 69.5587 151.45 69.9825 151.583 70.3731C151.716 70.7638 151.91 71.1055 152.164 71.3985C152.418 71.6876 152.727 71.9141 153.091 72.0782C153.459 72.2384 153.876 72.3184 154.341 72.3184C154.803 72.3184 155.216 72.2384 155.58 72.0782C155.944 71.9141 156.253 71.6876 156.507 71.3985C156.762 71.1055 156.955 70.7638 157.088 70.3731C157.221 69.9825 157.288 69.5587 157.288 69.1016V68.9669C157.288 68.5098 157.221 68.086 157.088 67.6954C156.955 67.3009 156.762 66.9591 156.507 66.67C156.253 66.377 155.942 66.1505 155.574 65.9903C155.21 65.8262 154.795 65.7442 154.33 65.7442C153.868 65.7442 153.453 65.8262 153.085 65.9903C152.722 66.1505 152.412 66.377 152.158 66.67C151.908 66.9591 151.716 67.3009 151.583 67.6954ZM152.886 69.9102C152.827 69.6563 152.798 69.3868 152.798 69.1016V68.9669C152.798 68.6856 152.827 68.42 152.886 68.17C152.945 67.9161 153.036 67.6915 153.162 67.4962C153.287 67.3009 153.445 67.1485 153.637 67.0391C153.833 66.9259 154.064 66.8692 154.33 66.8692C154.596 66.8692 154.825 66.9259 155.016 67.0391C155.212 67.1485 155.373 67.3009 155.498 67.4962C155.627 67.6915 155.721 67.9161 155.78 68.17C155.842 68.42 155.873 68.6856 155.873 68.9669V69.1016C155.873 69.3868 155.842 69.6563 155.78 69.9102C155.721 70.1641 155.629 70.3868 155.504 70.5782C155.378 70.7696 155.218 70.92 155.022 71.0294C154.831 71.1388 154.604 71.1934 154.341 71.1934C154.071 71.1934 153.839 71.1388 153.643 71.0294C153.447 70.92 153.287 70.7696 153.162 70.5782C153.036 70.3868 152.945 70.1641 152.886 69.9102Z" fill="#8C8C8C"/>
<path fill-rule="evenodd" clip-rule="evenodd" d="M158.08 71.0763C158.249 70.8966 158.393 70.7169 158.515 70.5372C158.64 70.3536 158.746 70.1524 158.832 69.9337C158.918 69.711 158.984 69.4513 159.031 69.1544C159.082 68.8575 159.115 68.504 159.131 68.0938L159.201 65.8614H163.604V71.0763H164.472V74.088H163.058V72.2013H158.99V74.088H157.552L157.558 71.0763H158.08ZM160.546 68.0938L160.578 67.0567H162.195V71.0763H159.725C159.757 71.0325 159.787 70.9876 159.818 70.9415C160.025 70.6212 160.193 70.2286 160.322 69.7638C160.452 69.2989 160.526 68.7423 160.546 68.0938Z" fill="#8C8C8C"/>
<path fill-rule="evenodd" clip-rule="evenodd" d="M175.771 67.3204C175.853 67.4845 175.894 67.6798 175.894 67.9063V68.3458H174.99C174.529 68.3458 174.118 68.3927 173.758 68.4864C173.398 68.5763 173.093 68.7091 172.842 68.8848C172.596 69.0606 172.408 69.2794 172.279 69.5411C172.153 69.7989 172.091 70.0958 172.091 70.4317C172.091 70.7911 172.183 71.1134 172.367 71.3985C172.551 71.6798 172.805 71.9044 173.13 72.0723C173.454 72.2364 173.824 72.3184 174.239 72.3184C174.568 72.3184 174.857 72.2657 175.108 72.1602C175.362 72.0548 175.579 71.92 175.759 71.7559C175.824 71.6968 175.884 71.6366 175.94 71.5755C175.943 71.5907 175.945 71.6059 175.947 71.6212C175.986 71.8555 176.039 72.0489 176.106 72.2013H177.555V72.1075C177.477 71.9395 177.416 71.7423 177.373 71.5157C177.334 71.2852 177.315 71.0255 177.315 70.7364V67.918C177.315 67.4337 177.207 67.0313 176.992 66.711C176.78 66.3868 176.489 66.1446 176.117 65.9845C175.749 65.8243 175.327 65.7442 174.849 65.7442C174.45 65.7442 174.09 65.797 173.769 65.9024C173.449 66.0079 173.173 66.1524 172.942 66.336C172.711 66.5196 172.535 66.7286 172.414 66.963C172.292 67.1973 172.232 67.4395 172.232 67.6895H173.64C173.64 67.5216 173.687 67.3712 173.781 67.2384C173.875 67.1055 174.006 67.0001 174.174 66.922C174.343 66.8438 174.542 66.8048 174.773 66.8048C175.024 66.8048 175.231 66.8497 175.395 66.9395C175.564 67.0294 175.689 67.1563 175.771 67.3204ZM175.894 70.4115V69.2188H175.096C174.834 69.2188 174.603 69.2442 174.403 69.295C174.204 69.3419 174.037 69.4122 173.904 69.5059C173.771 69.5997 173.672 69.713 173.605 69.8458C173.539 69.9786 173.505 70.129 173.505 70.297C173.505 70.4649 173.544 70.6192 173.623 70.7598C173.701 70.8966 173.814 71.004 173.963 71.0821C174.116 71.1602 174.3 71.1993 174.515 71.1993C174.804 71.1993 175.057 71.1407 175.272 71.0235C175.491 70.9024 175.663 70.7559 175.789 70.5841C175.83 70.5255 175.866 70.468 175.894 70.4115Z" fill="#8C8C8C"/>
<path fill-rule="evenodd" clip-rule="evenodd" d="M186.77 63.9454C186.868 63.7188 186.917 63.4317 186.917 63.0841H185.773C185.773 63.2637 185.724 63.4063 185.626 63.5118C185.532 63.6134 185.387 63.6973 185.191 63.7637C184.996 63.8262 184.751 63.8887 184.458 63.9512C184.027 64.0372 183.636 64.1934 183.284 64.42C182.936 64.6466 182.634 64.9512 182.38 65.3341C182.13 65.713 181.936 66.1798 181.799 66.7345C181.662 67.2891 181.593 67.9395 181.593 68.6856V68.9702C181.593 68.9827 181.593 68.9953 181.593 69.0079V69.1368C181.593 69.5938 181.658 70.0157 181.787 70.4024C181.916 70.7891 182.106 71.127 182.356 71.4161C182.607 71.7013 182.914 71.9239 183.278 72.0841C183.642 72.2442 184.055 72.3243 184.516 72.3243C184.982 72.3243 185.395 72.2481 185.755 72.0958C186.119 71.9395 186.426 71.7247 186.676 71.4513C186.927 71.1739 187.117 70.8497 187.246 70.4786C187.375 70.1075 187.439 69.7032 187.439 69.2657V69.1368C187.439 68.7188 187.379 68.3321 187.258 67.9766C187.14 67.6212 186.968 67.3126 186.741 67.0509C186.514 66.7891 186.236 66.586 185.908 66.4415C185.579 66.293 185.203 66.2188 184.781 66.2188C184.358 66.2188 183.975 66.3028 183.63 66.4708C183.313 66.6272 183.028 66.8396 182.776 67.1078C182.779 67.0906 182.782 67.0736 182.785 67.0567C182.863 66.6387 182.99 66.297 183.166 66.0313C183.346 65.7618 183.568 65.5528 183.83 65.4044C184.096 65.252 184.393 65.1407 184.722 65.0704C185.078 65.0001 185.391 64.922 185.661 64.836C185.935 64.7501 186.164 64.6368 186.348 64.4962C186.536 64.3516 186.676 64.168 186.77 63.9454ZM183.642 67.5899C183.865 67.422 184.153 67.338 184.505 67.338C184.775 67.338 185.006 67.3868 185.197 67.4845C185.389 67.5821 185.546 67.7149 185.667 67.8829C185.788 68.047 185.876 68.2364 185.931 68.4513C185.99 68.6661 186.019 68.8946 186.019 69.1368V69.2657C186.019 69.5274 185.99 69.7755 185.931 70.0098C185.876 70.2442 185.788 70.4513 185.667 70.6309C185.549 70.8067 185.395 70.9454 185.203 71.047C185.015 71.1485 184.786 71.1993 184.516 71.1993C184.25 71.1993 184.02 71.1485 183.824 71.047C183.632 70.9454 183.476 70.8067 183.354 70.6309C183.237 70.4513 183.149 70.2442 183.09 70.0098C183.031 69.7755 183.002 69.5274 183.002 69.2657V69.1368C183.002 68.8165 183.053 68.5196 183.155 68.2462C183.26 67.9727 183.423 67.754 183.642 67.5899Z" fill="#8C8C8C"/>
<path d="M193.925 65.8614V72.2013H192.511V66.9864H190.706L190.597 68.9962C190.574 69.461 190.527 69.8712 190.456 70.2266C190.39 70.5782 190.3 70.8809 190.186 71.1348C190.073 71.3848 189.934 71.588 189.77 71.7442C189.605 71.9005 189.414 72.0157 189.194 72.0899C188.975 72.1641 188.729 72.2013 188.455 72.2013H188.015L188.009 71.0411L188.232 71.0235C188.377 71.0118 188.502 70.9747 188.607 70.9122C188.713 70.8458 188.803 70.752 188.877 70.6309C188.956 70.5098 189.018 70.3536 189.065 70.1622C189.116 69.9708 189.155 69.7442 189.183 69.4825C189.214 69.2208 189.237 68.9161 189.253 68.5684L189.371 65.8614H193.925Z" fill="#8C8C8C"/>
<path fill-rule="evenodd" clip-rule="evenodd" d="M198.509 66.9395C198.678 67.0294 198.803 67.1563 198.885 67.3204C198.967 67.4845 199.008 67.6798 199.008 67.9063V68.3458H198.104C197.643 68.3458 197.232 68.3927 196.872 68.4864C196.512 68.5763 196.207 68.7091 195.956 68.8848C195.71 69.0606 195.522 69.2794 195.393 69.5411C195.267 69.7989 195.205 70.0958 195.205 70.4317C195.205 70.7911 195.297 71.1134 195.481 71.3985C195.665 71.6798 195.919 71.9044 196.244 72.0723C196.568 72.2364 196.938 72.3184 197.353 72.3184C197.682 72.3184 197.971 72.2657 198.222 72.1602C198.476 72.0548 198.693 71.92 198.873 71.7559C198.938 71.6968 198.998 71.6366 199.054 71.5755C199.057 71.5907 199.059 71.6059 199.061 71.6212C199.1 71.8555 199.153 72.0489 199.22 72.2013H200.669V72.1075C200.591 71.9395 200.53 71.7423 200.487 71.5157C200.448 71.2852 200.429 71.0255 200.429 70.7364V67.918C200.429 67.4337 200.321 67.0313 200.106 66.711C199.895 66.3868 199.603 66.1446 199.231 65.9845C198.863 65.8243 198.441 65.7442 197.963 65.7442C197.564 65.7442 197.204 65.797 196.883 65.9024C196.563 66.0079 196.287 66.1524 196.056 66.336C195.825 66.5196 195.649 66.7286 195.528 66.963C195.406 67.1973 195.346 67.4395 195.346 67.6895H196.754C196.754 67.5216 196.801 67.3712 196.895 67.2384C196.989 67.1055 197.12 67.0001 197.288 66.922C197.457 66.8438 197.656 66.8048 197.887 66.8048C198.138 66.8048 198.345 66.8497 198.509 66.9395ZM199.008 70.4115V69.2188H198.21C197.948 69.2188 197.717 69.2442 197.517 69.295C197.318 69.3419 197.152 69.4122 197.018 69.5059C196.885 69.5997 196.786 69.713 196.719 69.8458C196.653 69.9786 196.619 70.129 196.619 70.297C196.619 70.4649 196.658 70.6192 196.737 70.7598C196.815 70.8966 196.928 71.004 197.077 71.0821C197.23 71.1602 197.414 71.1993 197.629 71.1993C197.918 71.1993 198.171 71.1407 198.386 71.0235C198.605 70.9024 198.777 70.7559 198.903 70.5841C198.944 70.5255 198.98 70.468 199.008 70.4115Z" fill="#8C8C8C"/>
<path fill-rule="evenodd" clip-rule="evenodd" d="M206.768 67.6954C206.635 68.086 206.568 68.5098 206.568 68.9669V69.1016C206.568 69.5587 206.635 69.9825 206.768 70.3731C206.901 70.7638 207.094 71.1055 207.349 71.3985C207.603 71.6876 207.912 71.9141 208.276 72.0782C208.644 72.2384 209.061 72.3184 209.526 72.3184C209.988 72.3184 210.401 72.2384 210.765 72.0782C211.129 71.9141 211.438 71.6876 211.692 71.3985C211.947 71.1055 212.14 70.7638 212.273 70.3731C212.406 69.9825 212.473 69.5587 212.473 69.1016V68.9669C212.473 68.5098 212.406 68.086 212.273 67.6954C212.14 67.3009 211.947 66.9591 211.692 66.67C211.438 66.377 211.127 66.1505 210.759 65.9903C210.395 65.8262 209.98 65.7442 209.515 65.7442C209.053 65.7442 208.638 65.8262 208.27 65.9903C207.906 66.1505 207.597 66.377 207.343 66.67C207.092 66.9591 206.901 67.3009 206.768 67.6954ZM208.071 69.9102C208.012 69.6563 207.983 69.3868 207.983 69.1016V68.9669C207.983 68.6856 208.012 68.42 208.071 68.17C208.129 67.9161 208.221 67.6915 208.347 67.4962C208.472 67.3009 208.63 67.1485 208.822 67.0391C209.018 66.9259 209.248 66.8692 209.515 66.8692C209.781 66.8692 210.01 66.9259 210.201 67.0391C210.397 67.1485 210.557 67.3009 210.683 67.4962C210.812 67.6915 210.906 67.9161 210.964 68.17C211.027 68.42 211.058 68.6856 211.058 68.9669V69.1016C211.058 69.3868 211.027 69.6563 210.964 69.9102C210.906 70.1641 210.814 70.3868 210.688 70.5782C210.563 70.7696 210.403 70.92 210.207 71.0294C210.015 71.1388 209.788 71.1934 209.526 71.1934C209.256 71.1934 209.023 71.1388 208.828 71.0294C208.632 70.92 208.472 70.7696 208.347 70.5782C208.221 70.3868 208.129 70.1641 208.071 69.9102Z" fill="#8C8C8C"/>
<path fill-rule="evenodd" clip-rule="evenodd" d="M213.265 71.0763C213.433 70.8966 213.578 70.7169 213.7 70.5372C213.825 70.3536 213.93 70.1524 214.016 69.9337C214.103 69.711 214.169 69.4513 214.216 69.1544C214.267 68.8575 214.3 68.504 214.316 68.0938L214.386 65.8614H218.788V71.0763H219.657V74.088H218.242V72.2013H214.175V74.088H212.737L212.743 71.0763H213.265ZM215.73 68.0938L215.763 67.0567H217.38V71.0763H214.91C214.941 71.0325 214.972 70.9876 215.003 70.9415C215.21 70.6212 215.378 70.2286 215.507 69.7638C215.636 69.2989 215.711 68.7423 215.73 68.0938Z" fill="#8C8C8C"/>
<path d="M220.878 63.6641C220.737 63.8048 220.667 63.9825 220.667 64.1973C220.667 64.4083 220.737 64.5841 220.878 64.7247C221.023 64.8653 221.222 64.9356 221.477 64.9356C221.727 64.9356 221.925 64.8653 222.069 64.7247C222.214 64.5841 222.287 64.4083 222.287 64.1973C222.287 63.9825 222.214 63.8048 222.069 63.6641C221.925 63.5196 221.727 63.4473 221.477 63.4473C221.222 63.4473 221.023 63.5196 220.878 63.6641Z" fill="#8C8C8C"/>
<path d="M227.686 65.8614L225.192 70.1388V65.8614H223.777V72.2013H225.192L227.686 67.918V72.2013H229.101V65.8614H227.686Z" fill="#8C8C8C"/>
<path d="M228.127 64.2852C228.283 64.0352 228.361 63.7481 228.361 63.4239H227.311C227.311 63.6427 227.246 63.836 227.117 64.004C226.988 64.168 226.769 64.2501 226.46 64.2501C226.147 64.2501 225.924 64.168 225.791 64.004C225.662 63.836 225.597 63.6427 225.597 63.4239H224.546C224.546 63.9122 224.717 64.3106 225.057 64.6192C225.401 64.9239 225.869 65.0762 226.46 65.0762C226.851 65.0762 227.188 65.0059 227.469 64.8653C227.755 64.7247 227.974 64.5313 228.127 64.2852Z" fill="#8C8C8C"/>
<path fill-rule="evenodd" clip-rule="evenodd" d="M240.547 66.9395C240.715 67.0294 240.84 67.1563 240.922 67.3204C241.004 67.4845 241.045 67.6798 241.045 67.9063V68.3458H240.142C239.68 68.3458 239.269 68.3927 238.909 68.4864C238.549 68.5763 238.244 68.7091 237.993 68.8848C237.747 69.0606 237.559 69.2794 237.43 69.5411C237.305 69.7989 237.242 70.0958 237.242 70.4317C237.242 70.7911 237.334 71.1134 237.518 71.3985C237.702 71.6798 237.956 71.9044 238.281 72.0723C238.606 72.2364 238.975 72.3184 239.39 72.3184C239.719 72.3184 240.008 72.2657 240.259 72.1602C240.513 72.0548 240.73 71.92 240.91 71.7559C240.975 71.6968 241.036 71.6366 241.092 71.5755C241.094 71.5907 241.096 71.6059 241.098 71.6212C241.137 71.8555 241.19 72.0489 241.257 72.2013H242.706V72.1075C242.628 71.9395 242.568 71.7423 242.525 71.5157C242.485 71.2852 242.466 71.0255 242.466 70.7364V67.918C242.466 67.4337 242.358 67.0313 242.143 66.711C241.932 66.3868 241.64 66.1446 241.268 65.9845C240.901 65.8243 240.478 65.7442 240.001 65.7442C239.602 65.7442 239.242 65.797 238.921 65.9024C238.6 66.0079 238.324 66.1524 238.093 66.336C237.862 66.5196 237.686 66.7286 237.565 66.963C237.444 67.1973 237.383 67.4395 237.383 67.6895H238.792C238.792 67.5216 238.839 67.3712 238.932 67.2384C239.026 67.1055 239.157 67.0001 239.326 66.922C239.494 66.8438 239.693 66.8048 239.924 66.8048C240.175 66.8048 240.382 66.8497 240.547 66.9395ZM241.045 70.4115V69.2188H240.247C239.985 69.2188 239.754 69.2442 239.555 69.295C239.355 69.3419 239.189 69.4122 239.056 69.5059C238.923 69.5997 238.823 69.713 238.756 69.8458C238.69 69.9786 238.657 70.129 238.657 70.297C238.657 70.4649 238.696 70.6192 238.774 70.7598C238.852 70.8966 238.966 71.004 239.114 71.0821C239.267 71.1602 239.451 71.1993 239.666 71.1993C239.956 71.1993 240.208 71.1407 240.423 71.0235C240.642 70.9024 240.815 70.7559 240.94 70.5841C240.982 70.5255 241.017 70.468 241.045 70.4115Z" fill="#8C8C8C"/>
<path fill-rule="evenodd" clip-rule="evenodd" d="M246.868 67.6954C246.735 68.086 246.668 68.5098 246.668 68.9669V69.1016C246.668 69.5587 246.735 69.9825 246.868 70.3731C247.001 70.7638 247.195 71.1055 247.449 71.3985C247.703 71.6876 248.012 71.9141 248.376 72.0782C248.744 72.2384 249.161 72.3184 249.627 72.3184C250.088 72.3184 250.501 72.2384 250.865 72.0782C251.229 71.9141 251.538 71.6876 251.792 71.3985C252.047 71.1055 252.24 70.7638 252.374 70.3731C252.507 69.9825 252.573 69.5587 252.573 69.1016V68.9669C252.573 68.5098 252.507 68.086 252.374 67.6954C252.24 67.3009 252.047 66.9591 251.792 66.67C251.538 66.377 251.227 66.1505 250.859 65.9903C250.495 65.8262 250.081 65.7442 249.615 65.7442C249.153 65.7442 248.738 65.8262 248.371 65.9903C248.007 66.1505 247.697 66.377 247.443 66.67C247.193 66.9591 247.001 67.3009 246.868 67.6954ZM248.171 69.9102C248.112 69.6563 248.083 69.3868 248.083 69.1016V68.9669C248.083 68.6856 248.112 68.42 248.171 68.17C248.23 67.9161 248.322 67.6915 248.447 67.4962C248.572 67.3009 248.731 67.1485 248.922 67.0391C249.118 66.9259 249.349 66.8692 249.615 66.8692C249.881 66.8692 250.11 66.9259 250.302 67.0391C250.497 67.1485 250.658 67.3009 250.783 67.4962C250.912 67.6915 251.006 67.9161 251.065 68.17C251.127 68.42 251.159 68.6856 251.159 68.9669V69.1016C251.159 69.3868 251.127 69.6563 251.065 69.9102C251.006 70.1641 250.914 70.3868 250.789 70.5782C250.664 70.7696 250.503 70.92 250.307 71.0294C250.116 71.1388 249.889 71.1934 249.627 71.1934C249.357 71.1934 249.124 71.1388 248.928 71.0294C248.732 70.92 248.572 70.7696 248.447 70.5782C248.322 70.3868 248.23 70.1641 248.171 69.9102Z" fill="#8C8C8C"/>
<path fill-rule="evenodd" clip-rule="evenodd" d="M255.128 66.5219L255.068 65.8614H253.765V74.6388H255.179V71.6113C255.36 71.8158 255.571 71.9793 255.813 72.1016C256.11 72.2462 256.457 72.3184 256.852 72.3184C257.251 72.3184 257.603 72.2384 257.908 72.0782C258.214 71.918 258.47 71.6934 258.677 71.4044C258.889 71.1114 259.047 70.7696 259.153 70.379C259.262 69.9845 259.317 69.5567 259.317 69.0958V68.9727C259.317 68.4884 259.264 68.0489 259.159 67.6544C259.053 67.2559 258.895 66.9161 258.683 66.6348C258.472 66.3497 258.212 66.1309 257.903 65.9786C257.593 65.8223 257.239 65.7442 256.84 65.7442C256.449 65.7442 256.107 65.8184 255.813 65.9669C255.548 66.1009 255.32 66.2859 255.128 66.5219ZM255.179 70.4259C255.293 70.6602 255.453 70.8477 255.66 70.9884C255.872 71.1251 256.142 71.1934 256.47 71.1934C256.725 71.1934 256.942 71.1388 257.122 71.0294C257.302 70.92 257.449 70.7696 257.562 70.5782C257.68 70.3829 257.766 70.1583 257.82 69.9044C257.875 69.6505 257.903 69.3809 257.903 69.0958V68.9727C257.903 68.6798 257.875 68.4083 257.82 68.1583C257.766 67.9044 257.68 67.6817 257.562 67.4903C257.445 67.2989 257.294 67.1505 257.11 67.045C256.93 66.9356 256.713 66.8809 256.459 66.8809C256.208 66.8809 255.993 66.9239 255.813 67.0098C255.633 67.0919 255.482 67.2071 255.361 67.3555C255.291 67.4408 255.231 67.5345 255.179 67.6365V70.4259Z" fill="#8C8C8C"/>
<path fill-rule="evenodd" clip-rule="evenodd" d="M268.65 66.9395C268.818 67.0294 268.943 67.1563 269.025 67.3204C269.107 67.4845 269.148 67.6798 269.148 67.9063V68.3458H268.245C267.783 68.3458 267.372 68.3927 267.012 68.4864C266.652 68.5763 266.347 68.7091 266.096 68.8848C265.85 69.0606 265.662 69.2794 265.533 69.5411C265.408 69.7989 265.345 70.0958 265.345 70.4317C265.345 70.7911 265.437 71.1134 265.621 71.3985C265.805 71.6798 266.059 71.9044 266.384 72.0723C266.709 72.2364 267.079 72.3184 267.493 72.3184C267.822 72.3184 268.112 72.2657 268.362 72.1602C268.616 72.0548 268.833 71.92 269.013 71.7559C269.078 71.6968 269.139 71.6366 269.195 71.5755C269.197 71.5907 269.199 71.6059 269.201 71.6212C269.24 71.8555 269.293 72.0489 269.36 72.2013H270.81V72.1075C270.731 71.9395 270.671 71.7423 270.628 71.5157C270.588 71.2852 270.569 71.0255 270.569 70.7364V67.918C270.569 67.4337 270.461 67.0313 270.246 66.711C270.035 66.3868 269.743 66.1446 269.372 65.9845C269.004 65.8243 268.581 65.7442 268.104 65.7442C267.705 65.7442 267.345 65.797 267.024 65.9024C266.703 66.0079 266.427 66.1524 266.196 66.336C265.965 66.5196 265.789 66.7286 265.668 66.963C265.547 67.1973 265.486 67.4395 265.486 67.6895H266.895C266.895 67.5216 266.942 67.3712 267.035 67.2384C267.129 67.1055 267.26 67.0001 267.429 66.922C267.597 66.8438 267.797 66.8048 268.027 66.8048C268.278 66.8048 268.485 66.8497 268.65 66.9395ZM269.148 70.4115V69.2188H268.35C268.088 69.2188 267.857 69.2442 267.658 69.295C267.458 69.3419 267.292 69.4122 267.159 69.5059C267.026 69.5997 266.926 69.713 266.859 69.8458C266.793 69.9786 266.76 70.129 266.76 70.297C266.76 70.4649 266.799 70.6192 266.877 70.7598C266.955 70.8966 267.069 71.004 267.217 71.0821C267.37 71.1602 267.554 71.1993 267.769 71.1993C268.059 71.1993 268.311 71.1407 268.526 71.0235C268.745 70.9024 268.918 70.7559 269.043 70.5841C269.085 70.5255 269.12 70.468 269.148 70.4115Z" fill="#8C8C8C"/>
<path d="M279.127 63.6641C278.986 63.8048 278.915 63.9825 278.915 64.1973C278.915 64.4083 278.986 64.5841 279.127 64.7247C279.271 64.8653 279.471 64.9356 279.725 64.9356C279.976 64.9356 280.173 64.8653 280.318 64.7247C280.463 64.5841 280.535 64.4083 280.535 64.1973C280.535 63.9825 280.463 63.8048 280.318 63.6641C280.173 63.5196 279.976 63.4473 279.725 63.4473C279.471 63.4473 279.271 63.5196 279.127 63.6641Z" fill="#8C8C8C"/>
<path d="M284.973 68.3575C284.824 68.4239 284.624 68.4571 284.374 68.4571H283.388V69.4649H284.374C284.628 69.4649 284.84 69.4962 285.008 69.5587C285.176 69.6173 285.301 69.711 285.383 69.8399C285.466 69.9688 285.507 70.1388 285.507 70.3497C285.507 70.5059 285.466 70.6544 285.383 70.795C285.301 70.9317 285.176 71.043 285.008 71.129C284.84 71.211 284.622 71.252 284.356 71.252C284.098 71.252 283.877 71.2091 283.693 71.1231C283.509 71.0333 283.368 70.918 283.27 70.7774C283.173 70.6368 283.124 70.4864 283.124 70.3263H281.709C281.709 70.7833 281.836 71.1602 282.091 71.4571C282.349 71.7501 282.676 71.9669 283.071 72.1075C283.47 72.2481 283.881 72.3184 284.303 72.3184C284.691 72.3184 285.045 72.2755 285.366 72.1895C285.687 72.1036 285.963 71.9786 286.193 71.8145C286.428 71.6505 286.608 71.4513 286.733 71.2169C286.863 70.9786 286.927 70.711 286.927 70.4141C286.927 70.1485 286.876 69.9141 286.775 69.711C286.677 69.504 286.53 69.3302 286.334 69.1895C286.19 69.086 286.021 69.0016 285.826 68.9361C285.971 68.8718 286.102 68.7961 286.217 68.7091C286.409 68.5606 286.555 68.3907 286.657 68.1993C286.759 68.0079 286.81 67.8048 286.81 67.5899C286.81 67.2891 286.751 67.0255 286.634 66.7989C286.52 66.5684 286.354 66.377 286.135 66.2247C285.92 66.0684 285.657 65.9512 285.348 65.8731C285.039 65.7911 284.691 65.7501 284.303 65.7501C283.85 65.7501 283.433 65.8262 283.053 65.9786C282.674 66.1309 282.37 66.3497 282.144 66.6348C281.92 66.92 281.809 67.2598 281.809 67.6544H283.223C283.223 67.4903 283.272 67.3458 283.37 67.2208C283.468 67.0958 283.601 66.9981 283.769 66.9278C283.942 66.8575 284.135 66.8223 284.35 66.8223C284.613 66.8223 284.82 66.8634 284.973 66.9454C285.125 67.0274 285.233 67.1329 285.295 67.2618C285.362 67.3868 285.395 67.5196 285.395 67.6602C285.395 67.8204 285.362 67.961 285.295 68.0821C285.233 68.1993 285.125 68.2911 284.973 68.3575Z" fill="#8C8C8C"/>
<path fill-rule="evenodd" clip-rule="evenodd" d="M291.212 66.9395C291.38 67.0294 291.505 67.1563 291.587 67.3204C291.67 67.4845 291.711 67.6798 291.711 67.9063V68.3458H290.807C290.345 68.3458 289.934 68.3927 289.574 68.4864C289.214 68.5763 288.909 68.7091 288.659 68.8848C288.412 69.0606 288.224 69.2794 288.095 69.5411C287.97 69.7989 287.907 70.0958 287.907 70.4317C287.907 70.7911 287.999 71.1134 288.183 71.3985C288.367 71.6798 288.621 71.9044 288.946 72.0723C289.271 72.2364 289.641 72.3184 290.056 72.3184C290.384 72.3184 290.674 72.2657 290.924 72.1602C291.179 72.0548 291.396 71.92 291.576 71.7559C291.641 71.6968 291.701 71.6366 291.757 71.5755C291.759 71.5907 291.761 71.6059 291.764 71.6212C291.803 71.8555 291.856 72.0489 291.922 72.2013H293.372V72.1075C293.294 71.9395 293.233 71.7423 293.19 71.5157C293.151 71.2852 293.131 71.0255 293.131 70.7364V67.918C293.131 67.4337 293.024 67.0313 292.808 66.711C292.597 66.3868 292.306 66.1446 291.934 65.9845C291.566 65.8243 291.143 65.7442 290.666 65.7442C290.267 65.7442 289.907 65.797 289.586 65.9024C289.265 66.0079 288.989 66.1524 288.758 66.336C288.528 66.5196 288.351 66.7286 288.23 66.963C288.109 67.1973 288.048 67.4395 288.048 67.6895H289.457C289.457 67.5216 289.504 67.3712 289.598 67.2384C289.692 67.1055 289.823 67.0001 289.991 66.922C290.159 66.8438 290.359 66.8048 290.59 66.8048C290.84 66.8048 291.048 66.8497 291.212 66.9395ZM291.711 70.4115V69.2188H290.913C290.65 69.2188 290.419 69.2442 290.22 69.295C290.02 69.3419 289.854 69.4122 289.721 69.5059C289.588 69.5997 289.488 69.713 289.422 69.8458C289.355 69.9786 289.322 70.129 289.322 70.297C289.322 70.4649 289.361 70.6192 289.439 70.7598C289.518 70.8966 289.631 71.004 289.78 71.0821C289.932 71.1602 290.116 71.1993 290.331 71.1993C290.621 71.1993 290.873 71.1407 291.089 71.0235C291.308 70.9024 291.48 70.7559 291.605 70.5841C291.647 70.5255 291.682 70.468 291.711 70.4115Z" fill="#8C8C8C"/>
<path d="M300.732 74.0821L300.844 71.0821H299.981V65.8614H298.56V71.0763H296.072V65.8614H294.657V72.2013H299.435V74.0821H300.732Z" fill="#8C8C8C"/>
<path d="M302.053 63.6641C301.912 63.8048 301.841 63.9825 301.841 64.1973C301.841 64.4083 301.912 64.5841 302.053 64.7247C302.198 64.8653 302.397 64.9356 302.651 64.9356C302.902 64.9356 303.1 64.8653 303.244 64.7247C303.389 64.5841 303.461 64.4083 303.461 64.1973C303.461 63.9825 303.389 63.8048 303.244 63.6641C303.1 63.5196 302.902 63.4473 302.651 63.4473C302.397 63.4473 302.198 63.5196 302.053 63.6641Z" fill="#8C8C8C"/>
<path fill-rule="evenodd" clip-rule="evenodd" d="M305.931 69.6414L304.448 72.2013H305.909L307.265 69.8692H308.591V72.2013H310V65.8614H307.277C306.874 65.8614 306.512 65.9122 306.191 66.0137C305.874 66.1114 305.604 66.252 305.381 66.4356C305.162 66.6192 304.993 66.8341 304.876 67.0802C304.759 67.3262 304.7 67.5958 304.7 67.8888C304.7 68.1739 304.757 68.4376 304.87 68.6798C304.984 68.918 305.148 69.127 305.363 69.3067C305.526 69.4394 305.715 69.551 305.931 69.6414ZM308.591 68.838V66.9747H307.277C307.011 66.9747 306.791 67.0216 306.619 67.1153C306.447 67.2052 306.32 67.3243 306.238 67.4727C306.156 67.6173 306.114 67.7657 306.114 67.918C306.114 68.0704 306.152 68.2169 306.226 68.3575C306.304 68.4981 306.424 68.6134 306.584 68.7032C306.748 68.793 306.954 68.838 307.2 68.838H308.591Z" fill="#8C8C8C"/>
<path d="M120.181 72.2013V65.8614H118.761V72.2013H120.181Z" fill="#8C8C8C"/>
<path d="M135.489 68.5098H133.006V65.8614H131.591V72.2013H133.006V69.6231H135.489V72.2013H136.903V65.8614H135.489V68.5098Z" fill="#8C8C8C"/>
<path d="M169.391 68.5098H166.908V65.8614H165.493V72.2013H166.908V69.6231H169.391V72.2013H170.805V65.8614H169.391V68.5098Z" fill="#8C8C8C"/>
<path d="M206.134 66.9864V65.8614H201.949V72.2013H203.363V66.9864H206.134Z" fill="#8C8C8C"/>
<path d="M222.181 72.2013V65.8614H220.76V72.2013H222.181Z" fill="#8C8C8C"/>
<path d="M234.542 68.5098H232.059V65.8614H230.645V72.2013H232.059V69.6231H234.542V72.2013H235.957V65.8614H234.542V68.5098Z" fill="#8C8C8C"/>
<path d="M264.746 66.9864V65.8614H260.561V72.2013H261.976V66.9864H264.746Z" fill="#8C8C8C"/>
<path d="M275.992 68.5098H273.51V65.8614H272.095V72.2013H273.51V69.6231H275.992V72.2013H277.407V65.8614H275.992V68.5098Z" fill="#8C8C8C"/>
<path d="M280.43 72.2013V65.8614H279.009V72.2013H280.43Z" fill="#8C8C8C"/>
<path d="M303.356 72.2013V65.8614H301.935V72.2013H303.356Z" fill="#8C8C8C"/>
</g>
<defs>
<linearGradient id="paint0_linear_124_3105" x1="81.3415" y1="58.6485" x2="62.4023" y2="25.7279" gradientUnits="userSpaceOnUse">
<stop stop-color="#F6E300"/>
<stop offset="0.5196" stop-color="#F28821"/>
<stop offset="0.8994" stop-color="#802B00"/>
<stop offset="1" stop-color="#4A0700"/>
</linearGradient>
<linearGradient id="paint1_linear_124_3105" x1="19.5885" y1="1.3713" x2="31.7724" y2="22.5497" gradientUnits="userSpaceOnUse">
<stop stop-color="#002600"/>
<stop offset="0.5559" stop-color="#00A651"/>
<stop offset="1" stop-color="#D1D528"/>
</linearGradient>
<linearGradient id="paint2_linear_124_3105" x1="32.2295" y1="42.3536" x2="74.5573" y2="-0.124951" gradientUnits="userSpaceOnUse">
<stop stop-color="#002600"/>
<stop offset="0.5559" stop-color="#00A651"/>
<stop offset="1" stop-color="#D1D528"/>
</linearGradient>
<linearGradient id="paint3_linear_124_3105" x1="-0.654176" y1="17.9467" x2="59.7866" y2="54.3925" gradientUnits="userSpaceOnUse">
<stop stop-color="#B3E4FA"/>
<stop offset="0.0893855" stop-color="#57CBF5"/>
<stop offset="1" stop-color="#2D338E"/>
</linearGradient>
<clipPath id="clip0_124_3105">
<rect width="310" height="80" fill="white"/>
</clipPath>
</defs>
</svg>
