<svg width="127" height="39" viewBox="0 0 127 39" fill="none" xmlns="http://www.w3.org/2000/svg">
<path d="M123.473 33.1845C123.315 32.9678 123.157 32.7709 122.978 32.5937C122.8 32.4361 122.583 32.2983 122.385 32.1801C122.84 32.0029 123.255 31.7863 123.592 31.5105C123.948 31.2348 124.245 30.9395 124.482 30.585C124.719 30.2502 124.897 29.876 125.016 29.4625C125.135 29.0489 125.194 28.6354 125.194 28.1627C125.194 27.5719 125.095 27.0205 124.878 26.5085C124.68 25.9965 124.344 25.5632 123.889 25.1891C123.433 24.8149 122.84 24.5195 122.128 24.3226C121.416 24.1059 120.545 24.0075 119.516 24.0075H114.927V38.0683H118.211V32.8694H119.042C119.299 32.8694 119.497 32.9088 119.615 32.9875C119.754 33.0663 119.872 33.2042 119.991 33.3617L122.345 37.4382C122.583 37.8517 122.978 38.0487 123.532 38.0487H126.5L123.473 33.1845ZM118.211 30.6441V26.4691H119.536C120.387 26.4691 121 26.6464 121.416 26.9811C121.811 27.3356 122.029 27.8082 122.029 28.4187C122.029 28.7338 121.989 29.0095 121.89 29.2852C121.791 29.5609 121.653 29.7776 121.455 29.9942C121.257 30.1911 121 30.3487 120.684 30.4668C120.367 30.585 119.991 30.6441 119.536 30.6441H118.211ZM112.632 26.5282V24.0272H103.551V38.088H112.632V35.587H106.835V32.2392H111.267V29.8366H106.835V26.5479H112.632V26.5282ZM101.593 24.0272H90.3755V26.607H94.352V38.0683H97.636V26.607H101.593V24.0272ZM89.0303 25.3663C88.7731 25.13 88.4961 24.9331 88.1796 24.7361C87.863 24.5589 87.5069 24.4013 87.1508 24.2635C86.775 24.1256 86.3991 24.0272 85.9836 23.9681C85.5682 23.909 85.1527 23.8696 84.7175 23.8696C83.9459 23.8696 83.2535 23.9878 82.66 24.2241C82.0665 24.4604 81.5522 24.7755 81.1367 25.1694C80.7213 25.5632 80.4047 26.0162 80.1871 26.5085C79.9695 27.0008 79.8706 27.5325 79.8706 28.0446C79.8706 28.6944 79.9695 29.2458 80.1475 29.6988C80.3256 30.1517 80.563 30.5259 80.8597 30.8213C81.1565 31.1167 81.4928 31.353 81.8687 31.5499C82.2446 31.7272 82.6205 31.8847 83.0161 32.0029C83.4118 32.121 83.7877 32.2392 84.1636 32.3377C84.5394 32.4361 84.8758 32.5543 85.1725 32.6921C85.4693 32.83 85.7067 33.0072 85.8847 33.2042C86.0628 33.4011 86.1617 33.6768 86.1617 34.0116C86.1617 34.5827 86.0034 34.9962 85.6671 35.2522C85.3308 35.5082 84.8758 35.6461 84.2823 35.6461C83.847 35.6461 83.4711 35.587 83.1348 35.4689C82.8183 35.3507 82.5215 35.2129 82.2841 35.0553C82.027 34.8978 81.8093 34.7796 81.6115 34.6418C81.4137 34.5236 81.2158 34.4645 81.018 34.4645C80.8597 34.4645 80.741 34.5039 80.6026 34.5827C80.4839 34.6614 80.3652 34.7402 80.3058 34.8584L79.3364 36.3747C79.6134 36.6504 79.9497 36.9065 80.3058 37.1231C80.6817 37.3397 81.0774 37.5366 81.5126 37.7139C81.9478 37.8714 82.3831 38.0093 82.8381 38.088C83.2931 38.1668 83.7481 38.2259 84.1833 38.2259C84.9747 38.2259 85.7067 38.1077 86.3199 37.8714C86.953 37.6351 87.4872 37.3003 87.9026 36.8868C88.3378 36.4732 88.6544 35.9809 88.8918 35.4098C89.1292 34.8387 89.2281 34.2282 89.2281 33.5783C89.2281 32.9875 89.1292 32.4952 88.9511 32.0816C88.7731 31.6681 88.5357 31.3136 88.2389 31.0182C87.9422 30.7228 87.6059 30.4865 87.23 30.3093C86.8541 30.132 86.4584 29.9548 86.0628 29.8169C85.6671 29.6791 85.2912 29.5609 84.8955 29.4428C84.5197 29.3246 84.1833 29.2065 83.8866 29.0686C83.5898 28.9308 83.3524 28.7732 83.1744 28.596C82.9963 28.4187 82.8974 28.1824 82.8974 27.887C82.8974 27.4341 83.0557 27.0993 83.3524 26.8236C83.6492 26.5676 84.1042 26.4297 84.7175 26.4297C85.0736 26.4297 85.3901 26.4691 85.6671 26.5676C85.9441 26.666 86.2012 26.7645 86.3991 26.8827C86.6167 27.0008 86.8145 27.0993 86.9728 27.1978C87.1508 27.2962 87.3091 27.3356 87.4476 27.3356C87.6059 27.3356 87.7443 27.2962 87.863 27.2175C87.9817 27.1387 88.0807 27.0205 88.1598 26.863L89.0303 25.3663ZM74.5686 32.9285C74.3906 33.4799 74.1334 33.9525 73.7971 34.3464C73.4608 34.7402 73.0453 35.0356 72.5507 35.2325C72.0562 35.4295 71.5022 35.5279 70.8692 35.5279C70.2361 35.5279 69.6822 35.4295 69.1876 35.2325C68.693 35.0356 68.2775 34.7402 67.9412 34.3464C67.6049 33.9525 67.3477 33.4996 67.1697 32.9285C66.9916 32.377 66.8927 31.7469 66.8927 31.0379C66.8927 30.3487 66.9916 29.7185 67.1697 29.1671C67.3477 28.6157 67.6049 28.143 67.9412 27.7492C68.2775 27.3553 68.693 27.0599 69.1876 26.863C69.6822 26.666 70.2361 26.5479 70.8692 26.5479C71.5022 26.5479 72.0562 26.6464 72.5507 26.863C73.0453 27.0599 73.4608 27.3553 73.7971 27.7492C74.1334 28.143 74.3906 28.6157 74.5686 29.1671C74.7467 29.7185 74.8456 30.3487 74.8456 31.0379C74.8456 31.7469 74.7665 32.377 74.5686 32.9285ZM77.6746 28.2218C77.3185 27.3553 76.8239 26.5873 76.1909 25.9374C75.5578 25.2875 74.7863 24.7952 73.8762 24.421C72.9662 24.0469 71.977 23.8696 70.8692 23.8696C69.7613 23.8696 68.7721 24.0469 67.8621 24.421C66.952 24.7952 66.1805 25.2875 65.5474 25.9374C64.9144 26.5873 64.4 27.3356 64.0637 28.2218C63.7076 29.0883 63.5295 30.0336 63.5295 31.0576C63.5295 32.0816 63.7076 33.0269 64.0637 33.8934C64.4198 34.7599 64.9144 35.5279 65.5474 36.1778C66.1805 36.8277 66.9718 37.3397 67.8621 37.6942C68.7721 38.0683 69.7613 38.2456 70.8692 38.2456C71.9572 38.2456 72.9662 38.0683 73.8762 37.6942C74.7863 37.32 75.538 36.8277 76.1909 36.1778C76.8239 35.5279 77.3185 34.7796 77.6746 33.8934C78.0307 33.0269 78.2088 32.0816 78.2088 31.0576C78.2088 30.0336 78.0307 29.108 77.6746 28.2218ZM58.5046 32.9285C58.3265 33.4799 58.0693 33.9525 57.733 34.3464C57.3967 34.7402 56.9812 35.0356 56.4867 35.2325C55.9921 35.4295 55.4381 35.5279 54.8051 35.5279C54.172 35.5279 53.6181 35.4295 53.1235 35.2325C52.6289 35.0356 52.2135 34.7402 51.8771 34.3464C51.5408 33.9525 51.2836 33.4996 51.1056 32.9285C50.9275 32.377 50.8286 31.7469 50.8286 31.0379C50.8286 30.3487 50.9275 29.7185 51.1056 29.1671C51.2836 28.6157 51.5408 28.143 51.8771 27.7492C52.2135 27.3553 52.6289 27.0599 53.1235 26.863C53.6181 26.666 54.172 26.5479 54.8051 26.5479C55.4381 26.5479 55.9921 26.6464 56.4867 26.863C56.9812 27.0599 57.3967 27.3553 57.733 27.7492C58.0693 28.143 58.3265 28.6157 58.5046 29.1671C58.6826 29.7185 58.7815 30.3487 58.7815 31.0379C58.7815 31.7469 58.6826 32.377 58.5046 32.9285ZM61.5908 28.2218C61.2347 27.3553 60.7401 26.5873 60.107 25.9374C59.4739 25.2875 58.7024 24.7952 57.7924 24.421C56.8823 24.0469 55.8932 23.8696 54.7853 23.8696C53.6774 23.8696 52.6883 24.0469 51.7782 24.421C50.8682 24.7952 50.0966 25.2875 49.4636 25.9374C48.8305 26.5873 48.3161 27.3356 47.9798 28.2218C47.6237 29.0883 47.4457 30.0336 47.4457 31.0576C47.4457 32.0816 47.6237 33.0269 47.9798 33.8934C48.3359 34.7599 48.8305 35.5279 49.4636 36.1778C50.0966 36.8277 50.888 37.3397 51.7782 37.6942C52.6883 38.0683 53.6774 38.2456 54.7853 38.2456C55.8734 38.2456 56.8823 38.0683 57.7924 37.6942C58.7024 37.32 59.4542 36.8277 60.107 36.1778C60.7401 35.5279 61.2347 34.7796 61.5908 33.8934C61.9469 33.0269 62.1249 32.0816 62.1249 31.0576C62.1249 30.0336 61.9469 29.108 61.5908 28.2218ZM35.002 24.0272V38.088H40.6402C41.4909 38.088 42.2427 37.9896 42.8955 37.773C43.5484 37.5563 44.1023 37.2609 44.5573 36.8671C45.0123 36.4929 45.3486 36.04 45.586 35.5279C45.8234 35.0159 45.9421 34.4645 45.9421 33.854C45.9421 33.0663 45.7245 32.4164 45.2695 31.9044C44.8145 31.4121 44.1419 31.0379 43.212 30.8213C43.6473 30.6637 44.0034 30.4865 44.3001 30.2699C44.5969 30.0533 44.8541 29.8169 45.0519 29.5609C45.2497 29.3049 45.3882 29.0292 45.4871 28.7338C45.586 28.4384 45.6256 28.143 45.6256 27.8279C45.6256 27.2568 45.5267 26.7251 45.3289 26.2525C45.131 25.7799 44.8145 25.386 44.3793 25.0512C43.944 24.7164 43.3901 24.4604 42.6977 24.2832C42.0053 24.1059 41.1744 24.0075 40.205 24.0075H35.002V24.0272ZM40.205 26.4691C40.5809 26.4691 40.8974 26.4888 41.1546 26.5479C41.4315 26.607 41.6492 26.7054 41.8272 26.8433C42.0053 26.9811 42.124 27.1584 42.2229 27.375C42.302 27.5916 42.3416 27.8673 42.3416 28.2021C42.3416 28.5369 42.2822 28.8323 42.1833 29.0489C42.0844 29.2655 41.9261 29.4428 41.7085 29.5806C41.5107 29.7185 41.2535 29.7973 40.9765 29.8563C40.6798 29.9154 40.3632 29.9351 40.0071 29.9351H38.286V26.4691H40.205ZM38.286 35.6264V32.121H40.5809C40.9963 32.121 41.3326 32.1604 41.6096 32.2392C41.8866 32.318 42.1042 32.4164 42.2624 32.574C42.4207 32.7118 42.5394 32.8891 42.6185 33.086C42.6779 33.2829 42.7175 33.5192 42.7175 33.7753C42.7175 33.9919 42.6977 34.2282 42.6383 34.4448C42.579 34.6614 42.4801 34.8584 42.3218 35.0356C42.1635 35.2128 41.9459 35.3507 41.6689 35.4689C41.392 35.587 41.0359 35.6264 40.6006 35.6264H38.286Z" fill="#D9D9E3"/>
<path d="M119.299 0.611951C119.16 0.611951 119.042 0.611951 118.923 0.611951C118.824 0.611951 118.725 0.631645 118.646 0.671031C118.567 0.710417 118.488 0.749803 118.409 0.828575C118.349 0.887655 118.27 0.98612 118.211 1.10428L114.591 8.19379C114.452 8.43011 114.333 8.68612 114.215 8.96182C114.096 9.23752 113.977 9.51323 113.878 9.78893C113.76 9.51323 113.661 9.23752 113.542 8.98151C113.423 8.7255 113.305 8.46949 113.166 8.21348L109.526 1.10428C109.467 0.98612 109.387 0.887655 109.328 0.828575C109.269 0.769496 109.19 0.710417 109.091 0.671031C109.012 0.631645 108.913 0.611951 108.814 0.611951C108.715 0.611951 108.576 0.611951 108.438 0.611951H105.945V14.6728H108.834V6.59865C108.834 6.42141 108.834 6.20479 108.814 5.98816C108.794 5.77154 108.794 5.53522 108.774 5.29891L112.533 12.546C112.652 12.7626 112.81 12.9398 113.008 13.058C113.206 13.1761 113.423 13.2352 113.68 13.2352H114.136C114.393 13.2352 114.61 13.1761 114.808 13.058C115.006 12.9398 115.164 12.7626 115.283 12.546L119.042 5.3186C119.022 5.53522 119.002 5.77154 118.982 5.98816C118.982 6.20479 118.963 6.40172 118.963 6.59865V14.6728H121.851V0.611951H119.299ZM95.8359 11.8764C95.4996 11.7385 95.2029 11.5219 94.9655 11.2462C94.7281 10.9705 94.55 10.6357 94.4115 10.2616C94.2928 9.8677 94.2137 9.43446 94.2137 8.94213V0.611951H90.9297V8.94213C90.9297 9.80863 91.0681 10.5963 91.3451 11.3053C91.6221 12.0339 92.0177 12.6444 92.5519 13.1761C93.0662 13.6882 93.7191 14.1017 94.4511 14.3971C95.2029 14.6925 96.0535 14.8304 96.9834 14.8304C97.9132 14.8304 98.7639 14.6925 99.5156 14.3971C100.267 14.1017 100.9 13.7079 101.415 13.1761C101.929 12.6641 102.345 12.0339 102.622 11.3053C102.899 10.5767 103.037 9.78893 103.037 8.94213V0.611951H99.8124V8.94213C99.8124 9.43446 99.753 9.8874 99.6145 10.2616C99.4958 10.6554 99.298 10.9705 99.0606 11.2462C98.8232 11.5219 98.5265 11.7189 98.1901 11.8764C97.8538 12.0143 97.4581 12.093 97.0031 12.093C96.5877 12.093 96.192 12.0143 95.8359 11.8764ZM88.8128 3.11297V0.611951H79.7323V14.6728H88.8128V12.1521H83.0163V8.80428H87.4478V6.40172H83.0163V3.11297H88.8128ZM77.3187 1.95108C77.0615 1.71476 76.7846 1.51783 76.468 1.3209C76.1515 1.14366 75.7954 0.98612 75.4393 0.848269C75.0634 0.710417 74.6875 0.611951 74.2721 0.552872C73.8566 0.493793 73.4412 0.454407 73.006 0.454407C72.2344 0.454407 71.542 0.572565 70.9485 0.808882C70.355 1.0452 69.8406 1.36029 69.4252 1.75415C69.0097 2.14801 68.6932 2.60095 68.4756 3.09328C68.258 3.58561 68.159 4.11732 68.159 4.62934C68.159 5.27921 68.258 5.83062 68.436 6.28356C68.6141 6.7365 68.8515 7.11067 69.1482 7.40607C69.445 7.70146 69.7813 7.93778 70.1572 8.13471C70.533 8.31195 70.9089 8.46949 71.3046 8.60735C71.7003 8.7255 72.0761 8.84366 72.452 8.94213C72.8279 9.04059 73.1642 9.15875 73.461 9.2966C73.7577 9.43446 73.9951 9.61169 74.1732 9.80862C74.3512 10.0056 74.4501 10.2813 74.4501 10.616C74.4501 11.1871 74.2919 11.6007 73.9556 11.8567C73.6192 12.1127 73.1642 12.2506 72.5707 12.2506C72.1355 12.2506 71.7596 12.1915 71.4233 12.0733C71.1068 11.9552 70.81 11.8173 70.5726 11.6598C70.3154 11.5022 70.0978 11.3841 69.9 11.2462C69.7021 11.1281 69.5043 11.069 69.3065 11.069C69.1482 11.069 69.0295 11.1084 68.891 11.1871C68.7723 11.2659 68.6536 11.3447 68.5943 11.4628L67.6249 12.9792C67.9019 13.2549 68.2382 13.5109 68.5943 13.7275C68.9702 13.9442 69.3658 14.1411 69.8011 14.3183C70.2363 14.4759 70.6715 14.6137 71.1265 14.6925C71.5816 14.7713 72.0366 14.8304 72.4718 14.8304C73.2631 14.8304 73.9951 14.7122 74.6084 14.4759C75.2415 14.2396 75.7756 13.9048 76.1911 13.4912C76.6263 13.0777 76.9428 12.5854 77.1802 12.0143C77.3979 11.4432 77.5166 10.8327 77.5166 10.1828C77.5166 9.592 77.4176 9.09967 77.2396 8.68612C77.0615 8.27256 76.8241 7.91809 76.5274 7.62269C76.2306 7.3273 75.8943 7.09098 75.5184 6.91374C75.1426 6.7365 74.7469 6.55926 74.3512 6.42141C73.9556 6.28356 73.5797 6.1654 73.184 6.04724C72.8081 5.92909 72.4718 5.81093 72.1751 5.67308C71.8783 5.53522 71.6409 5.37768 71.4629 5.20044C71.2848 5.0232 71.1859 4.78689 71.1859 4.49149C71.1859 4.03855 71.3442 3.70377 71.6409 3.42806C71.9377 3.17205 72.3927 3.0342 73.006 3.0342C73.3621 3.0342 73.6786 3.07359 73.9556 3.17205C74.2325 3.27052 74.4897 3.36898 74.6875 3.48714C74.9052 3.6053 75.103 3.70377 75.2613 3.80223C75.4393 3.9007 75.5976 3.94008 75.7361 3.94008C75.8943 3.94008 76.0328 3.9007 76.1515 3.82193C76.2504 3.74315 76.3691 3.62499 76.4483 3.46745L77.3187 1.95108ZM58.6235 11.8764C58.2872 11.7385 57.9904 11.5219 57.753 11.2462C57.5156 10.9705 57.3376 10.6357 57.1991 10.2616C57.0804 9.8677 57.0012 9.43446 57.0012 8.94213V0.611951H53.7172V8.94213C53.7172 9.80863 53.8557 10.5963 54.1327 11.3053C54.4096 12.0339 54.8053 12.6444 55.3395 13.1761C55.8538 13.6882 56.5067 14.1017 57.2386 14.3971C57.9904 14.6925 58.8411 14.8304 59.7709 14.8304C60.7007 14.8304 61.5514 14.6925 62.3032 14.3971C63.0549 14.1017 63.688 13.7079 64.2024 13.1761C64.7167 12.6641 65.1322 12.0339 65.4092 11.3053C65.6861 10.5767 65.8246 9.78893 65.8246 8.94213V0.611951H62.5406V8.94213C62.5406 9.43446 62.4812 9.8874 62.3427 10.2616C62.224 10.6554 62.0262 10.9705 61.7888 11.2462C61.5514 11.5219 61.2547 11.7189 60.9183 11.8764C60.582 12.0143 60.1864 12.093 59.7313 12.093C59.3555 12.093 58.9598 12.0143 58.6235 11.8764ZM48.3757 0.611951C48.2372 0.611951 48.1185 0.611951 47.9998 0.611951C47.9009 0.611951 47.802 0.631645 47.7229 0.671031C47.6437 0.710417 47.5646 0.749803 47.4855 0.828575C47.4261 0.887655 47.347 0.98612 47.2876 1.10428L43.6673 8.19379C43.5288 8.43011 43.4101 8.68612 43.2914 8.96182C43.1727 9.23752 43.054 9.51323 42.9551 9.78893C42.8364 9.51323 42.7375 9.23752 42.6188 8.98151C42.5001 8.7255 42.3814 8.46949 42.2429 8.21348L38.6028 1.10428C38.5434 0.98612 38.4643 0.887655 38.4049 0.828575C38.3456 0.769496 38.2664 0.710417 38.1675 0.671031C38.0884 0.631645 37.9895 0.611951 37.8906 0.611951C37.7916 0.611951 37.6532 0.611951 37.5147 0.611951H35.022V14.6728H37.8906V6.59865C37.8906 6.42141 37.8906 6.20479 37.8708 5.98816C37.851 5.77154 37.851 5.53522 37.8312 5.29891L41.59 12.546C41.7087 12.7626 41.867 12.9398 42.0648 13.058C42.2627 13.1761 42.4803 13.2352 42.7375 13.2352H43.1925C43.4497 13.2352 43.6673 13.1761 43.8651 13.058C44.063 12.9398 44.2212 12.7626 44.3399 12.546L48.0988 5.3186C48.079 5.53522 48.0592 5.77154 48.0394 5.98816C48.0394 6.20479 48.0196 6.40172 48.0196 6.59865V14.6728H50.908V0.611951H48.3757Z" fill="#D9D9E3"/>
<path d="M19.3733 29.167C18.8194 31.156 15.8321 33.5783 15.8321 33.5783C15.8321 33.5783 14.7242 30.0532 15.2979 28.0248C15.6145 26.863 16.8015 26.1343 17.9291 26.4494C19.0568 26.7645 19.6898 28.0052 19.3733 29.167ZM8.78922 26.2328C8.23528 28.2415 5.248 30.6637 5.248 30.6637C5.248 30.6637 4.14013 27.1387 4.71385 25.1103C5.03038 23.9484 6.21738 23.2197 7.34503 23.5348C8.47268 23.8499 9.12553 25.0709 8.78922 26.2328ZM13.8933 31.1167C12.9833 34.4251 8.65073 38.6 8.65073 38.6C8.65073 38.6 7.36481 32.9481 8.31441 29.5609C8.84857 27.631 10.5499 26.3509 12.093 26.7842C13.6361 27.2371 14.4275 29.2064 13.8933 31.1167ZM10.7082 7.26832L13.3789 7.99697L10.2136 19.3599L7.54286 18.6312L10.7082 7.26832ZM18.7007 9.47395L15.5353 20.8369L12.8646 20.1082L16.0299 8.74531L18.7007 9.47395ZM20.857 22.3138L18.1863 21.5655L21.3516 10.2026L24.0224 10.9312L20.857 22.3138ZM24.3983 24.0271L24.5961 23.3379L23.508 23.0425L26.6733 11.6796L27.7416 11.975L27.8999 11.3842L28.8495 11.6402L29.4232 9.59211L28.4736 9.3361L19.8679 0.100037L7.64178 3.58571L6.7911 3.3494L6.23717 5.39748L7.22633 5.67318L7.06807 6.26398L8.05723 6.53968L4.8919 17.9026L3.88295 17.6269L3.68512 18.3161L0.875883 19.2417L0.5 20.6005L25.882 27.5916L26.2579 26.2328L24.3983 24.0271Z" fill="#D9D9E3"/>
</svg>
