<svg width="118" height="36" viewBox="0 0 118 36" fill="none" xmlns="http://www.w3.org/2000/svg">
<path d="M17.9305 0.5C8.24882 0.5 0.399902 8.33515 0.399902 18.0001C0.399902 27.6655 8.24882 35.5 17.9305 35.5C27.6132 35.5 35.4613 27.6655 35.4613 18.0001C35.4613 8.33578 27.6132 0.500836 17.9303 0.500836L17.9305 0.5ZM25.9699 25.7402C25.8951 25.8625 25.7969 25.969 25.6808 26.0534C25.5647 26.1378 25.4331 26.1986 25.2935 26.2321C25.1539 26.2657 25.009 26.2715 24.8672 26.2491C24.7253 26.2267 24.5893 26.1766 24.4669 26.1017C20.3509 23.5919 15.1693 23.0235 9.06712 24.4153C8.78456 24.4794 8.48806 24.4289 8.24276 24.2749C7.99746 24.1209 7.82345 23.876 7.75897 23.594C7.72686 23.4543 7.72265 23.3098 7.74659 23.1685C7.77053 23.0272 7.82215 22.8921 7.89849 22.7707C7.97483 22.6494 8.0744 22.5443 8.19148 22.4615C8.30857 22.3786 8.44088 22.3196 8.58083 22.2879C15.2587 20.7649 20.9868 21.4206 25.6078 24.2397C26.1227 24.5553 26.286 25.2261 25.9699 25.7402ZM28.1156 20.9751C27.72 21.6171 26.8784 21.8198 26.2358 21.4248C21.5236 18.5334 14.3406 17.696 8.76693 19.385C8.04409 19.603 7.28063 19.1963 7.06125 18.4759C6.95656 18.1296 6.99373 17.756 7.16459 17.437C7.33545 17.118 7.62607 16.8797 7.97271 16.7742C14.3393 14.8458 22.2542 15.7799 27.6656 19.0995C28.3082 19.4945 28.5113 20.3346 28.1156 20.9753V20.9751ZM28.2998 16.0132C22.6498 12.6631 13.328 12.355 7.93356 13.9894C7.06732 14.2517 6.15126 13.7635 5.88875 12.8988C5.76252 12.4833 5.80675 12.0348 6.0117 11.6519C6.21666 11.269 6.56557 10.983 6.9817 10.8569C13.1741 8.98026 23.4683 9.34284 29.9733 13.1978C30.1587 13.3073 30.3206 13.4522 30.4498 13.6243C30.579 13.7963 30.673 13.9921 30.7262 14.2005C30.7795 14.4088 30.7911 14.6256 30.7603 14.8385C30.7296 15.0513 30.657 15.256 30.5469 15.4408C30.0863 16.2186 29.0773 16.475 28.3007 16.0132H28.2998ZM48.0948 16.6551C45.0678 15.9346 44.5298 15.4289 44.5298 14.3662C44.5298 13.3623 45.476 12.6867 46.8849 12.6867C48.2498 12.6867 49.6021 13.1997 51.0214 14.2559C51.0633 14.2878 51.1177 14.3006 51.17 14.2922C51.1964 14.2885 51.2216 14.2794 51.2443 14.2655C51.267 14.2516 51.2866 14.2333 51.3019 14.2116L52.7798 12.1318C52.809 12.0906 52.8214 12.0398 52.8144 11.9898C52.8074 11.9398 52.7815 11.8943 52.7421 11.8627C51.0528 10.51 49.152 9.85232 46.9288 9.85232C43.6611 9.85232 41.3772 11.8102 41.3772 14.6116C41.3772 17.6156 43.3471 18.6793 46.7509 19.5003C49.646 20.1664 50.1359 20.7243 50.1359 21.7216C50.1359 22.827 49.1478 23.5146 47.5569 23.5146C45.79 23.5146 44.3477 22.919 42.7358 21.5272C42.6956 21.4933 42.6439 21.4761 42.5914 21.4791C42.5369 21.4833 42.4888 21.5084 42.4553 21.5481L40.7973 23.5167C40.7282 23.6003 40.7366 23.7215 40.8162 23.7925C42.6918 25.4643 44.9987 26.3462 47.4899 26.3462C51.0109 26.3462 53.2864 24.4257 53.2864 21.452C53.2927 18.9428 51.7876 17.5531 48.1011 16.6578L48.0948 16.6551ZM61.2538 13.6751C59.7278 13.6751 58.4759 14.2753 57.4418 15.5051V14.1209C57.442 14.0685 57.4214 14.0182 57.3845 13.9811C57.3476 13.9439 57.2974 13.9228 57.245 13.9226H54.5341C54.4252 13.9226 54.3373 14.0116 54.3373 14.1209V29.5018C54.3373 29.6104 54.4252 29.7003 54.5341 29.7003H57.245C57.3539 29.7003 57.4418 29.6104 57.4418 29.5018V24.6472C58.4759 25.8029 59.7278 26.3692 61.2538 26.3692C64.0904 26.3692 66.9625 24.1896 66.9625 20.0228C66.9667 15.8552 64.0946 13.6749 61.2559 13.6749L61.2538 13.6751ZM63.8099 20.0228C63.8099 22.1437 62.5015 23.6253 60.6258 23.6253C58.7732 23.6253 57.3748 22.0768 57.3748 20.0228C57.3748 17.9685 58.7732 16.4205 60.6258 16.4205C62.4701 16.4202 63.8099 17.9349 63.8099 20.0226V20.0228ZM74.3207 13.6751C70.6678 13.6751 67.8061 16.4829 67.8061 20.0681C67.8061 23.6149 70.6489 26.3922 74.2768 26.3922C77.9423 26.3922 80.8123 23.594 80.8123 20.0228C80.8123 16.4637 77.9611 13.6755 74.3207 13.6755V13.6751ZM74.3207 23.6462C72.3781 23.6462 70.9127 22.0873 70.9127 20.0217C70.9127 17.9468 72.3278 16.4411 74.2768 16.4411C76.232 16.4411 77.7057 17.9995 77.7057 20.0671C77.7057 22.1416 76.2822 23.6462 74.3207 23.6462ZM88.6122 13.9226H85.6292V10.8786C85.6293 10.8527 85.6243 10.827 85.6144 10.803C85.6046 10.7791 85.5901 10.7573 85.5719 10.7389C85.5536 10.7205 85.5319 10.7058 85.5079 10.6958C85.484 10.6858 85.4583 10.6806 85.4324 10.6805H82.7215C82.6126 10.6805 82.5226 10.7695 82.5226 10.8786V13.9226H81.2205C81.1116 13.9226 81.0237 14.0116 81.0237 14.1209V16.4462C81.0237 16.5552 81.1116 16.6445 81.2205 16.6445H82.5226V22.662C82.5226 25.0923 83.7346 26.3253 86.1274 26.3253C87.0987 26.3253 87.9047 26.1247 88.6646 25.6942C88.7274 25.6608 88.765 25.5939 88.765 25.5228V23.3077C88.765 23.2408 88.7295 23.176 88.6708 23.1405C88.6423 23.1223 88.6095 23.1119 88.5757 23.1105C88.5419 23.109 88.5082 23.1165 88.4782 23.1321C87.957 23.3934 87.4525 23.5146 86.8873 23.5146C86.0185 23.5146 85.6292 23.1196 85.6292 22.2377V16.6455H88.6122C88.7211 16.6455 88.809 16.5565 88.809 16.4472V14.1221C88.8099 14.0962 88.8055 14.0703 88.7961 14.0461C88.7866 14.0219 88.7724 13.9999 88.7542 13.9814C88.736 13.9628 88.7142 13.9482 88.6902 13.9383C88.6661 13.9284 88.6403 13.9235 88.6143 13.9238L88.6122 13.9226ZM99.0038 13.9345V13.5606C99.0038 12.4608 99.4266 11.9703 100.373 11.9703C100.938 11.9703 101.392 12.0823 101.901 12.2516C101.964 12.2712 102.029 12.2614 102.079 12.224C102.104 12.2056 102.125 12.1814 102.139 12.1534C102.154 12.1255 102.161 12.0945 102.161 12.0631V9.78315C102.161 9.74057 102.148 9.69899 102.122 9.66471C102.097 9.63043 102.061 9.60532 102.02 9.59319C101.484 9.43374 100.798 9.27011 99.7678 9.27011C97.2663 9.27011 95.9411 10.6774 95.9411 13.3383V13.9109H94.6391C94.5302 13.9109 94.4402 13.9999 94.4402 14.109V16.4462C94.4402 16.5552 94.5302 16.6445 94.6391 16.6445H95.9411V25.9241C95.9411 26.0348 96.0312 26.1226 96.14 26.1226H98.8489C98.9598 26.1226 99.0477 26.0348 99.0477 25.9241V16.6451H101.579L105.456 25.9241C105.016 26.8979 104.583 27.0923 103.992 27.0923C103.515 27.0923 103.01 26.9501 102.498 26.668C102.449 26.6435 102.393 26.6383 102.341 26.6534C102.288 26.6722 102.244 26.7098 102.223 26.76L101.304 28.7724C101.26 28.8686 101.298 28.9793 101.39 29.0295C102.349 29.5477 103.214 29.7692 104.283 29.7692C106.285 29.7692 107.392 28.8372 108.365 26.3337L113.067 14.2053C113.079 14.1753 113.084 14.1427 113.08 14.1106C113.077 14.0784 113.065 14.0477 113.046 14.0212C113.028 13.9947 113.005 13.973 112.976 13.9579C112.948 13.9429 112.917 13.9351 112.885 13.9351H110.063C109.977 13.9351 109.902 13.9888 109.875 14.068L106.984 22.3088L103.819 14.0626C103.804 14.0252 103.779 13.993 103.746 13.9702C103.713 13.9475 103.674 13.9352 103.634 13.9351H99.0038V13.9345ZM92.979 13.9226H90.2681C90.1592 13.9226 90.0692 14.0116 90.0692 14.1209V25.9241C90.0692 26.0348 90.1592 26.1226 90.2681 26.1226H92.979C93.0879 26.1226 93.1779 26.0348 93.1779 25.9241V14.1217C93.1779 14.0956 93.1728 14.0698 93.1629 14.0457C93.1529 14.0216 93.1382 13.9997 93.1198 13.9813C93.1013 13.9629 93.0793 13.9482 93.0552 13.9383C93.031 13.9284 93.0051 13.9233 92.979 13.9234V13.9226ZM91.6393 8.54789C90.5654 8.54789 89.6945 9.41556 89.6945 10.4874C89.6945 11.5599 90.5654 12.4286 91.6393 12.4286C92.7132 12.4286 93.5819 11.5599 93.5819 10.4874C93.5819 9.41577 92.7111 8.54789 91.6393 8.54789ZM115.382 17.7178C114.311 17.7178 113.475 16.8578 113.475 15.8136C113.475 14.7693 114.321 13.8996 115.393 13.8996C116.465 13.8996 117.3 14.7593 117.3 15.8027C117.3 16.847 116.454 17.7178 115.382 17.7178ZM115.393 14.0889C114.415 14.0889 113.676 14.8642 113.676 15.8136C113.676 16.7625 114.411 17.5274 115.382 17.5274C116.36 17.5274 117.099 16.7527 117.099 15.8027C117.099 14.8538 116.364 14.0889 115.393 14.0889ZM115.816 15.9985L116.356 16.7525H115.899L115.414 16.0608H114.997V16.7525H114.616V14.7539H115.508C115.975 14.7539 116.28 14.9915 116.28 15.3915C116.283 15.7191 116.092 15.9193 115.818 15.9985H115.816ZM115.493 15.0968H114.997V15.7289H115.493C115.74 15.7289 115.889 15.608 115.889 15.4126C115.889 15.2069 115.74 15.0968 115.493 15.0968Z" fill="#D9D9E3"/>
</svg>
