<svg width="0" height="0" class="hidden">
  <symbol xmlns="http://www.w3.org/2000/svg" viewBox="0 0 28 22" id="youtube">
    <path d="M26.7238 3.66392C27.3332 6.03992 27.3332 10.9999 27.3332 10.9999C27.3332 10.9999 27.3332 15.9599 26.7238 18.3359C26.3852 19.6493 25.3945 20.6826 24.1398 21.0319C21.8612 21.6666 13.9998 21.6666 13.9998 21.6666C13.9998 21.6666 6.1425 21.6666 3.85984 21.0319C2.59984 20.6773 1.6105 19.6453 1.27584 18.3359C0.666504 15.9599 0.666504 10.9999 0.666504 10.9999C0.666504 10.9999 0.666504 6.03992 1.27584 3.66392C1.6145 2.35059 2.60517 1.31725 3.85984 0.967918C6.1425 0.333252 13.9998 0.333252 13.9998 0.333252C13.9998 0.333252 21.8612 0.333252 24.1398 0.967918C25.3998 1.32258 26.3892 2.35459 26.7238 3.66392ZM11.3332 15.6666L19.3332 10.9999L11.3332 6.33325V15.6666Z"></path>
  </symbol>
  <symbol xmlns="http://www.w3.org/2000/svg" viewBox="0 0 28 24" id="twitter">
    <path d="M27.5494 3.54124C26.5315 3.99149 25.452 4.2872 24.3467 4.41857C25.5117 3.72181 26.3837 2.62525 26.8001 1.33324C25.7067 1.9839 24.5081 2.4399 23.2587 2.68657C22.4195 1.78867 21.3072 1.19319 20.0947 0.992682C18.8821 0.792177 17.6373 0.99789 16.5538 1.57784C15.4702 2.15779 14.6086 3.07948 14.1029 4.19963C13.5972 5.31977 13.4757 6.57561 13.7574 7.7719C11.5402 7.66078 9.37118 7.0846 7.39112 6.08079C5.41106 5.07698 3.66424 3.66797 2.26407 1.94524C1.76846 2.7965 1.50801 3.7642 1.5094 4.74924C1.5094 6.68257 2.4934 8.39057 3.9894 9.39057C3.10408 9.3627 2.23825 9.12361 1.46407 8.69324V8.76257C1.46434 10.0502 1.9099 11.2981 2.7252 12.2947C3.54051 13.2912 4.67538 13.9752 5.9374 14.2306C5.11556 14.4533 4.25381 14.4861 3.4174 14.3266C3.77323 15.4349 4.46675 16.4042 5.40086 17.0987C6.33497 17.7933 7.46291 18.1783 8.62674 18.1999C7.47004 19.1083 6.14564 19.7799 4.72924 20.1761C3.31285 20.5724 1.83224 20.6856 0.37207 20.5092C2.921 22.1485 5.8882 23.0187 8.91874 23.0159C19.1761 23.0159 24.7854 14.5186 24.7854 7.14924C24.7854 6.90924 24.7787 6.66657 24.7681 6.42924C25.8599 5.64013 26.8022 4.6626 27.5507 3.54257L27.5494 3.54124Z"></path>
  </symbol>
  <symbol xmlns="http://www.w3.org/2000/svg" viewBox="0 0 28 28" id="instagram">
    <path d="M13.9998 0.666748C17.6225 0.666748 18.0745 0.680081 19.4958 0.746748C20.9158 0.813415 21.8825 1.03608 22.7332 1.36675C23.6132 1.70541 24.3545 2.16408 25.0958 2.90408C25.7738 3.57061 26.2984 4.37687 26.6332 5.26675C26.9625 6.11608 27.1865 7.08408 27.2532 8.50408C27.3158 9.92542 27.3332 10.3774 27.3332 14.0001C27.3332 17.6227 27.3198 18.0747 27.2532 19.4961C27.1865 20.9161 26.9625 21.8827 26.6332 22.7334C26.2994 23.6238 25.7747 24.4302 25.0958 25.0961C24.4291 25.7738 23.6229 26.2984 22.7332 26.6334C21.8838 26.9627 20.9158 27.1868 19.4958 27.2534C18.0745 27.3161 17.6225 27.3334 13.9998 27.3334C10.3772 27.3334 9.92517 27.3201 8.50384 27.2534C7.08384 27.1868 6.11717 26.9627 5.2665 26.6334C4.37627 26.2994 3.56987 25.7747 2.90384 25.0961C2.22571 24.4297 1.70108 23.6234 1.3665 22.7334C1.03584 21.8841 0.813171 20.9161 0.746504 19.4961C0.683837 18.0747 0.666504 17.6227 0.666504 14.0001C0.666504 10.3774 0.679837 9.92542 0.746504 8.50408C0.813171 7.08275 1.03584 6.11741 1.3665 5.26675C1.70015 4.37632 2.22491 3.56984 2.90384 2.90408C3.57007 2.22572 4.37641 1.70105 5.2665 1.36675C6.11717 1.03608 7.0825 0.813415 8.50384 0.746748C9.92517 0.684081 10.3772 0.666748 13.9998 0.666748ZM13.9998 7.33342C12.2317 7.33342 10.536 8.03579 9.28579 9.28604C8.03555 10.5363 7.33317 12.232 7.33317 14.0001C7.33317 15.7682 8.03555 17.4639 9.28579 18.7141C10.536 19.9644 12.2317 20.6667 13.9998 20.6667C15.7679 20.6667 17.4636 19.9644 18.7139 18.7141C19.9641 17.4639 20.6665 15.7682 20.6665 14.0001C20.6665 12.232 19.9641 10.5363 18.7139 9.28604C17.4636 8.03579 15.7679 7.33342 13.9998 7.33342ZM22.6665 7.00008C22.6665 6.55805 22.4909 6.13413 22.1784 5.82157C21.8658 5.50901 21.4419 5.33342 20.9998 5.33342C20.5578 5.33342 20.1339 5.50901 19.8213 5.82157C19.5088 6.13413 19.3332 6.55805 19.3332 7.00008C19.3332 7.44211 19.5088 7.86603 19.8213 8.17859C20.1339 8.49115 20.5578 8.66675 20.9998 8.66675C21.4419 8.66675 21.8658 8.49115 22.1784 8.17859C22.4909 7.86603 22.6665 7.44211 22.6665 7.00008ZM13.9998 10.0001C15.0607 10.0001 16.0781 10.4215 16.8283 11.1717C17.5784 11.9218 17.9998 12.9392 17.9998 14.0001C17.9998 15.0609 17.5784 16.0784 16.8283 16.8285C16.0781 17.5787 15.0607 18.0001 13.9998 18.0001C12.939 18.0001 11.9216 17.5787 11.1714 16.8285C10.4213 16.0784 9.99984 15.0609 9.99984 14.0001C9.99984 12.9392 10.4213 11.9218 11.1714 11.1717C11.9216 10.4215 12.939 10.0001 13.9998 10.0001Z"></path>
  </symbol>
  <symbol xmlns="http://www.w3.org/2000/svg" viewBox="0 0 28 28" id="facebook">
    <path d="M13.9998 0.666748C6.63584 0.666748 0.666504 6.63608 0.666504 14.0001C0.666504 20.6547 5.5425 26.1707 11.9172 27.1721V17.8534H8.5305V14.0001H11.9172V11.0627C11.9172 7.72141 13.9065 5.87608 16.9532 5.87608C18.4118 5.87608 19.9372 6.13608 19.9372 6.13608V9.41608H18.2572C16.5998 9.41608 16.0838 10.4441 16.0838 11.4987V14.0001H19.7812L19.1905 17.8534H16.0838V27.1721C22.4572 26.1721 27.3332 20.6534 27.3332 14.0001C27.3332 6.63608 21.3638 0.666748 13.9998 0.666748Z"></path>
  </symbol>
  <symbol xmlns="http://www.w3.org/2000/svg" viewBox="0 0 25 24" id="usdt">
    <g clip-path="url(#clip0_116_984)">
      <path fill-rule="evenodd" clip-rule="evenodd" d="M12.6001 24C5.97235 24 0.600098 18.6278 0.600098 12C0.600098 5.37225 5.97235 0 12.6001 0C19.2278 0 24.6001 5.37225 24.6001 12C24.6001 18.6278 19.2278 24 12.6001 24ZM14.0416 10.3448V8.57025H18.1021V5.86425H7.04635V8.57025H11.1068V10.344C7.80685 10.4955 5.3251 11.1495 5.3251 11.9325C5.3251 12.7155 7.80685 13.3687 11.1068 13.521V19.2075H14.0416V13.5195C17.3363 13.368 19.8121 12.7148 19.8121 11.9325C19.8121 11.1502 17.3363 10.497 14.0416 10.3448ZM14.0416 13.0372V13.0358C13.9591 13.0417 13.5338 13.0673 12.5851 13.0673C11.8276 13.0673 11.2943 13.0448 11.1068 13.0358V13.038C8.19085 12.9098 6.01435 12.402 6.01435 11.7945C6.01435 11.1877 8.19085 10.68 11.1068 10.5495V12.5325C11.2973 12.546 11.8433 12.5782 12.5978 12.5782C13.5031 12.5782 13.9568 12.5408 14.0416 12.5333V10.551C16.9516 10.6807 19.1228 11.1885 19.1228 11.7945C19.1228 12.402 16.9516 12.9082 14.0416 13.0372Z"></path>
    </g>
    <defs>
      <clipPath id="clip0_116_984">
        <rect width="24" height="24" fill="white" transform="translate(0.600098)"></rect>
      </clipPath>
    </defs>
  </symbol>
  <symbol xmlns="http://www.w3.org/2000/svg" viewBox="0 0 16 24" id="ethereum">
    <path d="M15.0451 12.225L7.9248 16.575L0.799805 12.225L7.9248 0L15.0451 12.225ZM7.9248 17.9719L0.799805 13.6219L7.9248 24L15.0498 13.6219L7.9248 17.9719Z"></path>
  </symbol>
  <symbol xmlns="http://www.w3.org/2000/svg" viewBox="0 0 15 20" id="bitcoin">
    <path d="M4.24993 17.5V19.375C4.24993 19.582 4.41793 19.75 4.62493 19.75H6.12493C6.22439 19.75 6.31977 19.7105 6.39009 19.6402C6.46042 19.5698 6.49993 19.4745 6.49993 19.375V17.5H7.24993V19.375C7.24993 19.582 7.41793 19.75 7.62493 19.75H9.12493C9.22439 19.75 9.31977 19.7105 9.39009 19.6402C9.46042 19.5698 9.49993 19.4745 9.49993 19.375V17.5H9.62593C12.6139 17.5 14.7499 15.9505 14.7499 13.27C14.7499 11.017 13.2394 9.7855 11.4709 9.61V9.478C12.9259 9.115 13.9954 8.017 13.9954 6.193C13.9954 3.895 12.2704 2.5 9.63793 2.5H9.49993V0.625C9.49993 0.525544 9.46042 0.430161 9.39009 0.359835C9.31977 0.289509 9.22439 0.25 9.12493 0.25H7.62493C7.52547 0.25 7.43009 0.289509 7.35976 0.359835C7.28944 0.430161 7.24993 0.525544 7.24993 0.625V2.5H6.39043V0.625C6.39043 0.525544 6.35092 0.430161 6.28059 0.359835C6.21027 0.289509 6.11489 0.25 6.01543 0.25H4.62493C4.52547 0.25 4.43009 0.289509 4.35976 0.359835C4.28944 0.430161 4.24993 0.525544 4.24993 0.625V2.5L1.25293 2.5165C1.15347 2.5165 1.05809 2.55601 0.987764 2.62633C0.917438 2.69666 0.87793 2.79204 0.87793 2.8915V4.375C0.87793 4.5805 1.04293 4.75 1.24993 4.75L2.38243 4.7425C2.6795 4.74448 2.96372 4.86388 3.17308 5.07464C3.38244 5.28541 3.49994 5.57043 3.49993 5.8675V14.125C3.49993 14.4234 3.3814 14.7095 3.17042 14.9205C2.95945 15.1315 2.6733 15.25 2.37493 15.25L1.25293 15.2665C1.15347 15.2665 1.05809 15.306 0.987764 15.3763C0.917438 15.4467 0.87793 15.542 0.87793 15.6415V17.1415C0.87793 17.3485 1.04593 17.5165 1.25293 17.5165L4.24993 17.5ZM6.39043 4.7305H8.96893C10.3279 4.7305 11.1259 5.4775 11.1259 6.6985C11.1259 8.005 10.2634 8.7415 8.31043 8.7415H6.39043V4.7305ZM6.39043 10.807H9.15043C10.8559 10.807 11.7844 11.677 11.7844 13.093C11.7844 14.5225 10.8454 15.268 8.54743 15.268H6.39043V10.8085V10.807Z"></path>
  </symbol>
  <symbol  xmlns="http://www.w3.org/2000/svg" viewBox="0 0 18 21" id="paypal">
    <path d="M17.2668 6.478C17.7588 7.358 17.8228 8.492 17.5668 9.805C16.8268 13.611 14.2908 14.925 11.0528 14.925H10.5528C10.3612 14.9253 10.176 14.9939 10.0304 15.1186C9.88488 15.2432 9.78857 15.4157 9.75882 15.605L9.71882 15.825L9.08882 19.818L9.05682 19.988C9.02704 20.1772 8.9307 20.3496 8.78514 20.474C8.63957 20.5985 8.45435 20.6669 8.26282 20.667H4.91982C4.85006 20.667 4.78113 20.6518 4.71778 20.6226C4.65443 20.5934 4.59815 20.5509 4.55282 20.4978C4.50749 20.4448 4.47419 20.3826 4.4552 20.3155C4.43621 20.2484 4.43199 20.1779 4.44282 20.109L4.61782 19H6.13582L7.08582 12.98H8.47082C13.1488 12.98 16.2208 10.777 17.2668 6.478ZM14.3068 1.388C15.0688 2.256 15.2898 3.198 15.0588 4.673C15.0398 4.796 15.0188 4.913 14.9968 5.033C14.2618 8.806 11.9078 10.479 8.04082 10.479H6.15682C5.52682 10.479 4.98282 10.893 4.80282 11.481L4.78882 11.479L3.85882 17.373H0.32082C0.313377 17.373 0.306031 17.3713 0.299297 17.3681C0.292563 17.365 0.286605 17.3604 0.28184 17.3547C0.277076 17.3489 0.27362 17.3422 0.271716 17.335C0.269812 17.3279 0.269507 17.3203 0.27082 17.313L2.86882 0.803C2.90385 0.579344 3.0176 0.375548 3.18957 0.228326C3.36154 0.0811038 3.58044 0.000132961 3.80682 0H9.78282C11.9658 0 13.4988 0.469 14.3058 1.388H14.3068Z"></path>
  </symbol>
  <symbol xmlns="http://www.w3.org/2000/svg" viewBox="0 0 23 18" id="card">
    <path d="M13.4335 0.25C14.8052 0.249995 15.8806 0.249992 16.745 0.320612C17.6251 0.392522 18.3522 0.541379 19.0103 0.876713C20.0923 1.42798 20.9719 2.30762 21.5232 3.38955C21.9253 4.17877 22.0642 5.08233 22.1164 6.25H0.683442C0.735617 5.08233 0.874492 4.17877 1.27662 3.38955C1.82789 2.30762 2.70753 1.42798 3.78946 0.876713C4.44759 0.541379 5.1747 0.392522 6.05484 0.320612C6.91919 0.249992 7.99462 0.249995 9.36634 0.25H13.4335Z"></path>
    <path fill-rule="evenodd" clip-rule="evenodd" d="M0.652176 7.75C0.649902 8.13407 0.649902 8.54797 0.649902 8.99421V9.03356C0.649898 10.4053 0.649894 11.4807 0.720514 12.3451C0.792425 13.2252 0.941281 13.9523 1.27662 14.6104C1.82789 15.6924 2.70753 16.572 3.78946 17.1233C4.44759 17.4586 5.1747 17.6075 6.05484 17.6794C6.91914 17.75 7.99451 17.75 9.36613 17.75H13.4335C14.8051 17.75 15.8807 17.75 16.745 17.6794C17.6251 17.6075 18.3522 17.4586 19.0103 17.1233C20.0923 16.572 20.9719 15.6924 21.5232 14.6104C21.8585 13.9523 22.0074 13.2252 22.0793 12.3451C22.1499 11.4808 22.1499 10.4054 22.1499 9.03377V8.9942C22.1499 8.54796 22.1499 8.13407 22.1476 7.75H0.652176ZM4.6499 14C4.6499 13.5858 4.98569 13.25 5.3999 13.25H7.3999C7.81412 13.25 8.1499 13.5858 8.1499 14C8.1499 14.4142 7.81412 14.75 7.3999 14.75H5.3999C4.98569 14.75 4.6499 14.4142 4.6499 14ZM9.6499 14C9.6499 13.5858 9.98569 13.25 10.3999 13.25H14.3999C14.8141 13.25 15.1499 13.5858 15.1499 14C15.1499 14.4142 14.8141 14.75 14.3999 14.75H10.3999C9.98569 14.75 9.6499 14.4142 9.6499 14Z"></path>
  </symbol>
</svg>