<svg width="105" height="43" viewBox="0 0 105 43" fill="none" xmlns="http://www.w3.org/2000/svg">
<path d="M42.9752 42.4754C42.9717 42.3958 42.9683 42.3128 42.9683 42.2332C42.9683 28.2373 42.9683 14.2415 42.9683 0.242143C42.9683 0.162582 42.9717 0.0795613 42.9752 0C43.138 0 43.2973 0 43.4601 0C43.4705 0.0588062 43.4912 0.121072 43.4912 0.179878C43.4912 14.2311 43.4912 28.2823 43.4912 42.3335C43.4912 42.3785 43.4912 42.4269 43.4912 42.4719C43.3215 42.4754 43.1484 42.4754 42.9752 42.4754Z" fill="#D9D9E3"/>
<path d="M105 21.8965C104.972 22.0591 104.955 22.2286 104.913 22.3877C104.55 23.7783 103.615 24.6085 102.271 24.9994C101.872 25.1136 101.443 25.1655 101.024 25.1724C99.8428 25.1966 98.6583 25.1793 97.4738 25.1793C97.4357 25.1793 97.3941 25.1758 97.3491 25.1724C97.3491 25.1101 97.3491 25.0548 97.3491 24.9925C97.5223 24.9752 97.6955 24.9718 97.8617 24.9441C98.2185 24.8818 98.3674 24.7089 98.3882 24.3456C98.3986 24.1658 98.3951 23.9893 98.3951 23.8095C98.3951 22.4777 98.3986 21.1459 98.3916 19.8141C98.3916 19.6377 98.3778 19.4578 98.3431 19.2814C98.2981 19.0462 98.1388 18.9113 97.8998 18.8871C97.7232 18.8698 97.5431 18.8594 97.3526 18.8455C97.3526 18.7902 97.3526 18.7314 97.3526 18.6587C97.6089 18.6484 97.8583 18.6311 98.1111 18.6276C99.1432 18.6103 100.175 18.5688 101.207 18.5861C102.105 18.5999 102.974 18.7867 103.736 19.3056C104.463 19.8003 104.882 20.4852 104.965 21.3707C104.969 21.4192 104.986 21.4711 104.997 21.5195C105 21.644 105 21.772 105 21.8965ZM99.3233 18.8006C99.3233 18.8836 99.3233 18.9389 99.3233 18.9977C99.3233 20.7723 99.3233 22.5469 99.3233 24.3214C99.3233 24.3906 99.3233 24.4598 99.3302 24.529C99.3649 24.8023 99.4688 24.9337 99.7459 24.9475C100.21 24.9648 100.678 24.9683 101.145 24.9372C102.008 24.8853 102.738 24.5497 103.279 23.8544C103.829 23.1453 104.016 22.3393 103.923 21.4641C103.805 20.3676 103.286 19.5305 102.233 19.1154C101.817 18.9493 101.356 18.8594 100.91 18.8144C100.387 18.7591 99.8602 18.8006 99.3233 18.8006Z" fill="#D9D9E3"/>
<path d="M0 20.9282C0.0277081 20.8002 0.0519528 20.6687 0.086588 20.5407C0.419086 19.247 1.63478 18.2784 2.9717 18.2231C4.20125 18.1712 5.19181 18.6105 5.90876 19.6171C6.19623 20.0219 6.31399 20.3885 6.4179 21.0804C7.56432 21.0216 8.71421 20.9628 9.8641 20.904C11.0105 20.8452 12.1569 20.7898 13.3172 20.7345C13.3172 21.0665 13.3172 21.3986 13.3172 21.7515C11.0209 21.6373 8.72114 21.5197 6.42829 21.4055C6.37634 21.6442 6.34517 21.8691 6.28282 22.0801C5.87759 23.4084 4.5857 24.3043 3.13795 24.2663C1.71098 24.2282 0.50221 23.3531 0.121223 22.0697C0.0692704 21.9002 0.0415622 21.7238 0 21.5508C0 21.3433 0 21.1357 0 20.9282ZM3.33537 23.8131C3.47737 23.7889 3.75099 23.7647 4.00729 23.6921C5.90183 23.149 6.54605 20.8867 5.20567 19.5134C4.15969 18.441 2.39675 18.3961 1.29882 19.42C0.308253 20.3436 0.214738 21.8137 1.09101 22.8446C1.64171 23.4914 2.36212 23.7924 3.33537 23.8131Z" fill="#D9D9E3"/>
<path d="M61.7682 6.74195C61.7682 6.83188 61.7682 6.90107 61.7682 6.96679C61.7682 12.3043 61.7682 17.6419 61.7717 22.9794C61.7717 23.225 61.7924 23.474 61.8167 23.7197C61.8617 24.1486 62.1042 24.4357 62.4955 24.6052C62.9146 24.7851 63.3649 24.8301 63.8117 24.875C64.1684 24.9096 64.5252 24.9269 64.9061 24.9546C64.8923 25.214 64.8784 25.47 64.8646 25.7225C61.8271 25.7225 58.8 25.7225 55.7521 25.7225C55.7313 25.4908 55.707 25.2486 55.6863 24.9995C56.0846 24.958 56.469 24.9234 56.8535 24.875C57.0647 24.8473 57.276 24.8128 57.4838 24.7609C58.2493 24.5706 58.6233 24.1382 58.703 23.3426C58.7376 22.9759 58.7619 22.6058 58.7619 22.2391C58.7653 17.161 58.7653 12.0829 58.7653 7.00484C58.7653 6.92528 58.7653 6.84572 58.7653 6.75578C58.7064 6.74886 58.6614 6.74195 58.6164 6.74195C57.6882 6.74541 56.7565 6.73503 55.8283 6.75232C55.1806 6.76616 54.5398 6.8388 53.9337 7.09478C53.1787 7.41303 52.7146 8.00109 52.479 8.75865C52.2782 9.40552 52.15 10.0731 51.9872 10.7339C51.9803 10.7546 51.9768 10.7788 51.9734 10.7892C51.6651 10.7892 51.3603 10.7892 51.0832 10.7892C51.0278 9.06306 50.9724 7.3646 50.917 5.66614C57.1548 5.66614 63.4307 5.66614 69.6893 5.66614C69.5992 7.35768 69.5092 9.05269 69.4156 10.7788C69.1628 10.7892 68.8649 10.8065 68.5428 10.8203C68.5186 10.7062 68.4978 10.592 68.4701 10.4779C68.3454 9.94516 68.2346 9.40898 68.0891 8.88319C67.7358 7.61366 66.87 6.92874 65.5711 6.82843C64.7053 6.75924 63.8324 6.76616 62.9596 6.7454C62.5717 6.73157 62.1838 6.74195 61.7682 6.74195Z" fill="#D9D9E3"/>
<path d="M71.8714 18.6657C71.8714 18.7349 71.8714 18.7833 71.8714 18.8456C71.7467 18.8594 71.629 18.8698 71.5112 18.8836C71.1718 18.9182 70.9259 19.0843 70.7873 19.3991C70.5588 19.9145 70.3371 20.4334 70.1154 20.9522C70.0946 21.0041 70.0877 21.0802 70.1085 21.1287C70.5657 22.1664 71.0263 23.2007 71.4904 24.2385C71.4974 24.2523 71.5112 24.2627 71.5355 24.2869C71.7363 23.7888 71.9338 23.301 72.1312 22.8133C72.5641 21.734 73.0005 20.6582 73.4335 19.5789C73.4438 19.5513 73.4542 19.527 73.4646 19.4994C73.6274 19.0912 73.5512 18.9597 73.1148 18.8975C72.9901 18.8802 72.862 18.8698 72.7269 18.856C72.7269 18.7937 72.7269 18.7349 72.7269 18.6657C73.4854 18.6657 74.2335 18.6657 74.9955 18.6657C74.999 18.7211 75.0059 18.7764 75.0128 18.8456C74.9158 18.8594 74.8258 18.8733 74.7357 18.8836C74.4171 18.9148 74.1746 19.0635 74.05 19.3645C73.7902 19.9802 73.5304 20.5959 73.2811 21.2117C72.7442 22.5331 72.2108 23.858 71.6844 25.1828C71.629 25.3212 71.5562 25.3419 71.4212 25.3592C71.151 25.3938 71.0333 25.2797 70.9328 25.0375C70.5414 24.1208 70.1224 23.218 69.7137 22.3117C69.6894 22.2563 69.6617 22.201 69.6236 22.1214C69.3812 22.6853 69.1491 23.2215 68.9171 23.7611C68.7058 24.2488 68.4945 24.7331 68.2902 25.2209C68.2486 25.3212 68.1967 25.3558 68.0858 25.3558C67.6875 25.3523 67.6875 25.3592 67.5386 24.9891C66.8286 23.2699 66.1185 21.5541 65.412 19.8349C65.3808 19.7588 65.3462 19.6896 65.315 19.6135C65.1176 19.1016 64.7401 18.856 64.1928 18.8629C64.1374 18.8629 64.082 18.856 64.0162 18.8525C64.0127 18.8145 64.0093 18.7868 64.0093 18.7591C64.0093 18.7314 64.0162 18.7038 64.0231 18.6692C64.9721 18.6692 65.9177 18.6692 66.8701 18.6692C66.8701 18.7314 66.8701 18.7868 66.8701 18.849C66.7316 18.8629 66.5931 18.8663 66.458 18.8871C66.1359 18.939 66.0216 19.1223 66.1324 19.4302C66.2398 19.7277 66.3714 20.0148 66.4926 20.3088C67.026 21.5818 67.5628 22.8548 68.0962 24.1278C68.117 24.1797 68.1447 24.2281 68.1759 24.2973C68.207 24.235 68.2313 24.19 68.2521 24.1451C68.6088 23.3149 68.9655 22.4847 69.3119 21.651C69.3431 21.5783 69.3431 21.4711 69.3119 21.3985C69.0591 20.7931 68.7751 20.2016 68.5361 19.5893C68.3456 19.105 68.0235 18.856 67.5005 18.8629C67.4555 18.8629 67.4104 18.856 67.3619 18.8525C67.3585 18.8525 67.3516 18.8456 67.3377 18.8352C67.3377 18.7868 67.3377 18.7314 67.3377 18.6692C68.8478 18.6657 70.3509 18.6657 71.8714 18.6657ZM69.8141 20.461C70.0046 20.0079 70.1812 19.6101 70.344 19.2053C70.4202 19.0151 70.344 18.8906 70.1466 18.8733C69.9076 18.856 69.6617 18.856 69.4227 18.8802C69.2322 18.8975 69.1699 19.0116 69.2426 19.188C69.4193 19.5997 69.6098 20.0044 69.8141 20.461Z" fill="#D9D9E3"/>
<path d="M79.6437 22.1284C80.3295 22.7649 81.0187 23.4013 81.7114 24.0378C81.8881 24.2004 82.0751 24.3595 82.2725 24.5014C82.7574 24.8542 82.9791 24.9338 83.8935 25.124C83.8935 25.1724 83.8935 25.2278 83.8935 25.2728C83.5021 25.2728 83.1107 25.2901 82.7228 25.2693C81.8638 25.2209 81.2196 24.7401 80.617 24.1831C80.1252 23.73 79.6299 23.2803 79.145 22.8202C78.8437 22.5331 78.5181 22.3636 78.0782 22.4397C77.8323 22.4812 77.576 22.4466 77.3093 22.4466C77.3059 22.4847 77.2989 22.5296 77.2989 22.5746C77.2989 23.1211 77.2955 23.6712 77.2989 24.2177C77.2989 24.3249 77.3128 24.4356 77.337 24.5429C77.3924 24.7712 77.5414 24.9165 77.7769 24.9476C77.9882 24.9753 78.1994 24.9822 78.4211 25.0029C78.4211 25.0583 78.4211 25.1136 78.4211 25.1794C77.382 25.1794 76.3465 25.1794 75.3005 25.1794C75.3005 25.1206 75.3005 25.0652 75.3005 24.9822C75.4252 24.9822 75.5498 24.9891 75.6745 24.9822C76.1421 24.9511 76.3361 24.7504 76.3603 24.2869C76.3638 24.1935 76.3638 24.1036 76.3638 24.0102C76.3638 22.6161 76.3638 21.2186 76.3638 19.8245C76.3638 19.6654 76.3499 19.5028 76.3257 19.3437C76.2841 19.0843 76.1179 18.939 75.8616 18.9009C75.6815 18.8767 75.4944 18.8698 75.297 18.8525C75.2935 18.8041 75.2901 18.7487 75.2866 18.6865C75.3213 18.6761 75.3455 18.6657 75.3732 18.6623C76.388 18.6346 77.4028 18.5965 78.4176 18.5862C78.951 18.5827 79.474 18.6761 79.9658 18.8975C80.4646 19.1223 80.856 19.4579 80.998 20.0113C81.1954 20.7724 80.8733 21.4919 80.1563 21.8966C79.9901 21.9831 79.8065 22.0523 79.6437 22.1284ZM77.2989 22.2252C77.8046 22.2564 78.3033 22.2806 78.7986 22.156C79.4809 21.9831 79.8862 21.5576 79.9797 20.8554C80.0074 20.6513 80.0074 20.4403 79.9901 20.2362C79.9416 19.7104 79.7095 19.2884 79.2281 19.0393C78.6185 18.728 77.9605 18.766 77.2989 18.7902C77.2989 19.9422 77.2989 21.0733 77.2989 22.2252Z" fill="#D9D9E3"/>
<path d="M84.2362 18.8596C84.2362 18.7869 84.2362 18.735 84.2362 18.6693C86.0061 18.6693 87.7656 18.6693 89.5527 18.6693C89.5839 19.1398 89.6151 19.6137 89.6428 20.0945C89.5077 20.1498 89.4488 20.1256 89.4107 19.9769C89.3553 19.7624 89.2757 19.5479 89.1752 19.3508C89.0678 19.1432 88.867 19.0394 88.6314 19.0394C87.8799 19.036 87.1317 19.0394 86.3802 19.0394C86.3594 19.0394 86.3351 19.0464 86.3005 19.0533C86.3005 19.9008 86.3005 20.7448 86.3005 21.62C86.3559 21.62 86.4183 21.62 86.4771 21.62C87.0313 21.62 87.5855 21.62 88.1396 21.62C88.6557 21.62 88.8289 21.4643 88.8947 20.9489C88.8981 20.9143 88.9051 20.8832 88.9085 20.8382C88.9743 20.8382 89.0367 20.8382 89.1094 20.8382C89.1094 21.492 89.1094 22.1458 89.1094 22.8134C89.0471 22.8134 88.9847 22.8134 88.9155 22.8134C88.8877 22.6889 88.86 22.5609 88.8323 22.4329C88.7769 22.1735 88.6003 22.0178 88.3509 22.0109C87.672 21.9936 86.9932 22.004 86.3005 22.004C86.297 22.0351 86.2901 22.0628 86.2901 22.0905C86.2901 22.8169 86.2866 23.5433 86.2901 24.2697C86.2936 24.6503 86.4356 24.7921 86.82 24.7955C87.4365 24.8025 88.0565 24.8059 88.673 24.7955C89.1544 24.7886 89.5112 24.5742 89.6913 24.1106C89.7363 23.993 89.7952 23.8789 89.8264 23.7543C89.861 23.616 89.9372 23.5987 90.0688 23.6367C90.0134 24.1452 89.958 24.6503 89.8991 25.1691C87.9387 25.1691 85.9853 25.1691 84.0215 25.1691C84.0215 25.1103 84.0215 25.0515 84.0215 24.9927C84.2639 24.9789 84.4995 24.9754 84.7315 24.9443C85.1852 24.882 85.3446 24.7056 85.3549 24.249C85.3653 23.8235 85.3584 23.3946 85.3584 22.9691C85.3584 21.9071 85.3584 20.8486 85.3584 19.7866C85.3584 19.0533 85.1679 18.863 84.4371 18.8596C84.3817 18.8596 84.3194 18.8596 84.2362 18.8596Z" fill="#D9D9E3"/>
<path d="M95.5237 20.8382C95.5999 20.8382 95.6588 20.8382 95.7281 20.8382C95.7281 21.5024 95.7281 22.1562 95.7281 22.8169C95.6553 22.8169 95.5964 22.8169 95.5341 22.8169C95.5064 22.6854 95.4856 22.5609 95.451 22.4398C95.3713 22.1562 95.2259 22.0143 94.9384 22.0074C94.2699 21.9936 93.6015 22.004 92.9191 22.004C92.9157 22.0559 92.9087 22.1043 92.9087 22.1562C92.9087 22.8411 92.9053 23.5295 92.9087 24.2144C92.9087 24.6641 93.0473 24.8025 93.501 24.8025C94.0621 24.8059 94.6197 24.8059 95.1808 24.8025C95.8181 24.8025 96.1125 24.5984 96.355 24.0068C96.3861 23.9273 96.4277 23.8477 96.445 23.7647C96.4727 23.6333 96.5454 23.5952 96.6909 23.6402C96.6355 24.1452 96.5766 24.6572 96.5212 25.176C94.5574 25.176 92.6005 25.176 90.6401 25.176C90.6401 25.1103 90.6401 25.055 90.6401 24.9962C90.8722 24.9823 91.1042 24.9823 91.3294 24.9512C91.8212 24.882 91.9736 24.7091 91.9805 24.2075C91.9874 23.5675 91.984 22.9276 91.984 22.2876C91.984 21.4505 91.984 20.6168 91.984 19.7797C91.984 19.0602 91.79 18.8665 91.0696 18.863C91.0003 18.863 90.9345 18.863 90.8583 18.863C90.8583 18.7904 90.8583 18.735 90.8583 18.6693C92.6317 18.6693 94.3946 18.6693 96.1714 18.6693C96.2026 19.1501 96.2303 19.624 96.2614 20.1014C96.1125 20.1568 96.0467 20.1153 96.0294 19.97C96.0155 19.8627 95.9809 19.7555 95.9463 19.6552C95.7835 19.1951 95.5687 19.0464 95.0838 19.0464C94.4258 19.0464 93.7677 19.0464 93.1096 19.0464C93.0473 19.0464 92.9849 19.0464 92.9157 19.0464C92.9157 19.9146 92.9157 20.7587 92.9157 21.6269C93.03 21.6269 93.1373 21.6269 93.2447 21.6269C93.7538 21.6269 94.2595 21.6269 94.7687 21.6269C95.2674 21.6269 95.4441 21.4713 95.5099 20.9801C95.5133 20.9351 95.5168 20.8936 95.5237 20.8382Z" fill="#D9D9E3"/>
<path d="M95.9258 13.1414C95.3162 13.5634 94.7066 13.9854 94.0866 14.4144C94.3256 15.1166 94.5612 15.8153 94.8071 16.5418C94.1628 16.1025 93.5429 15.6804 92.9194 15.2515C92.2891 15.6804 91.6657 16.1059 91.0041 16.5556C91.1808 16.0367 91.3435 15.5524 91.5063 15.0716C91.5583 14.9125 91.6068 14.7534 91.6691 14.5977C91.7107 14.4939 91.6899 14.4386 91.5964 14.3729C91.063 14.0097 90.5331 13.6395 90.0032 13.2728C89.9547 13.2417 89.9096 13.2071 89.8369 13.1518C89.9096 13.1449 89.9547 13.1379 90.0032 13.1379C90.6682 13.1345 91.3297 13.131 91.9947 13.131C92.1055 13.131 92.154 13.0964 92.1886 12.9927C92.393 12.3942 92.6008 11.7958 92.8086 11.2008C92.8259 11.1489 92.8467 11.1005 92.8813 11.0175C93.1065 11.6678 93.3281 12.2835 93.5325 12.9027C93.5844 13.0653 93.6606 13.1068 93.8234 13.1068C94.5196 13.0964 95.2192 13.1033 95.9154 13.1033C95.9189 13.1206 95.9223 13.131 95.9258 13.1414Z" fill="#D9D9E3"/>
<path d="M88.268 16.5383C87.6307 16.1025 87.0107 15.6804 86.3873 15.255C85.7569 15.6839 85.13 16.1128 84.4719 16.5591C84.6416 16.054 84.8044 15.5767 84.9638 15.1028C85.0192 14.9333 85.0711 14.7603 85.1369 14.5977C85.182 14.487 85.1508 14.4351 85.0607 14.3729C84.4789 13.9751 83.9039 13.5738 83.3013 13.1552C83.3671 13.1483 83.4086 13.1414 83.4502 13.1414C84.1013 13.1379 84.7559 13.1276 85.4071 13.1379C85.5733 13.1414 85.6322 13.0791 85.6807 12.9338C85.8781 12.3389 86.0894 11.7473 86.2972 11.1558C86.3111 11.1178 86.3249 11.0832 86.3492 11.0175C86.5951 11.7231 86.8341 12.408 87.0765 13.1033C87.8523 13.1033 88.6247 13.1033 89.4386 13.1033C89.3694 13.1552 89.3313 13.1864 89.2932 13.214C88.7563 13.5842 88.2229 13.9578 87.6861 14.3244C87.5856 14.3936 87.5683 14.449 87.6099 14.5631C87.8177 15.1616 88.0186 15.76 88.2195 16.3619C88.2299 16.4138 88.2472 16.4657 88.268 16.5383Z" fill="#D9D9E3"/>
<path d="M98.5718 13.1484C98.8211 12.4358 99.0601 11.7439 99.313 11.0279C99.3372 11.0763 99.3476 11.0971 99.358 11.1213C99.5727 11.7405 99.7909 12.3597 100.002 12.9789C100.037 13.0792 100.082 13.1103 100.186 13.1103C100.844 13.1069 101.502 13.1103 102.16 13.1103C102.226 13.1103 102.295 13.1103 102.413 13.1103C101.765 13.56 101.156 13.982 100.532 14.4144C100.768 15.1132 101.007 15.8154 101.253 16.5418C100.608 16.1025 99.9918 15.6805 99.3649 15.255C98.738 15.684 98.1111 16.1094 97.4496 16.5591C97.6297 16.0333 97.7925 15.5456 97.9587 15.0544C98.0107 14.9022 98.0557 14.7465 98.118 14.5978C98.1631 14.4905 98.1354 14.4386 98.0418 14.3729C97.5119 14.0132 96.9889 13.6465 96.4625 13.2833C96.4105 13.2487 96.362 13.2106 96.272 13.1484C97.0582 13.1484 97.8063 13.1484 98.5718 13.1484Z" fill="#D9D9E3"/>
<path d="M76.0659 15.9988C76.1179 15.9054 76.1421 15.8535 76.1767 15.7912C76.911 16.1026 77.6176 16.0368 78.2687 15.5975C78.7952 15.2412 79.2454 14.8088 79.4602 14.1447C79.3251 14.1654 79.2212 14.1966 79.1173 14.1966C78.8125 14.2 78.5008 14.2381 78.2064 14.1827C77.4721 14.0513 77.1396 13.4701 77.3509 12.7541C77.4721 12.3494 77.7215 12.0415 78.0748 11.8201C78.4696 11.571 78.8575 11.6091 79.1935 11.9377C79.5225 12.2594 79.6922 12.6676 79.7823 13.1069C79.8446 13.4217 79.8654 13.7434 79.9035 14.0651C80.184 14.0651 80.4854 14.0824 80.7867 14.0582C80.9668 14.0444 81.1469 13.9855 81.3166 13.9198C81.5244 13.8403 81.566 13.7607 81.4829 13.5566C81.3339 13.183 81.1677 12.8163 80.9876 12.4566C80.9218 12.3251 80.9148 12.2317 81.0014 12.1141C81.1261 11.9516 81.2404 11.7821 81.3824 11.5814C81.7461 12.2836 82.1513 12.9478 81.9608 13.733C81.7634 14.5529 81.4101 14.7327 80.7486 14.7985C80.4126 14.833 80.0698 14.833 79.7165 14.8503C79.5468 15.2966 79.2627 15.6875 78.9129 16.0299C78.5493 16.3862 78.1267 16.5938 77.6037 16.5211C77.389 16.4935 77.1673 16.4589 76.963 16.3862C76.6651 16.2824 76.3776 16.1372 76.0659 15.9988ZM79.4013 13.4494C79.3112 13.1242 79.1762 12.8371 78.9268 12.6157C78.674 12.3909 78.3518 12.3321 78.0817 12.4704C77.8912 12.5707 77.6868 12.6849 77.6868 12.927C77.6868 13.1761 77.8912 13.3006 78.0955 13.394C78.5181 13.5843 78.9545 13.5428 79.4013 13.4494Z" fill="#D9D9E3"/>
<path d="M87.7031 34.9309C87.4849 34.9309 87.2909 34.9309 87.0762 34.9309C86.9584 34.284 86.8407 33.6372 86.716 32.9384C86.6779 33.0214 86.6606 33.0629 86.6433 33.1045C86.4424 33.6683 86.238 34.2287 86.0406 34.796C86.006 34.8963 85.9644 34.9413 85.8501 34.9413C85.4172 34.9378 85.4172 34.9448 85.2752 34.5366C85.1089 34.0696 84.9461 33.6026 84.7799 33.139C84.7626 33.0872 84.7418 33.0387 84.6864 32.9903C84.5686 33.6372 84.4474 34.284 84.3262 34.9309C84.1149 34.9309 83.914 34.9309 83.6958 34.9309C83.7616 34.5712 83.8205 34.2218 83.8863 33.8724C84.0075 33.2048 84.1357 32.5371 84.2534 31.8695C84.2742 31.7554 84.3088 31.7173 84.4266 31.7173C84.9184 31.7173 84.9184 31.7138 85.0812 32.1808C85.2821 32.7551 85.4864 33.3293 85.7012 33.945C85.7358 33.8586 85.7601 33.8067 85.7808 33.7513C86.006 33.1217 86.2311 32.4956 86.4493 31.8661C86.4874 31.7588 86.5359 31.7069 86.6571 31.7173C86.8095 31.7311 86.9654 31.7208 87.1316 31.7208C87.3221 32.7931 87.5126 33.8551 87.7031 34.9309Z" fill="#D9D9E3"/>
<path d="M70.5102 40.3238C69.9491 40.3687 69.9491 40.3687 69.769 39.8568C69.6131 39.4175 69.4573 38.9782 69.3014 38.5388C69.2841 38.487 69.2633 38.4351 69.2079 38.3832C69.0901 39.0266 68.9689 39.6735 68.8477 40.3238C68.6399 40.3238 68.439 40.3238 68.2139 40.3238C68.4113 39.2514 68.6052 38.186 68.7992 37.1275C68.8338 37.1206 68.8512 37.1171 68.8685 37.1171C69.052 37.1171 69.2772 37.0583 69.4088 37.1413C69.53 37.2174 69.5508 37.4527 69.6097 37.6187C69.8106 38.1791 70.008 38.7429 70.2193 39.3448C70.2539 39.248 70.2781 39.1926 70.2989 39.1338C70.5206 38.5112 70.7457 37.8885 70.9605 37.2624C71.002 37.1448 71.0574 37.0998 71.1821 37.1102C71.3311 37.1206 71.48 37.1137 71.6462 37.1137C71.8367 38.1826 72.0272 39.248 72.2212 40.3203C72.0065 40.3203 71.8056 40.3203 71.5943 40.3203C71.4765 39.6665 71.3588 39.0197 71.241 38.3693C71.2306 38.3693 71.2202 38.3693 71.2098 38.3659C70.9778 39.0231 70.7423 39.6769 70.5102 40.3238Z" fill="#D9D9E3"/>
<path d="M60.0298 31.7278C60.248 31.7278 60.4524 31.7278 60.6706 31.7278C60.4143 32.8001 60.158 33.8621 59.9017 34.9379C59.7181 34.9379 59.5415 34.9483 59.3648 34.931C59.3163 34.9275 59.254 34.848 59.2367 34.7926C59.0566 34.2115 58.8799 33.6269 58.7067 33.0423C58.6929 33.0008 58.6756 32.9592 58.6479 32.8831C58.4401 33.5854 58.2392 34.2564 58.0383 34.931C57.8305 34.931 57.6296 34.931 57.4183 34.931C57.162 33.8656 56.9092 32.8036 56.6494 31.7208C56.8468 31.7208 57.0304 31.7139 57.2105 31.7278C57.2486 31.7312 57.304 31.8004 57.3144 31.8488C57.4564 32.4196 57.5915 32.9904 57.73 33.5611C57.7404 33.6096 57.7577 33.658 57.782 33.7549C57.924 33.2809 58.0521 32.8485 58.1803 32.4161C58.2392 32.2224 58.2911 32.0287 58.3569 31.8385C58.3742 31.7935 58.4331 31.7347 58.4747 31.7312C58.6236 31.7174 58.7726 31.7278 58.9284 31.7278C59.1293 32.3954 59.3302 33.0526 59.5276 33.7133C59.538 33.7133 59.5484 33.7099 59.5588 33.7099C59.7146 33.0492 59.8705 32.3954 60.0298 31.7278Z" fill="#D9D9E3"/>
<path d="M60.9441 40.5763C60.6878 40.5763 60.4696 40.5936 60.2618 40.5693C60.1752 40.559 60.0817 40.4656 60.0194 40.386C59.9224 40.2615 59.8462 40.2269 59.68 40.2891C58.724 40.6524 57.6399 40.1577 57.3352 39.2341C57.0373 38.3278 57.5741 37.38 58.5335 37.1171C59.5172 36.8473 60.5285 37.4076 60.7502 38.352C60.8679 38.8605 60.7744 39.3344 60.4454 39.753C60.4177 39.7876 60.39 39.8256 60.3588 39.8671C60.5493 40.092 60.7329 40.3168 60.9441 40.5763ZM59.4652 39.7218C59.2643 39.4728 59.0738 39.241 58.8626 38.985C59.008 38.985 59.1119 38.9989 59.2158 38.9816C59.5102 38.9401 59.7458 39.0127 59.8912 39.286C59.9016 39.3067 59.9328 39.3171 59.9536 39.3344C60.2653 38.8743 60.196 38.2932 59.7977 37.93C59.3856 37.5529 58.7344 37.5356 58.3049 37.8816C57.9032 38.2067 57.7889 38.8294 58.0521 39.2756C58.3257 39.7322 58.9388 39.9329 59.4652 39.7218Z" fill="#D9D9E3"/>
<path d="M75.2344 37.1171C75.4249 37.1171 75.6084 37.1067 75.7885 37.124C75.8405 37.1275 75.8994 37.1932 75.9375 37.2451C76.3531 37.8401 76.7618 38.4385 77.1739 39.0369C77.2051 39.0819 77.2397 39.1234 77.3055 39.2099C77.3055 38.4835 77.3055 37.8089 77.3055 37.1275C77.5307 37.1275 77.735 37.1275 77.9498 37.1275C77.9498 38.1929 77.9498 39.2514 77.9498 40.3341C77.7627 40.3341 77.5757 40.341 77.3887 40.3272C77.3402 40.3238 77.2882 40.2615 77.2536 40.2131C76.838 39.6181 76.4258 39.0196 76.0137 38.4247C75.979 38.3762 75.9409 38.3278 75.8786 38.2413C75.8786 38.9643 75.8786 39.6423 75.8786 40.3238C75.6569 40.3238 75.4526 40.3238 75.2344 40.3238C75.2344 39.2583 75.2344 38.1964 75.2344 37.1171Z" fill="#D9D9E3"/>
<path d="M100.22 37.1275C100.22 38.1964 100.22 39.2514 100.22 40.3307C100.026 40.3307 99.8359 40.3376 99.6489 40.3238C99.6004 40.3203 99.5519 40.2546 99.5173 40.2061C99.1051 39.6146 98.6964 39.0231 98.2877 38.4316C98.2531 38.3797 98.215 38.3313 98.1527 38.2448C98.1527 38.9574 98.1527 39.6319 98.1527 40.3203C97.9275 40.3203 97.7162 40.3203 97.498 40.3203C97.498 39.2583 97.498 38.1998 97.498 37.1171C97.692 37.1171 97.886 37.1102 98.0799 37.124C98.1215 37.1275 98.1665 37.1897 98.1977 37.2347C98.6098 37.8297 99.022 38.4281 99.4342 39.0266C99.4653 39.075 99.5 39.12 99.5623 39.203C99.5623 38.4869 99.5623 37.8158 99.5623 37.1309C99.7909 37.1275 99.9953 37.1275 100.22 37.1275Z" fill="#D9D9E3"/>
<path d="M104.176 37.6465C104.02 37.7883 103.878 37.9197 103.725 38.0616C103.67 38.0166 103.618 37.9751 103.563 37.9336C103.185 37.643 102.766 37.5565 102.309 37.6949C101.81 37.8471 101.512 38.2657 101.533 38.7707C101.554 39.2411 101.924 39.6632 102.416 39.7739C102.676 39.8327 102.932 39.8292 103.185 39.7427C103.4 39.6666 103.556 39.5248 103.68 39.3034C103.348 39.3034 103.04 39.3034 102.718 39.3034C102.718 39.1028 102.718 38.916 102.718 38.7188C103.279 38.7188 103.84 38.7188 104.415 38.7188C104.442 39.3207 104.203 39.7877 103.719 40.1232C103.022 40.6041 101.883 40.4657 101.318 39.8396C100.892 39.3657 100.754 38.8053 100.958 38.2034C101.169 37.5807 101.637 37.2106 102.278 37.0895C102.877 36.9754 103.448 37.0653 103.947 37.4493C104.027 37.5081 104.096 37.5773 104.176 37.6465Z" fill="#D9D9E3"/>
<path d="M77.451 35.0069C76.5089 35.0035 75.7816 34.3704 75.6881 33.471C75.6049 32.672 76.1487 31.9317 76.9869 31.7103C77.9255 31.4612 78.9161 31.9974 79.162 32.8795C79.4668 33.9795 78.639 35.0104 77.451 35.0069ZM77.4614 34.4154C78.0813 34.4154 78.5697 33.938 78.5732 33.3327C78.5732 32.7238 78.0779 32.2396 77.451 32.2396C76.8172 32.2396 76.3392 32.7065 76.3357 33.3327C76.3288 33.9415 76.8241 34.4188 77.4614 34.4154Z" fill="#D9D9E3"/>
<path d="M68.9272 34.9067C68.9272 33.8586 68.9272 32.8001 68.9272 31.7208C69.516 31.7381 70.1118 31.6447 70.6763 31.8488C71.2582 32.0598 71.5283 32.5268 71.6114 33.1149C71.6565 33.4435 71.6322 33.7721 71.4867 34.08C71.2616 34.5677 70.8945 34.8791 70.3473 34.9033C69.8832 34.9275 69.4156 34.9067 68.9272 34.9067ZM69.5818 34.3533C70.0459 34.3256 70.5516 34.4536 70.8287 33.9416C71.0504 33.5334 71.0469 33.101 70.7871 32.7101C70.4997 32.2777 70.0356 32.3123 69.5818 32.3089C69.5818 32.9938 69.5818 33.6614 69.5818 34.3533Z" fill="#D9D9E3"/>
<path d="M92.8291 37.0999C93.3036 37.1206 93.7677 37.1102 94.2249 37.1621C94.9419 37.2417 95.4614 37.8055 95.5064 38.5285C95.5238 38.7845 95.5065 39.0508 95.4406 39.2964C95.2848 39.8914 94.838 40.2477 94.2249 40.3031C94.0067 40.3238 93.7885 40.3273 93.5668 40.3307C93.3244 40.3342 93.0819 40.3307 92.8291 40.3307C92.8291 39.2619 92.8291 38.1999 92.8291 37.0999ZM93.4837 37.7191C93.4837 38.4005 93.4837 39.0716 93.4837 39.7392C94.405 39.798 94.8657 39.6147 94.8588 38.7188C94.8553 37.9785 94.3565 37.6257 93.4837 37.7191Z" fill="#D9D9E3"/>
<path d="M61.2593 31.7519C61.6715 31.7519 62.0698 31.7311 62.4646 31.7588C62.9114 31.7899 63.192 32.0701 63.2612 32.4887C63.334 32.9211 63.1504 33.2532 62.7313 33.4503C62.7001 33.4642 62.6724 33.4815 62.6343 33.5022C62.8976 33.9761 63.1539 34.4431 63.4275 34.9378C63.192 34.9378 62.9807 34.9447 62.7729 34.9343C62.7313 34.9309 62.6828 34.8721 62.6586 34.8271C62.4473 34.45 62.2395 34.073 62.0282 33.6959C62.0005 33.6475 61.9693 33.6025 61.9035 33.5645C61.9035 34.0142 61.9035 34.4639 61.9035 34.9274C61.6784 34.9274 61.4741 34.9274 61.2559 34.9274C61.2593 33.8654 61.2593 32.8035 61.2593 31.7519ZM61.9001 32.9764C62.0767 32.9626 62.236 32.9522 62.3954 32.9349C62.5547 32.9142 62.6378 32.8104 62.6413 32.6513C62.6447 32.4887 62.5616 32.3711 62.3988 32.3434C62.2395 32.3157 62.0732 32.3157 61.9001 32.3019C61.9001 32.5336 61.9001 32.7377 61.9001 32.9764Z" fill="#D9D9E3"/>
<path d="M99.9639 33.4953C100.227 33.9692 100.483 34.4362 100.761 34.9343C100.522 34.9343 100.307 34.9412 100.092 34.9274C100.054 34.924 100.009 34.8548 99.9847 34.8098C99.7769 34.4397 99.569 34.0661 99.3647 33.6925C99.337 33.644 99.3058 33.5991 99.2365 33.5576C99.2365 34.0107 99.2365 34.4604 99.2365 34.924C99.0045 34.924 98.8001 34.924 98.5889 34.924C98.5889 33.8551 98.5889 32.7896 98.5889 31.7C99.0218 31.7172 99.4409 31.7172 99.86 31.7588C100.265 31.7968 100.535 32.0908 100.598 32.4921C100.66 32.9038 100.487 33.2358 100.12 33.4192C100.068 33.4434 100.023 33.4676 99.9639 33.4953ZM99.2296 32.9764C99.4097 32.9626 99.576 32.9522 99.7388 32.9314C99.8912 32.9107 99.9674 32.8069 99.9743 32.6582C99.9812 32.5094 99.9119 32.3849 99.7699 32.3537C99.5968 32.3157 99.4132 32.3157 99.2296 32.2984C99.2296 32.5371 99.2296 32.7377 99.2296 32.9764Z" fill="#D9D9E3"/>
<path d="M88.7767 40.3342C88.5446 40.3342 88.3437 40.3411 88.1428 40.3307C88.0943 40.3272 88.0355 40.2719 88.0078 40.2269C87.793 39.8533 87.5852 39.4728 87.3774 39.0958C87.3497 39.0473 87.3185 38.9989 87.2493 38.9609C87.2493 39.414 87.2493 39.8637 87.2493 40.3272C87.0172 40.3272 86.8128 40.3272 86.6016 40.3272C86.6016 39.2583 86.6016 38.1964 86.6016 37.1033C87.031 37.1206 87.4536 37.1206 87.8727 37.1621C88.2779 37.2001 88.5481 37.4942 88.6104 37.8954C88.6728 38.3071 88.4996 38.6392 88.1325 38.8225C88.0874 38.8467 88.0424 38.8675 87.9801 38.8951C88.2467 39.369 88.5065 39.8395 88.7767 40.3342ZM87.2527 37.6948C87.2527 37.9335 87.2527 38.1445 87.2527 38.3555C87.367 38.3555 87.4709 38.359 87.5748 38.3555C87.6268 38.352 87.6753 38.3417 87.7272 38.3313C87.8935 38.3071 87.9835 38.2102 87.9904 38.0442C87.9974 37.8885 87.9004 37.7605 87.7307 37.7328C87.5783 37.7086 87.4224 37.7086 87.2527 37.6948Z" fill="#D9D9E3"/>
<path d="M81.2993 33.4986C81.5626 33.9725 81.8189 34.4395 82.0925 34.9376C81.857 34.9376 81.6457 34.9445 81.4379 34.9342C81.3963 34.9307 81.3478 34.8719 81.3236 34.8269C81.1123 34.4499 80.9045 34.0728 80.6932 33.6958C80.6655 33.6474 80.6343 33.6024 80.5651 33.5643C80.5651 34.0175 80.5651 34.4706 80.5651 34.9307C80.3365 34.9307 80.1391 34.9307 79.9243 34.9307C79.9243 33.8687 79.9243 32.8068 79.9243 31.7206C80.3988 31.7379 80.8802 31.6652 81.3444 31.7967C81.6872 31.8935 81.8777 32.153 81.9228 32.5024C81.9678 32.8517 81.8777 33.1561 81.5626 33.3568C81.4864 33.4087 81.3963 33.4467 81.2993 33.4986ZM80.5685 32.2983C80.5685 32.5335 80.5685 32.7445 80.5685 32.9728C80.7417 32.959 80.8976 32.9521 81.0569 32.9313C81.2162 32.9105 81.3028 32.8068 81.3063 32.6511C81.3097 32.4885 81.2301 32.3675 81.0673 32.3398C80.908 32.3121 80.7417 32.3121 80.5685 32.2983Z" fill="#D9D9E3"/>
<path d="M98.0105 34.9378C97.8027 34.9378 97.6122 34.9447 97.4217 34.9344C97.3767 34.9309 97.3109 34.8825 97.2901 34.8375C97.2139 34.6749 97.1585 34.5054 97.0823 34.3463C97.0615 34.3013 96.9957 34.2564 96.9472 34.2529C96.5593 34.246 96.1749 34.246 95.7869 34.2529C95.7419 34.2529 95.6761 34.3048 95.6519 34.3463C95.5618 34.5366 95.4821 34.7372 95.399 34.9344C95.1739 34.9344 94.9557 34.9344 94.7236 34.9344C94.7444 34.8721 94.7617 34.8167 94.7825 34.7649C95.1739 33.7997 95.5687 32.8346 95.9567 31.8695C96.0017 31.7519 96.0606 31.7104 96.1852 31.7208C96.3584 31.7346 96.5697 31.6689 96.6909 31.7484C96.8121 31.828 96.8398 32.0459 96.9057 32.2051C97.252 33.0595 97.5984 33.9104 97.9447 34.7649C97.9655 34.8167 97.9863 34.8686 98.0105 34.9378ZM96.3723 32.5683C96.2164 32.9557 96.0779 33.2982 95.9393 33.6475C96.2407 33.6475 96.5143 33.6475 96.8052 33.6475C96.6632 33.2912 96.5247 32.9522 96.3723 32.5683Z" fill="#D9D9E3"/>
<path d="M91.0316 37.117C91.468 38.1893 91.8975 39.2513 92.3373 40.334C92.1226 40.334 91.9321 40.3375 91.7451 40.3306C91.7 40.3271 91.6585 40.2821 91.6204 40.2475C91.6065 40.2337 91.6031 40.206 91.5927 40.1853C91.513 40.0089 91.4819 39.7667 91.3433 39.6699C91.2152 39.5799 90.9762 39.6422 90.7857 39.6422C90.5675 39.6387 90.3458 39.6353 90.1276 39.6456C90.0722 39.6491 89.996 39.701 89.9683 39.7529C89.8921 39.8982 89.8263 40.0538 89.7709 40.2129C89.7362 40.3133 89.6808 40.3409 89.5804 40.3375C89.4072 40.3306 89.234 40.334 89.0366 40.334C89.0609 40.2683 89.0782 40.2164 89.099 40.1645C89.4938 39.196 89.8886 38.2274 90.2766 37.2554C90.3181 37.1481 90.3701 37.1031 90.4913 37.1101C90.6714 37.1239 90.8515 37.117 91.0316 37.117ZM90.6922 37.9645C90.5363 38.3485 90.3978 38.6909 90.2558 39.0437C90.5536 39.0437 90.8307 39.0437 91.1251 39.0437C90.9831 38.6909 90.848 38.3519 90.6922 37.9645Z" fill="#D9D9E3"/>
<path d="M65.7201 13.2695C65.8205 13.2695 65.8863 13.2695 65.9556 13.2695C65.9625 13.2937 65.9729 13.3076 65.9729 13.3249C66.063 13.9129 66.3227 14.1378 66.9219 14.1551C67.4242 14.1689 67.8744 14.0098 68.3074 13.7815C68.4286 13.7192 68.4459 13.6258 68.4217 13.5082C68.3558 13.1899 68.1896 12.9201 67.9783 12.678C67.6146 12.256 67.1644 11.9516 66.6726 11.699C66.3782 11.5468 66.3401 11.4673 66.4959 11.1732C66.7765 10.6509 66.6795 10.7166 67.1159 11.0037C67.6458 11.3497 68.1099 11.7717 68.4771 12.294C68.9135 12.9167 68.9516 13.5705 68.6433 14.2554C68.6191 14.3107 68.581 14.373 68.5325 14.4007C68.0233 14.6843 67.4934 14.9057 66.9012 14.9126C66.1392 14.9195 65.7201 14.5114 65.7028 13.7503C65.6958 13.5912 65.7132 13.4355 65.7201 13.2695Z" fill="#D9D9E3"/>
<path d="M63.0396 37.1205C63.2682 37.1205 63.4691 37.1205 63.6804 37.1205C63.6839 37.162 63.6942 37.2 63.6942 37.2381C63.6942 37.9126 63.6873 38.5872 63.6942 39.2583C63.6977 39.7218 63.5349 40.0919 63.1055 40.2822C62.6483 40.4828 62.1946 40.4517 61.7755 40.1542C61.5607 40.002 61.4291 39.7841 61.4257 39.5281C61.4118 38.729 61.4222 37.9299 61.4222 37.1239C61.6162 37.1239 61.8205 37.1239 62.0422 37.1239C62.0422 37.1931 62.0422 37.2554 62.0422 37.3177C62.0422 37.8988 62.0422 38.4799 62.0422 39.0611C62.0422 39.1579 62.0456 39.2583 62.056 39.3551C62.0872 39.6665 62.25 39.8152 62.5478 39.8083C62.8526 39.8014 63.0293 39.6388 63.0362 39.324C63.0466 38.6633 63.0431 37.9991 63.0466 37.3384C63.0396 37.2727 63.0396 37.207 63.0396 37.1205Z" fill="#D9D9E3"/>
<path d="M55.5861 38.8744C55.5861 39.1754 55.5861 39.4452 55.5861 39.7323C55.9809 39.7323 56.3758 39.7323 56.781 39.7323C56.781 39.9364 56.781 40.1232 56.781 40.3204C56.1749 40.3204 55.5653 40.3204 54.9419 40.3204C54.9419 39.2618 54.9419 38.1999 54.9419 37.1275C55.548 37.1275 56.1541 37.1275 56.7776 37.1275C56.7776 37.3074 56.7776 37.4907 56.7776 37.6983C56.3896 37.6983 55.9948 37.6983 55.5896 37.6983C55.5896 37.9024 55.5896 38.0892 55.5896 38.2863C55.9844 38.2863 56.3758 38.2863 56.7776 38.2863C56.7776 38.4835 56.7776 38.6703 56.7776 38.8744C56.3931 38.8744 55.9983 38.8744 55.5861 38.8744Z" fill="#D9D9E3"/>
<path d="M74.5867 37.1239C74.5867 37.3211 74.5867 37.501 74.5867 37.6981C74.1884 37.6981 73.8005 37.6981 73.3953 37.6981C73.3953 37.8953 73.3953 38.0821 73.3953 38.2862C73.7867 38.2862 74.178 38.2862 74.5833 38.2862C74.5833 38.4903 74.5833 38.6771 74.5833 38.8742C74.1884 38.8742 73.7971 38.8742 73.3953 38.8742C73.3953 39.1648 73.3953 39.4415 73.3953 39.739C73.7867 39.739 74.1815 39.739 74.5867 39.739C74.5867 39.9397 74.5867 40.1195 74.5867 40.3167C73.9772 40.3167 73.3676 40.3167 72.7441 40.3167C72.7441 39.2548 72.7441 38.1928 72.7441 37.1239C73.3572 37.1239 73.9633 37.1239 74.5867 37.1239Z" fill="#D9D9E3"/>
<path d="M65.824 34.9309C65.2075 34.9309 64.598 34.9309 63.978 34.9309C63.978 33.862 63.978 32.8 63.978 31.7311C64.5945 31.7311 65.2041 31.7311 65.8206 31.7311C65.8206 31.9213 65.8206 32.1081 65.8206 32.3053C65.4257 32.3053 65.0344 32.3053 64.6326 32.3053C64.6326 32.5025 64.6326 32.6893 64.6326 32.8934C65.024 32.8934 65.4188 32.8934 65.824 32.8934C65.824 33.094 65.824 33.2739 65.824 33.478C65.4361 33.478 65.0413 33.478 64.6326 33.478C64.6326 33.7755 64.6326 34.0522 64.6326 34.3497C65.0274 34.3497 65.4188 34.3497 65.824 34.3497C65.824 34.5469 65.824 34.7268 65.824 34.9309Z" fill="#D9D9E3"/>
<path d="M68.2795 34.9344C67.6596 34.9344 67.0569 34.9344 66.4404 34.9344C66.4404 33.8689 66.4404 32.807 66.4404 31.7346C67.05 31.7346 67.6596 31.7346 68.2795 31.7346C68.2795 31.918 68.2795 32.1048 68.2795 32.3088C67.8881 32.3088 67.4933 32.3088 67.0881 32.3088C67.0881 32.5095 67.0881 32.6894 67.0881 32.89C67.4795 32.89 67.8743 32.89 68.2795 32.89C68.2795 33.0941 68.2795 33.2809 68.2795 33.485C67.8847 33.485 67.4898 33.485 67.0881 33.485C67.0881 33.779 67.0881 34.0523 67.0881 34.3429C67.4795 34.3429 67.8743 34.3429 68.2795 34.3429C68.2795 34.5469 68.2795 34.7303 68.2795 34.9344Z" fill="#D9D9E3"/>
<path d="M65.814 37.1517C66.2365 37.1517 66.6452 37.1275 67.0539 37.1586C67.5353 37.1966 67.8297 37.5529 67.8332 38.0338C67.8367 38.4869 67.5249 38.8467 67.0643 38.9159C66.8703 38.9435 66.6764 38.9504 66.4616 38.9677C66.4616 39.414 66.4616 39.8671 66.4616 40.3272C66.2365 40.3272 66.0322 40.3272 65.814 40.3272C65.814 39.2618 65.814 38.1998 65.814 37.1517ZM66.4651 38.3693C66.6383 38.3555 66.8011 38.3555 66.9569 38.3313C67.1162 38.307 67.1959 38.1998 67.1959 38.0407C67.1994 37.8816 67.1197 37.7709 66.9639 37.7432C66.8011 37.7155 66.6383 37.7121 66.4616 37.6948C66.4651 37.9265 66.4651 38.1306 66.4651 38.3693Z" fill="#D9D9E3"/>
<path d="M74.6457 11.827C74.9124 12.377 75.2865 12.8233 75.3696 13.3975C75.522 14.4422 75.3246 15.3796 74.5002 16.1164C74.1158 16.4623 73.6794 16.6042 73.1772 16.4658C72.7962 16.362 72.4221 16.234 72.0342 16.113C72.0654 16.0092 72.0827 15.9538 72.1035 15.8812C72.2039 15.9019 72.2974 15.9227 72.3909 15.9435C73.0317 16.068 73.5859 15.8639 74.0846 15.4799C74.4275 15.217 74.6907 14.8849 74.902 14.5079C75.0302 14.2796 75.0336 14.0582 74.9089 13.8368C74.6977 13.4598 74.4864 13.0827 74.2647 12.7126C74.2093 12.6226 74.1989 12.5569 74.2543 12.467C74.3825 12.2698 74.5002 12.0692 74.6457 11.827Z" fill="#D9D9E3"/>
<path d="M80.4473 39.7011C80.6274 39.5973 80.7971 39.5039 80.9737 39.4001C81.0326 39.4763 81.0846 39.5489 81.1469 39.6146C81.2958 39.7703 81.469 39.8568 81.6907 39.7876C81.9505 39.708 82.0232 39.4797 81.8362 39.2825C81.7184 39.158 81.5764 39.0542 81.4448 38.9435C81.2751 38.7982 81.095 38.6633 80.9322 38.5077C80.5927 38.1825 80.5061 37.8401 80.6759 37.5184C80.856 37.1759 81.2958 36.9787 81.7115 37.0583C82.0128 37.1136 82.2691 37.2797 82.5046 37.5772C82.3557 37.7051 82.2068 37.8366 82.0336 37.9853C81.9747 37.9162 81.9297 37.8331 81.8604 37.7951C81.7322 37.7294 81.5937 37.6671 81.4552 37.6498C81.3928 37.6429 81.282 37.7294 81.2543 37.7985C81.23 37.8574 81.2751 37.9715 81.327 38.0234C81.4656 38.1618 81.6214 38.2794 81.7738 38.4074C81.9331 38.5388 82.0994 38.6633 82.2518 38.8052C82.5358 39.0681 82.657 39.3932 82.5323 39.7737C82.4111 40.1473 82.1167 40.3238 81.7461 40.386C81.1885 40.4829 80.6897 40.2234 80.4473 39.7011Z" fill="#D9D9E3"/>
<path d="M74.2128 33.478C74.2128 33.9761 74.2128 34.4465 74.2128 34.9274C73.9981 34.9274 73.8007 34.9274 73.5859 34.9274C73.5859 33.8654 73.5859 32.8034 73.5859 31.7311C74.1366 31.7311 74.6873 31.7311 75.2519 31.7311C75.2519 31.9144 75.2519 32.1012 75.2519 32.3053C74.9125 32.3053 74.5765 32.3053 74.2267 32.3053C74.2267 32.5059 74.2267 32.6858 74.2267 32.8934C74.5627 32.8934 74.9055 32.8934 75.2554 32.8934C75.2554 33.0975 75.2554 33.2808 75.2554 33.4814C74.9125 33.478 74.5765 33.478 74.2128 33.478Z" fill="#D9D9E3"/>
<path d="M102.679 34.9275C102.451 34.9275 102.246 34.9275 102.025 34.9275C102.025 34.5124 102.028 34.1042 102.021 33.696C102.018 33.5991 101.994 33.4919 101.945 33.4054C101.678 32.9038 101.401 32.4057 101.128 31.9076C101.097 31.8522 101.072 31.7969 101.034 31.7208C101.256 31.7208 101.457 31.7139 101.654 31.7242C101.699 31.7277 101.758 31.7865 101.782 31.8315C101.973 32.167 102.156 32.506 102.354 32.8658C102.537 32.5337 102.717 32.2224 102.88 31.9041C102.953 31.7657 103.033 31.6966 103.195 31.7139C103.344 31.7312 103.493 31.7173 103.663 31.7173C103.635 31.7796 103.614 31.8245 103.59 31.8695C103.306 32.3884 103.019 32.9073 102.742 33.4296C102.704 33.5023 102.679 33.5922 102.679 33.6718C102.676 34.0869 102.679 34.502 102.679 34.9275Z" fill="#D9D9E3"/>
<path d="M70.8567 11.5883C71.1927 12.204 71.4905 12.7817 71.4836 13.4666C71.4801 13.8679 71.3104 14.2069 71.0507 14.494C70.8463 14.7188 70.5519 14.7742 70.2645 14.8018C69.9562 14.8295 69.6445 14.8364 69.3328 14.8399C69.0696 14.8433 68.9103 14.6946 68.9068 14.4663C68.9033 14.2484 69.0523 14.1135 69.3189 14.0996C69.6757 14.0789 70.0324 14.0754 70.3892 14.0408C70.5381 14.027 70.687 13.9613 70.8325 13.9059C70.9779 13.8506 71.0403 13.7364 70.9745 13.5877C70.8152 13.2175 70.6628 12.8474 70.4827 12.4911C70.403 12.3354 70.3961 12.2247 70.5035 12.0898C70.6177 11.9376 70.7217 11.7785 70.8567 11.5883Z" fill="#D9D9E3"/>
<path d="M55.1982 34.9274C55.1982 34.0522 55.1982 33.1909 55.1982 32.3157C54.9973 32.3157 54.8103 32.3157 54.6094 32.3157C54.6094 32.115 54.6094 31.9283 54.6094 31.7311C55.2294 31.7311 55.8459 31.7311 56.4728 31.7311C56.4728 31.9179 56.4728 32.1047 56.4728 32.3053C56.2788 32.3053 56.0849 32.3053 55.8736 32.3053C55.8736 33.1839 55.8736 34.0522 55.8736 34.9274C55.6415 34.9274 55.4302 34.9274 55.1982 34.9274Z" fill="#D9D9E3"/>
<path d="M85.476 40.3273C85.2474 40.3273 85.0396 40.3273 84.8145 40.3273C84.8145 39.459 84.8145 38.5942 84.8145 37.7121C84.6067 37.7121 84.4196 37.7121 84.2188 37.7121C84.2188 37.5115 84.2188 37.3247 84.2188 37.1275C84.8353 37.1275 85.4483 37.1275 86.0752 37.1275C86.0752 37.3074 86.0752 37.4942 86.0752 37.7017C85.8812 37.7017 85.6838 37.7017 85.4725 37.7017C85.476 38.5804 85.476 39.4452 85.476 40.3273Z" fill="#D9D9E3"/>
<path d="M78.9961 37.7052C78.7814 37.7052 78.5978 37.7052 78.4004 37.7052C78.4004 37.5115 78.4004 37.3247 78.4004 37.1275C79.0169 37.1275 79.6299 37.1275 80.2603 37.1275C80.2603 37.3108 80.2603 37.4942 80.2603 37.7017C80.0663 37.7017 79.8689 37.7017 79.6576 37.7017C79.6576 38.5838 79.6576 39.4452 79.6576 40.3204C79.436 40.3204 79.2282 40.3204 78.9961 40.3204C78.9961 39.459 78.9961 38.5908 78.9961 37.7052Z" fill="#D9D9E3"/>
<path d="M93.9272 34.9309C93.6917 34.9309 93.4839 34.9309 93.2657 34.9309C93.2657 34.0626 93.2657 33.2013 93.2657 32.3192C93.0613 32.3192 92.8674 32.3192 92.6665 32.3192C92.6665 32.1116 92.6665 31.9248 92.6665 31.7277C93.2899 31.7277 93.903 31.7277 94.5299 31.7277C94.5299 31.9179 94.5299 32.1013 94.5299 32.3019C94.3325 32.3019 94.1385 32.3019 93.9272 32.3019C93.9272 33.184 93.9272 34.0488 93.9272 34.9309Z" fill="#D9D9E3"/>
<path d="M89.5737 31.7242C89.7885 31.7242 89.9894 31.7242 90.2076 31.7242C90.2076 32.596 90.2076 33.4607 90.2076 34.3463C90.5297 34.3463 90.831 34.3463 91.1462 34.3463C91.1462 34.5504 91.1462 34.7337 91.1462 34.9309C90.6197 34.9309 90.1036 34.9309 89.5737 34.9309C89.5737 33.8655 89.5737 32.8035 89.5737 31.7242Z" fill="#D9D9E3"/>
<path d="M88.8393 31.7311C88.8393 32.7965 88.8393 33.855 88.8393 34.9274C88.6315 34.9274 88.4271 34.9274 88.2124 34.9274C88.2124 33.8654 88.2124 32.8034 88.2124 31.7311C88.4237 31.7311 88.628 31.7311 88.8393 31.7311Z" fill="#D9D9E3"/>
<path d="M96.7328 40.3272C96.5181 40.3272 96.3206 40.3272 96.1094 40.3272C96.1094 39.2618 96.1094 38.2033 96.1094 37.1309C96.3103 37.1309 96.5146 37.1309 96.7328 37.1309C96.7328 38.186 96.7328 39.2479 96.7328 40.3272Z" fill="#D9D9E3"/>
<path d="M91.6445 31.7277C91.8593 31.7277 92.0567 31.7277 92.268 31.7277C92.268 32.7965 92.268 33.862 92.268 34.9309C92.0567 34.9309 91.8558 34.9309 91.6445 34.9309C91.6445 33.8654 91.6445 32.8035 91.6445 31.7277Z" fill="#D9D9E3"/>
<path d="M64.418 40.3202C64.418 39.2478 64.418 38.1893 64.418 37.1239C64.6258 37.1239 64.8267 37.1239 65.0414 37.1239C65.0414 38.1859 65.0414 39.2478 65.0414 40.3202C64.8405 40.3202 64.6362 40.3202 64.418 40.3202Z" fill="#D9D9E3"/>
<path d="M80.8872 10.4364C81.05 10.2496 81.2059 10.0732 81.379 9.87946C81.618 10.0905 81.8431 10.2911 82.0925 10.5125C81.9297 10.7028 81.7808 10.8757 81.6249 11.0591C81.3721 10.848 81.14 10.6509 80.8872 10.4364Z" fill="#D9D9E3"/>
<path d="M80.9045 10.5886C80.7417 10.7788 80.5928 10.9518 80.4404 11.1317C80.191 10.9207 79.9589 10.7269 79.7026 10.5159C79.8585 10.3361 80.0144 10.1562 80.191 9.95209C80.4335 10.1666 80.662 10.3707 80.9045 10.5886Z" fill="#D9D9E3"/>
<path d="M70.5208 16.6213C70.3511 16.815 70.2021 16.988 70.0497 17.1644C69.8003 16.9534 69.5648 16.7562 69.3154 16.5452C69.4748 16.3619 69.6341 16.182 69.8073 15.9848C70.0497 16.2027 70.2749 16.4034 70.5208 16.6213Z" fill="#D9D9E3"/>
<path d="M70.5 16.4693C70.6593 16.2894 70.8117 16.113 70.9884 15.9089C71.2308 16.1234 71.4594 16.3275 71.7018 16.542C71.539 16.7288 71.3901 16.9017 71.2343 17.0851C70.9849 16.8775 70.7494 16.6803 70.5 16.4693Z" fill="#D9D9E3"/>
<path d="M25.5156 13.5946C25.1692 13.2175 24.9268 12.8024 24.7986 12.3285C24.4003 10.848 25.2143 9.31901 26.7001 8.75517C28.3418 8.13251 30.1948 8.87278 30.8667 10.419C31.5594 12.0206 30.6935 13.8678 28.9722 14.4248C27.8535 14.7845 26.8109 14.6116 25.8619 13.9093C25.8342 13.8886 25.8065 13.8678 25.7788 13.8471C25.7753 13.8436 25.7684 13.8471 25.7442 13.8436C24.2133 15.4556 22.672 17.0745 21.1204 18.7072C20.8641 18.4616 20.6182 18.2299 20.3584 17.9843C22.0763 16.5176 23.7838 15.0647 25.5156 13.5946ZM28.0128 14.1377C28.1409 14.1169 28.3764 14.0996 28.605 14.0443C30.5308 13.5738 31.2546 11.3184 29.9489 9.88632C28.9271 8.77246 27.0949 8.70674 25.997 9.74449C25.0064 10.6819 24.9129 12.1486 25.7892 13.1725C26.3399 13.8194 27.0568 14.1204 28.0128 14.1377Z" fill="#D9D9E3"/>
<path d="M14.2248 23.7819C14.488 24.0309 14.7305 24.2627 14.9902 24.5048C13.2619 25.975 11.551 27.4278 9.83306 28.8911C10.1933 29.2854 10.4461 29.7247 10.5673 30.2367C10.9137 31.7034 10.1067 33.177 8.65546 33.7305C7.02068 34.3531 5.17463 33.6267 4.49232 32.0943C3.76151 30.4477 4.70013 28.5348 6.50116 28.0263C7.59216 27.7184 8.60005 27.9087 9.50749 28.6005C9.53173 28.6178 9.55251 28.6351 9.59061 28.6628C11.1284 27.037 12.6697 25.4181 14.2248 23.7819ZM7.3324 28.348C7.20771 28.3653 6.96873 28.3791 6.7436 28.4414C5.74611 28.7181 5.04994 29.3304 4.80403 30.3509C4.57198 31.3194 4.86984 32.1496 5.6145 32.8103C6.64316 33.7201 8.28487 33.7028 9.30661 32.7792C10.3041 31.8798 10.4426 30.42 9.61486 29.3857C9.0607 28.6939 8.32643 28.3687 7.3324 28.348Z" fill="#D9D9E3"/>
<path d="M17.4975 31.8834C17.3763 29.7076 17.2551 27.5387 17.1304 25.3629C17.4975 25.3629 17.8473 25.3629 18.2076 25.3629C18.0863 27.5421 17.9651 29.7076 17.8439 31.8696C18.114 31.9249 18.3773 31.9561 18.6301 32.0356C19.7107 32.3746 20.4796 33.0665 20.7671 34.1734C21.0857 35.3945 20.7151 36.4323 19.7454 37.2313C18.4604 38.2933 16.5 38.1757 15.3294 36.9892C13.7916 35.4291 14.4011 32.8762 16.4966 32.1014C16.6524 32.0425 16.8152 31.9976 16.978 31.963C17.1408 31.9319 17.307 31.9146 17.4975 31.8834ZM17.5737 32.3539C17.4352 32.3746 17.1893 32.3885 16.9607 32.4507C16.0048 32.7171 15.3294 33.3017 15.0557 34.2703C14.796 35.1904 15.0419 36.0068 15.7069 36.6813C16.7771 37.7675 18.5885 37.7537 19.6588 36.6675C20.5662 35.7473 20.6355 34.3498 19.8146 33.3536C19.2605 32.6894 18.5331 32.3781 17.5737 32.3539Z" fill="#D9D9E3"/>
<path d="M25.7581 28.6594C26.236 28.2719 26.759 28.0402 27.3444 27.9329C29.0242 27.6251 30.7005 28.6905 31.0399 30.3198C31.272 31.4336 30.9256 32.3814 30.0805 33.139C28.5808 34.4812 26.1183 34.1076 25.1035 32.3953C24.4766 31.3333 24.5839 30.0015 25.3736 29.0537C25.4152 29.0053 25.4567 28.9568 25.5122 28.8877C23.7943 27.4279 22.0798 25.9681 20.355 24.5014C20.6113 24.2593 20.8572 24.0275 21.117 23.7784C22.6651 25.4077 24.2064 27.0266 25.7581 28.6594ZM27.9158 28.3515C27.7946 28.3584 27.6769 28.3584 27.5626 28.3722C27.4413 28.3861 27.3236 28.4068 27.2058 28.438C26.2014 28.7182 25.4983 29.3339 25.2559 30.3613C25.0203 31.3541 25.3424 32.1946 26.1183 32.8484C27.192 33.7547 28.8579 33.6786 29.8589 32.6893C30.7836 31.7726 30.8702 30.3474 30.0459 29.3512C29.4952 28.6836 28.7679 28.3722 27.9158 28.3515Z" fill="#D9D9E3"/>
<path d="M9.82937 13.5981C11.5473 15.0579 13.2583 16.5142 14.9865 17.9809C14.7302 18.223 14.4843 18.4548 14.2211 18.7038C12.6729 17.078 11.1351 15.4591 9.58692 13.8298C9.53151 13.8679 9.48302 13.9059 9.43453 13.9405C8.16342 14.8953 6.33814 14.7984 5.18479 13.7191C3.88944 12.505 3.92407 10.5159 5.26099 9.34673C6.59098 8.18444 8.66563 8.28476 9.85708 9.57504C10.8788 10.682 10.9169 12.3182 9.9402 13.4666C9.90557 13.5081 9.8744 13.5462 9.82937 13.5981ZM7.44647 14.1515C7.67853 14.117 7.91751 14.1031 8.1461 14.0409C9.11242 13.778 9.79474 13.1864 10.0614 12.2075C10.3177 11.2735 10.0649 10.4468 9.37565 9.77221C8.26386 8.68949 6.40742 8.75521 5.37182 9.91058C4.84883 10.4952 4.63409 11.187 4.76571 11.9584C4.98737 13.2418 6.10609 14.1342 7.44647 14.1515Z" fill="#D9D9E3"/>
<path d="M18.211 17.123C17.8473 17.123 17.5044 17.123 17.1338 17.123C17.255 14.9472 17.3763 12.7817 17.5009 10.6093C17.2654 10.5644 17.0368 10.5436 16.8186 10.4779C15.5406 10.0974 14.7059 9.28793 14.5015 7.94231C14.3457 6.89763 14.7197 6.01208 15.5129 5.31679C16.7736 4.2133 18.7617 4.27211 19.9635 5.43786C21.5602 6.98757 20.9783 9.58542 18.8517 10.3707C18.5365 10.4883 18.1971 10.5367 17.8473 10.6232C17.9651 12.7679 18.0863 14.9368 18.211 17.123ZM14.9518 7.65174C14.9726 7.77627 14.9934 8.00111 15.0522 8.21558C15.596 10.1389 18.1486 10.7754 19.6068 9.35712C20.6908 8.2986 20.6354 6.6209 19.4786 5.64887C18.4777 4.80482 16.9953 4.77023 15.9597 5.57276C15.3189 6.07435 14.9795 6.73505 14.9518 7.65174Z" fill="#D9D9E3"/>
<path d="M28.934 21.0802C28.986 20.4438 29.1903 19.8937 29.5783 19.4233C30.2848 18.5689 31.1992 18.178 32.3041 18.2264C33.3639 18.2714 34.2125 18.728 34.822 19.5928C35.7122 20.8589 35.4385 22.5642 34.2055 23.557C32.5569 24.8819 29.9939 24.2973 29.1765 22.3947C29.0449 22.0938 28.9895 21.7582 28.889 21.4089C26.6308 21.523 24.3345 21.6372 22.0312 21.7513C22.0312 21.4089 22.0312 21.0837 22.0312 20.7343C24.3276 20.8485 26.6204 20.9626 28.934 21.0802ZM32.259 23.813C32.3941 23.7888 32.6677 23.7715 32.924 23.6919C33.8973 23.3944 34.5623 22.7683 34.7839 21.7686C34.9987 20.8035 34.687 19.9802 33.9423 19.3368C32.8063 18.3579 31.0433 18.4859 30.0493 19.6101C29.2354 20.5302 29.2146 21.907 30.0112 22.8375C30.5654 23.4809 31.2788 23.7888 32.259 23.813Z" fill="#D9D9E3"/>
<path d="M21.5674 22.9828C21.647 22.7994 21.7198 22.6368 21.796 22.4639C22.0973 22.5815 22.3882 22.6922 22.6757 22.8063C22.8904 22.8894 23.1087 22.9689 23.3165 23.0623C23.4342 23.1142 23.5 23.1004 23.5901 22.9966C24.2412 22.2494 25.4673 22.2771 26.0907 23.045C26.8077 23.9237 26.3055 25.2312 25.166 25.4561C24.2932 25.629 23.4585 25.1378 23.261 24.318C23.2195 24.1485 23.2229 23.9652 23.2333 23.7887C23.2403 23.6815 23.2229 23.6262 23.1121 23.5847C22.603 23.3944 22.0938 23.1903 21.5674 22.9828Z" fill="#D9D9E3"/>
<path d="M19.8181 26.6633C19.5861 26.1341 19.361 25.6152 19.1254 25.079C19.309 25.0064 19.4822 24.9372 19.6761 24.8611C19.9117 25.3938 20.1402 25.9161 20.3619 26.4177C20.6113 26.4385 20.8537 26.4281 21.0789 26.48C21.9205 26.6737 22.4296 27.452 22.2599 28.258C22.0971 29.0329 21.2694 29.5829 20.4624 29.4549C19.7454 29.3407 19.2259 28.8737 19.1081 28.2096C19.0042 27.6319 19.2086 27.158 19.6588 26.7844C19.7038 26.7463 19.7558 26.7117 19.8181 26.6633Z" fill="#D9D9E3"/>
<path d="M15.5267 15.8223C15.7552 16.3481 15.9838 16.867 16.2159 17.4032C16.0289 17.4758 15.8557 17.545 15.6721 17.6176C15.6409 17.5588 15.6167 17.5069 15.5925 17.455C15.4505 17.1299 15.2911 16.8082 15.1699 16.4726C15.0591 16.1682 14.9275 16.0264 14.5465 16.0299C13.6529 16.0368 12.9775 15.2412 13.0572 14.3694C13.1299 13.5565 13.9542 12.9235 14.8132 13.0169C15.253 13.0653 15.6202 13.2418 15.9076 13.5773C16.4376 14.2034 16.3579 15.1201 15.7345 15.6528C15.6721 15.7116 15.6028 15.7635 15.5267 15.8223Z" fill="#D9D9E3"/>
<path d="M19.5137 17.5555C19.3266 17.4828 19.1535 17.4136 18.963 17.341C19.0669 17.1023 19.1638 16.8775 19.2608 16.6526C19.3751 16.3897 19.4894 16.1234 19.6072 15.8639C19.6418 15.7844 19.6453 15.7394 19.5656 15.6771C19.0114 15.2344 18.814 14.6152 19.0288 14.0063C19.247 13.3837 19.8462 12.972 20.5389 12.972C21.4186 12.972 22.1321 13.6016 22.1598 14.4111C22.1944 15.3243 21.3978 16.0715 20.4557 15.9885C20.2479 15.9712 20.1683 16.0334 20.0955 16.2133C19.9154 16.6595 19.7145 17.0989 19.5137 17.5555Z" fill="#D9D9E3"/>
<path d="M12.1017 18.8456C12.6558 19.0635 13.1996 19.278 13.7711 19.5028C13.6949 19.6793 13.6256 19.8418 13.546 20.0252C12.978 19.8038 12.4238 19.5859 11.8731 19.3714C11.0903 20.1186 10.2556 20.2431 9.54562 19.7208C8.94297 19.2815 8.74901 18.5101 9.07458 17.8597C9.41747 17.1783 10.2418 16.8393 11.0072 17.0641C11.783 17.2924 12.2021 17.9635 12.1017 18.8456Z" fill="#D9D9E3"/>
<path d="M11.935 23.2734C12.4961 23.0555 13.0434 22.841 13.6114 22.6162C13.6841 22.7857 13.7568 22.9482 13.84 23.1385C13.272 23.3634 12.7178 23.5813 12.1879 23.7888C12.1706 24.0137 12.1809 24.2247 12.1394 24.4219C11.9974 25.0826 11.3566 25.5703 10.6743 25.6049C9.74956 25.6499 9.16769 25.0169 9.01876 24.4841C8.77285 23.5847 9.46555 22.6335 10.4007 22.585C11.0345 22.5504 11.5437 22.7545 11.935 23.2734Z" fill="#D9D9E3"/>
<path d="M21.7301 19.8627C21.6539 19.6932 21.5811 19.5271 21.5015 19.3473C22.0106 19.1466 22.5059 18.946 23.0046 18.7592C23.1432 18.7073 23.1778 18.6416 23.1674 18.4998C23.1189 17.6142 23.8151 16.9051 24.7052 16.8774C25.4845 16.8532 26.1634 17.3755 26.3262 18.0431C26.5374 18.9149 25.8724 19.8281 24.9788 19.8938C24.3693 19.9388 23.8532 19.7693 23.4584 19.285C23.4306 19.2504 23.3337 19.2435 23.2852 19.2642C22.7934 19.4476 22.3085 19.6413 21.8201 19.8315C21.7959 19.8419 21.7682 19.8488 21.7301 19.8627Z" fill="#D9D9E3"/>
<path d="M15.8354 24.9303C16.0259 25.0064 16.1956 25.0721 16.3826 25.1448C16.1471 25.6809 15.9185 26.2067 15.6864 26.736C16.012 26.9608 16.2441 27.248 16.3445 27.625C16.5766 28.5036 15.9358 29.4065 15.011 29.5034C14.5677 29.5518 14.1625 29.4618 13.7988 29.1955C13.2827 28.815 13.0645 28.1854 13.2377 27.587C13.4074 26.9989 13.9755 26.5388 14.5954 26.4904C14.727 26.48 14.8621 26.4766 14.9937 26.4939C15.1046 26.5077 15.1565 26.4731 15.1981 26.3728C15.3782 25.9438 15.5687 25.5184 15.7557 25.0894C15.7765 25.0479 15.8042 24.996 15.8354 24.9303Z" fill="#D9D9E3"/>
<path d="M3.16564 19.1432C3.8722 19.1466 4.44022 19.3784 4.88701 19.8696C5.63513 20.686 5.60396 21.9106 4.81774 22.6923C4.00381 23.5053 2.63919 23.571 1.75599 22.8376C1.10831 22.298 0.855475 21.5992 1.04251 20.7829C1.23993 19.9284 1.82872 19.4303 2.65997 19.202C2.72231 19.1847 2.78465 19.1743 2.847 19.1674C2.96476 19.1536 3.08598 19.1501 3.16564 19.1432ZM3.59165 21.0458C3.62975 21.0181 3.67824 20.98 3.73019 20.9454C4.00728 20.7517 4.29128 20.5615 4.5649 20.3574C4.603 20.3297 4.59954 20.2398 4.61686 20.1775C4.55105 20.1775 4.48524 20.1706 4.41943 20.1775C4.39519 20.181 4.37787 20.2155 4.35709 20.2328C4.11811 20.4508 3.87566 20.6618 3.64707 20.8901C3.52238 21.0146 3.3977 21.07 3.22106 21.0423C3.11715 21.025 3.01671 21.0354 3.05827 20.8763C3.0652 20.8555 3.02017 20.8175 2.99939 20.7898C2.97168 20.8175 2.93012 20.8382 2.91627 20.8728C2.90241 20.9039 2.9128 20.9489 2.9128 20.9939C2.76734 21.0215 2.62533 21.0492 2.47986 21.0769C2.47294 21.1668 2.46601 21.2499 2.45908 21.3398C2.28937 21.364 2.13005 21.3813 1.97073 21.4055C1.83911 21.4263 1.75599 21.5093 1.76984 21.6442C1.7837 21.7895 1.81833 21.9348 1.86336 22.0731C1.96034 22.3637 1.9638 22.3637 2.27205 22.3568C2.35171 22.3533 2.4764 22.343 2.50065 22.298C2.59416 22.1181 2.73963 22.1112 2.90588 22.1216C3.05135 22.1285 3.19681 22.1147 3.33882 22.1285C3.3977 22.1354 3.48082 22.1804 3.50507 22.2323C3.55702 22.336 3.61936 22.3776 3.73366 22.3637C3.82371 22.3533 3.91722 22.3672 4.01074 22.3603C4.04884 22.3568 4.10772 22.336 4.12157 22.3084C4.19084 22.1631 4.28089 22.0178 4.30167 21.8621C4.35016 21.5543 4.31207 21.4263 3.99689 21.3813C3.89991 21.3675 3.80986 21.3294 3.71634 21.3017C3.72673 21.2914 3.74059 21.281 3.75098 21.2706C3.70249 21.198 3.654 21.1288 3.59165 21.0458Z" fill="#D9D9E3"/>
<path d="M27.9021 9.48501C28.6225 9.47117 29.2182 9.74099 29.6719 10.2979C30.3785 11.1593 30.2469 12.408 29.3914 13.1344C28.5255 13.8678 27.2163 13.8574 26.3781 13.0964C25.7651 12.5429 25.5365 11.8442 25.7547 11.0451C25.9833 10.208 26.5721 9.72369 27.4068 9.51614C27.4691 9.5023 27.5315 9.48847 27.5938 9.48501C27.6942 9.47809 27.7982 9.48501 27.9021 9.48501ZM28.3904 11.6885C28.3038 11.6262 28.2311 11.5432 28.1514 11.5294C28.0025 11.5052 27.8778 11.4118 27.8466 11.2527C27.8363 11.2111 27.7878 11.1558 27.7462 11.1454C27.6908 11.1281 27.6042 11.1281 27.5661 11.1593C27.4276 11.2699 27.2856 11.2734 27.1228 11.18C27.0812 11.1558 26.9946 11.1731 26.9427 11.1938C26.9011 11.2111 26.8561 11.2699 26.8561 11.3115C26.8492 11.4637 26.7349 11.5917 26.5859 11.6193C26.534 11.6297 26.4716 11.6816 26.4543 11.73C26.437 11.7784 26.4578 11.858 26.4924 11.8995C26.5721 11.9929 26.5894 12.1693 26.5236 12.2697C26.4924 12.3146 26.4786 12.3873 26.4889 12.4392C26.5063 12.5222 26.5617 12.5671 26.6656 12.5568C26.7972 12.5429 26.9219 12.6778 26.9496 12.8127C26.9565 12.8577 27.0015 12.92 27.0396 12.9269C27.1055 12.9407 27.199 12.9407 27.2475 12.9061C27.3548 12.8266 27.5384 12.8093 27.6527 12.8785C27.7012 12.9061 27.7739 12.9131 27.8293 12.9027C27.9159 12.8854 27.9332 12.8231 27.954 12.7332C27.9748 12.6363 28.0822 12.4841 28.1584 12.4841C28.3558 12.4807 28.3558 12.3596 28.3835 12.2385C28.1861 12.0759 28.1791 11.9307 28.3904 11.6885ZM29.0866 11.5225C29.1281 11.4637 29.2009 11.4014 29.1905 11.3668C29.1212 11.1627 29.2355 11.0728 29.4122 11.007C29.3948 10.9413 29.3948 10.8479 29.3602 10.8341C29.1732 10.7476 29.1766 10.6127 29.2598 10.4121C29.1662 10.3982 29.0831 10.3948 29.0104 10.3706C28.9203 10.336 28.8234 10.3014 28.761 10.2322C28.6779 10.1423 28.574 10.1215 28.5012 10.2218C28.4216 10.3325 28.3281 10.3706 28.193 10.3187C28.0995 10.2841 27.9852 10.3775 28.0129 10.4674C28.0614 10.6162 28.0025 10.7026 27.8709 10.7614C27.7912 10.7995 27.7704 10.9482 27.8466 10.9828C28.0302 11.0693 28.0302 11.2008 27.9471 11.3806C28.0233 11.4083 28.0891 11.4602 28.1445 11.4498C28.29 11.4222 28.3835 11.4602 28.4528 11.5917C28.4978 11.6747 28.6398 11.6885 28.6883 11.6055C28.7853 11.4464 28.9134 11.4429 29.0866 11.5225Z" fill="#D9D9E3"/>
<path d="M7.44297 28.8184C8.08373 28.8254 8.63789 29.0398 9.08815 29.5034C9.86744 30.3059 9.85705 31.5546 9.06737 32.3537C8.20841 33.2254 6.73642 33.2496 5.86361 32.3987C5.26442 31.8175 5.06354 31.105 5.31637 30.3093C5.5796 29.4861 6.18918 29.0225 7.03082 28.8496C7.10355 28.8357 7.17975 28.8254 7.25248 28.8184C7.31482 28.815 7.38063 28.8184 7.44297 28.8184ZM6.90613 30.9043C6.96501 31.0704 6.92691 31.1534 6.77798 31.2018C6.64636 31.2433 6.52168 31.3056 6.40046 31.3713C6.34504 31.4024 6.26538 31.4612 6.26538 31.5097C6.25499 31.776 6.26884 32.0459 6.27231 32.3122C6.27231 32.3157 6.29309 32.3191 6.30348 32.3226C6.4247 32.1669 6.49051 32.1808 6.66022 32.2707C6.74681 32.3157 6.88881 32.2776 6.99964 32.2499C7.03428 32.2396 7.06545 32.1427 7.06891 32.0874C7.07584 31.8625 7.06891 31.6377 7.07238 31.4128C7.07584 31.2295 7.15204 31.1603 7.33561 31.1603C7.45337 31.1603 7.57459 31.1603 7.69235 31.1603C7.69235 31.1499 7.69235 31.1395 7.69235 31.1257C7.52264 31.1119 7.35292 31.098 7.16936 31.0842C7.15897 31.0323 7.14511 30.977 7.12779 30.8974C7.28712 30.8974 7.42912 30.8974 7.57459 30.8974C7.6023 30.5238 7.64732 30.1744 7.6404 29.8251C7.63693 29.6659 7.55727 29.4895 7.45683 29.3615C7.37717 29.2612 7.00311 29.3408 6.88188 29.4169C6.67754 29.5483 6.60134 29.7282 6.6048 29.9669C6.60827 30.1606 6.57017 30.3578 6.55631 30.5515C6.54592 30.6622 6.54246 30.7763 6.539 30.9009C6.67754 30.9043 6.79183 30.9043 6.90613 30.9043ZM8.45086 31.8106C8.38852 31.7518 8.3331 31.6792 8.26037 31.6411C8.15992 31.5858 8.0768 31.5374 8.06295 31.4059C8.05948 31.3679 7.99714 31.309 7.95558 31.3021C7.75123 31.2675 7.54342 31.2537 7.33907 31.2191C7.20399 31.1984 7.14858 31.2779 7.14511 31.3782C7.13472 31.6653 7.13818 31.9525 7.14165 32.243C7.14165 32.2707 7.18321 32.2949 7.20746 32.3226C7.22477 32.2984 7.25248 32.2776 7.25941 32.2499C7.2698 32.2119 7.24902 32.1565 7.2698 32.1323C7.3079 32.0839 7.36678 32.0459 7.41873 32.0078C7.4499 32.0562 7.49493 32.0977 7.50878 32.1496C7.5261 32.2084 7.51224 32.2707 7.51224 32.3572C7.67849 32.3572 7.82396 32.3572 7.97289 32.3572C8.10797 32.3572 8.26037 32.3157 8.34003 32.5025C8.36081 32.3157 8.6275 32.3952 8.63096 32.1842C8.64135 31.9697 8.60325 31.8833 8.45086 31.8106ZM7.44297 32.0701C7.42566 32.0701 7.40834 32.0701 7.39102 32.0701C7.28712 32.2361 7.29058 32.371 7.44297 32.5128C7.44297 32.3433 7.44297 32.2084 7.44297 32.0701Z" fill="#D9D9E3"/>
<path d="M17.6638 37.0307C17.0023 37.0238 16.4447 36.7886 15.9979 36.3078C15.2601 35.5191 15.2636 34.3256 16.0013 33.5335C16.8811 32.5926 18.4293 32.5787 19.3159 33.5093C19.8632 34.0835 20.0294 34.7753 19.7973 35.5225C19.5514 36.3216 18.9661 36.7886 18.1591 36.9754C17.9998 37.01 17.8301 37.0134 17.6638 37.0307ZM17.8301 35.4741C17.7954 35.7128 17.643 35.91 17.6673 36.1486C17.7989 36.0622 17.8993 35.9618 18.0067 35.8684C18.1695 35.7266 18.3531 35.5952 18.173 35.3461C18.7029 35.014 19.1081 34.6024 19.3852 34.0109C19.2882 34.0524 19.2363 34.0697 19.1878 34.0973C18.741 34.3187 18.3634 34.6231 18.0725 35.0279C18.0067 35.1213 17.9478 35.1593 17.8335 35.1143C17.7816 35.0936 17.6915 35.0728 17.6569 35.1005C17.4664 35.2631 17.2898 35.4395 17.1062 35.609C17.1166 35.6298 17.1235 35.6505 17.1339 35.6713C17.3625 35.609 17.5911 35.5433 17.8301 35.4741ZM15.9563 35.2838C15.9632 35.3011 15.9701 35.3184 15.9771 35.3357C16.2195 35.3288 16.4343 35.187 16.6871 35.1524C16.6386 35.3842 16.5001 35.5882 16.5139 35.8304C16.6906 35.7024 16.8326 35.5537 16.9884 35.4222C17.0889 35.3392 17.1235 35.2562 17.0646 35.142C17.0127 35.0382 17.0681 34.9967 17.1443 34.9345C17.3867 34.7338 17.6326 34.5297 17.8474 34.3014C18.0032 34.1354 18.1071 33.9209 18.2353 33.7307C18.2214 33.7203 18.2076 33.7099 18.1937 33.6995C17.7019 33.9105 17.2828 34.2219 16.9607 34.6543C16.8672 34.7788 16.7841 34.8514 16.6248 34.7753C16.5867 34.758 16.5139 34.765 16.4828 34.7926C16.3026 34.9518 16.1295 35.1213 15.9563 35.2838Z" fill="#D9D9E3"/>
<path d="M27.9057 28.7943C29.1595 28.8151 30.1639 29.7871 30.1258 30.9771C30.105 31.6136 29.8279 32.129 29.3326 32.5268C28.491 33.2048 27.2234 33.1841 26.4094 32.4749C25.7895 31.9318 25.5401 31.24 25.741 30.4374C25.9453 29.6107 26.5133 29.1091 27.3273 28.8877C27.5143 28.8358 27.7117 28.8254 27.9057 28.7943ZM29.2495 30.3337C29.3777 30.3025 29.4712 30.2783 29.5716 30.2541C29.2911 30.2541 29.014 30.2541 28.7577 30.2541C28.82 30.351 29.111 30.2126 29.0348 30.5101C28.6954 30.434 28.3698 30.3544 28.0442 30.2887C27.9507 30.2714 27.8503 30.2679 27.7567 30.2887C27.4242 30.3579 27.0952 30.4374 26.7627 30.5101C26.7142 30.3855 26.7246 30.3129 26.8701 30.2991C26.9324 30.2956 26.9913 30.2679 27.0502 30.2541C26.7696 30.2541 26.4891 30.2541 26.2189 30.2541C26.309 30.2783 26.4129 30.3025 26.5307 30.3337C26.5237 30.3925 26.5341 30.4582 26.5099 30.5032C26.4302 30.6657 26.5549 30.6588 26.645 30.6727C26.8112 30.6969 26.9809 30.7176 27.1506 30.7384C27.2441 30.7488 27.2719 30.7972 27.2684 30.8906C27.2615 31.0809 27.2615 31.2711 27.2719 31.4614C27.2753 31.5098 27.3169 31.5582 27.3411 31.6066C27.3619 31.5582 27.4 31.5133 27.4035 31.4648C27.4104 31.2538 27.4069 31.0428 27.4069 30.7799C27.5628 30.8733 27.6805 30.9459 27.7948 31.022C27.8018 31.0255 27.7845 31.0947 27.7671 31.1051C27.6251 31.1742 27.6598 31.3507 27.7048 31.3783C27.7948 31.4337 27.9299 31.4302 28.0442 31.4129C28.0754 31.4095 28.1066 31.2676 28.0996 31.195C28.0927 31.1327 28.0234 31.0809 27.9819 31.022C28.0511 30.9771 28.1169 30.9321 28.1862 30.8906C28.2416 30.8595 28.2971 30.8352 28.3836 30.7903C28.3836 31.0463 28.3802 31.2573 28.3871 31.4683C28.3871 31.5167 28.4252 31.5617 28.4494 31.6066C28.4737 31.5582 28.5222 31.5098 28.5222 31.4614C28.5291 31.2331 28.5256 31.0013 28.5256 30.7522C28.8027 30.7073 29.0625 30.6657 29.3119 30.6242C29.2911 30.5101 29.2738 30.4271 29.2495 30.3337Z" fill="#D9D9E3"/>
<path d="M7.42597 9.48505C8.07365 9.49196 8.62435 9.72027 9.06422 10.1873C9.79848 10.9656 9.78463 12.1659 9.03997 12.9373C8.2399 13.7675 6.86834 13.8402 5.98861 13.093C5.36171 12.5603 5.1158 11.8753 5.31322 11.0797C5.51757 10.2495 6.09251 9.75832 6.90991 9.55077C7.07962 9.50926 7.25626 9.50926 7.42597 9.48505ZM6.4735 12.5879C7.12118 12.5879 7.74808 12.5879 8.38883 12.5879C8.38883 12.4115 8.38883 12.2455 8.38883 12.0794C8.47888 12.0725 8.55161 12.0656 8.63127 12.0621C8.63127 11.7197 8.63127 11.3841 8.63127 11.0451C8.54469 11.0382 8.47195 11.0348 8.37844 11.0278C8.37844 10.8514 8.37844 10.6819 8.37844 10.5124C8.21912 10.4986 8.09443 10.464 8.03901 10.6681C8.01823 10.7407 7.86584 10.8134 7.76539 10.8272C7.57836 10.8514 7.38441 10.8341 7.19391 10.8341C6.90991 10.8341 6.8441 10.7857 6.75751 10.5159C6.67092 10.5159 6.58087 10.5159 6.47004 10.5159C6.47004 10.6958 6.47004 10.8653 6.47004 11.0313C6.37652 11.0382 6.30379 11.0417 6.23452 11.0451C6.23452 11.3945 6.23452 11.7266 6.23452 12.0656C6.31764 12.0691 6.39038 12.076 6.4735 12.0794C6.4735 12.2489 6.4735 12.4115 6.4735 12.5879Z" fill="#D9D9E3"/>
<path d="M17.6776 5.47248C18.3426 5.46557 18.9072 5.70079 19.3575 6.18854C20.1021 6.99799 20.0744 8.21562 19.2986 9.00085C18.4708 9.83798 17.0473 9.89332 16.171 9.10809C15.5407 8.54424 15.2982 7.83511 15.5303 7.01528C15.7727 6.1747 16.3719 5.69387 17.2135 5.50362C17.2759 5.48978 17.3382 5.47594 17.4006 5.47248C17.4906 5.46903 17.5841 5.47248 17.6776 5.47248ZM17.6534 8.73104C17.6638 8.73104 17.6776 8.72758 17.688 8.72758C17.7331 8.59267 17.7885 8.45776 17.8197 8.31939C17.8439 8.21908 17.8889 8.1914 17.9859 8.19486C18.2699 8.20178 18.5505 8.19832 18.8345 8.19832C18.9384 8.19832 19.0423 8.19832 19.1981 8.19832C18.8068 7.87662 18.4604 7.58605 18.1106 7.30931C17.9963 7.21937 17.9582 7.1156 17.9374 6.97723C17.882 6.61747 17.7989 6.25772 17.7261 5.90142C17.7054 5.90142 17.6846 5.90488 17.6638 5.90488C17.643 5.95677 17.6118 6.0052 17.598 6.05709C17.5253 6.38225 17.4491 6.70741 17.3936 7.03258C17.3763 7.13635 17.3521 7.209 17.269 7.27818C16.9434 7.53416 16.6247 7.80052 16.3061 8.06341C16.2645 8.09801 16.2299 8.1326 16.1606 8.19486C16.597 8.19486 16.9815 8.19832 17.3659 8.1914C17.456 8.1914 17.4975 8.21908 17.5218 8.30902C17.5564 8.4543 17.6084 8.58921 17.6534 8.73104ZM17.6707 8.7933C17.4906 8.94205 17.3174 9.08041 17.1166 9.24646C17.501 9.24646 17.8404 9.24646 18.2214 9.24646C18.024 9.08387 17.8578 8.94551 17.6707 8.7933Z" fill="#D9D9E3"/>
<path d="M32.1414 19.1293C32.8272 19.1466 33.4056 19.3922 33.8559 19.9077C34.604 20.7655 34.5139 22.0108 33.6584 22.7753C32.7995 23.5467 31.4176 23.5363 30.5794 22.7442C29.9975 22.1907 29.7793 21.5093 29.9837 20.7309C30.2019 19.9042 30.7768 19.4164 31.5907 19.2054C31.7708 19.157 31.9613 19.1535 32.1414 19.1293ZM30.5101 22.1803C30.5759 22.1803 30.6383 22.1803 30.7006 22.1803C31.2998 22.1803 31.899 22.1803 32.5016 22.1803C32.7441 22.1803 33.0177 22.2461 33.2186 22.1561C33.4195 22.0662 33.5511 21.8171 33.7139 21.6373C33.7243 21.6234 33.7346 21.6061 33.7485 21.5992C34.0013 21.4539 33.9182 21.2187 33.9182 20.9869C33.8489 20.9973 33.7935 21.0008 33.7381 21.0111C33.4541 21.0665 33.1736 21.1218 32.893 21.1841C32.7995 21.2048 32.7337 21.2014 32.7025 21.1045C32.654 20.9523 32.5571 20.9039 32.4012 20.935C32.3423 20.9454 32.2765 20.9108 32.2176 20.9108C32.0929 20.9143 32.0929 20.852 32.1241 20.7379C32.2938 20.7759 32.4531 20.8105 32.6159 20.8451C32.6194 20.8174 32.6229 20.7863 32.6298 20.7586C32.4462 20.7309 32.2627 20.7067 32.0756 20.6791C32.1033 20.6583 32.1345 20.6341 32.1691 20.6099C31.9267 20.4819 32.1137 20.1809 31.9128 20.0045C31.8782 20.2501 31.8505 20.468 31.8159 20.7033C31.6842 20.6894 31.5422 20.6652 31.3968 20.6652C31.2305 20.6618 31.1128 20.7309 31.0539 20.8347C31.2894 20.8001 31.5353 20.769 31.7778 20.7344C31.7916 20.7586 31.802 20.7828 31.8159 20.8105C31.7708 20.8624 31.7327 20.935 31.6739 20.9662C31.3656 21.1287 31.0955 21.3294 30.9084 21.6303C30.8634 21.703 30.7837 21.7791 30.7041 21.7998C30.4928 21.8517 30.4512 21.9728 30.5101 22.1803Z" fill="#D9D9E3"/>
<path d="M27.3962 12.7265C27.0014 12.723 26.6723 12.4082 26.6758 12.0381C26.6793 11.661 27.0014 11.3601 27.4031 11.3636C27.8084 11.367 28.1236 11.6645 28.1201 12.045C28.1201 12.4221 27.7945 12.7299 27.3962 12.7265ZM26.7936 12.0416C26.7936 12.3598 27.0672 12.6227 27.4031 12.6227C27.7356 12.6227 28.0162 12.3564 28.0162 12.0416C28.0162 11.7268 27.7356 11.4604 27.4031 11.4604C27.0672 11.4604 26.7936 11.7233 26.7936 12.0416Z" fill="#D9D9E3"/>
<path d="M28.5981 10.3776C28.9271 10.3776 29.1592 10.5921 29.1627 10.8965C29.1661 11.2113 28.9271 11.4396 28.5981 11.4361C28.276 11.4327 28.0439 11.2113 28.0439 10.9034C28.0439 10.5921 28.2691 10.3776 28.5981 10.3776ZM28.9826 10.9034C28.9826 10.7062 28.8059 10.5437 28.5946 10.5471C28.3868 10.5506 28.224 10.7028 28.2206 10.8965C28.2171 11.0971 28.3868 11.2632 28.5946 11.2666C28.8059 11.2701 28.9826 11.1006 28.9826 10.9034Z" fill="#D9D9E3"/>
<path d="M8.07709 31.5409C7.83464 31.5409 7.64761 31.5409 7.4502 31.5409C7.4502 31.4856 7.4502 31.4372 7.4502 31.3611C7.61644 31.3611 7.78269 31.3507 7.94547 31.368C7.98703 31.3714 8.01821 31.4579 8.07709 31.5409Z" fill="#D9D9E3"/>
<path d="M6.69853 11.1351C6.76087 11.1351 6.83361 11.1178 6.88556 11.1386C6.93751 11.1593 7.01371 11.2285 7.00678 11.2666C6.99986 11.3219 6.93405 11.4015 6.8821 11.4118C6.75741 11.4326 6.62579 11.4326 6.50457 11.4118C6.45262 11.4049 6.37988 11.3219 6.37988 11.2735C6.37988 11.225 6.45262 11.1628 6.50803 11.1386C6.56345 11.1144 6.63272 11.1351 6.69853 11.1351Z" fill="#D9D9E3"/>
<path d="M8.16358 11.4188C8.10124 11.4188 8.02851 11.4361 7.97655 11.4119C7.9246 11.3877 7.86572 11.3219 7.86572 11.277C7.86572 11.232 7.93153 11.149 7.97309 11.1421C8.10124 11.1248 8.23632 11.1248 8.36793 11.1421C8.41642 11.149 8.49262 11.2285 8.48916 11.2666C8.48223 11.3219 8.42335 11.3911 8.36793 11.4153C8.30905 11.4395 8.23285 11.4188 8.16358 11.4188Z" fill="#D9D9E3"/>
<path d="M8.17068 11.9722C8.10833 11.9722 8.0356 11.9929 7.98365 11.9653C7.92823 11.9376 7.86935 11.8719 7.86242 11.8165C7.85896 11.7785 7.93169 11.6989 7.98018 11.692C8.09794 11.6712 8.21917 11.6851 8.34039 11.6851C8.43737 11.6851 8.5101 11.73 8.48586 11.8269C8.472 11.8857 8.39927 11.941 8.33693 11.9687C8.29536 11.9929 8.22956 11.9722 8.17068 11.9722Z" fill="#D9D9E3"/>
<path d="M6.68485 11.9689C6.61558 11.9689 6.53938 11.9896 6.4805 11.962C6.43201 11.9412 6.38006 11.8686 6.3766 11.8167C6.37313 11.7752 6.43894 11.6991 6.4805 11.6921C6.61212 11.6748 6.74719 11.6714 6.87534 11.6887C6.92729 11.6956 7.00696 11.7786 7.00349 11.827C7.00349 11.8755 6.92729 11.9377 6.86841 11.9654C6.81993 11.9896 6.75066 11.9723 6.68485 11.9689C6.68485 11.9723 6.68485 11.9723 6.68485 11.9689Z" fill="#D9D9E3"/>
<path d="M27.3964 12.5258C27.102 12.5258 26.8838 12.3148 26.8872 12.0346C26.8942 11.7613 27.1089 11.5606 27.3964 11.5572C27.6943 11.5572 27.9125 11.7613 27.9125 12.0415C27.9125 12.3217 27.6943 12.5258 27.3964 12.5258ZM27.3999 12.3943C27.6077 12.3943 27.7705 12.2456 27.7739 12.0519C27.7774 11.8478 27.6146 11.6886 27.3999 11.6886C27.1886 11.6886 27.0154 11.8547 27.0189 12.0519C27.0258 12.2387 27.1955 12.3943 27.3999 12.3943Z" fill="#D9D9E3"/>
</svg>
