<svg width="95" height="64" viewBox="0 0 95 64" fill="none" xmlns="http://www.w3.org/2000/svg">
<path d="M42.5891 0.750602C39.994 1.0105 37.653 1.46055 35.6334 2.09148C34.6773 2.38922 33.8036 2.72408 33.0391 3.08536L33.0177 3.09703C32.4713 3.38311 32.1146 3.94644 32.0822 4.56738C32.0763 5.26733 32.0735 6.1503 32.0763 7.15799C33.8433 6.19743 40.6792 2.96138 52.51 2.89259C52.5105 1.98701 52.5046 1.47341 52.497 0.973373L52.4929 0.715148C50.9282 0.569966 49.3639 0.5 47.7226 0.5C45.9555 0.5 44.2757 0.582109 42.5888 0.750607" fill="#D9D9E3"/>
<path d="M32.0796 7.80551C32.0853 8.84936 32.097 10.0056 32.1207 11.2434C34.6017 10.1881 45.4507 5.74421 52.4912 5.5888C52.5007 4.71273 52.505 4.02206 52.5071 3.46014C39.9949 3.53369 33.1693 7.17196 32.0796 7.80551" fill="#D9D9E3"/>
<path d="M53.2435 8.8422C53.2169 11.007 53.1748 12.9795 53.1144 14.7029C52.8399 22.4466 52.1369 27.1814 50.8407 30.0526C50.321 31.199 49.4656 32.3364 48.2904 33.4419C48.8123 33.8846 49.391 34.3218 50.0191 34.7532C50.7972 34.496 53.499 33.305 55.4616 28.7414C57.3089 24.4518 58.1208 16.296 58.1664 1.63634C56.6592 1.26745 55.0169 0.98209 53.2485 0.791687C53.263 2.29679 53.2818 5.39385 53.2438 8.8422H53.2435ZM55.9845 28.9654C54.1771 33.1637 51.7857 34.644 50.6105 35.1398C51.1086 35.4611 51.6231 35.779 52.1755 36.0906C52.6318 35.8809 53.0553 35.6784 53.4624 35.472C57.4635 33.4543 60.1257 31.1781 61.1593 28.8888C62.3272 26.3062 62.9596 22.0458 63.2049 15.0782C63.2439 14.0413 63.2729 12.9622 63.2966 11.7817C63.3625 8.49734 63.3487 5.70825 63.3342 4.31787C63.2339 3.79808 62.8945 3.34351 62.4282 3.09599L62.2464 3.00031C61.5282 2.6733 60.7168 2.36771 59.8275 2.09139C59.4767 1.98168 59.1042 1.88338 58.7333 1.7851C58.685 16.4339 57.8541 24.6179 55.9845 28.9654H55.9845ZM37.4062 9.94009C37.7021 19.3617 38.5208 25.344 39.9822 28.7414C41.6779 32.6822 46.9003 35.755 49.6477 37.1499C50.147 36.9585 50.7093 36.7336 51.3184 36.4706C49.8224 35.5924 48.5288 34.6731 47.4721 33.7311C46.1336 32.5368 45.1701 31.2987 44.6071 30.0526C43.3071 27.1745 42.6003 22.4409 42.3196 14.7029C42.249 12.8065 42.2091 9.87559 42.1891 8.43784C40.0473 8.98523 38.5935 9.50883 37.4062 9.94009V9.94009ZM35.6332 10.557C33.6568 11.1739 32.5222 11.7927 32.1367 12.0235C32.1593 13.0065 32.1881 14.0313 32.2256 15.077C32.479 22.0416 33.1157 26.3017 34.2842 28.8888C35.3188 31.1781 37.9806 33.4543 41.9847 35.472C42.4453 35.7045 42.9216 35.9318 43.4428 36.1693C45.5347 37.1154 47.2777 37.6916 47.7226 37.8341C47.9115 37.7746 48.3367 37.6354 48.9199 37.4234C46.0176 35.9121 41.1524 32.8981 39.4619 28.9654C37.9806 25.5235 37.1483 19.5304 36.8467 10.1421C36.431 10.2918 36.0261 10.4344 35.6332 10.557" fill="#D9D9E3"/>
<path d="M3.98464 54.2766H2.12018L3.84395 49.5809L0.600098 41.0846H2.62759L4.75633 47.1326L6.98608 41.0846H9.01286L3.98464 54.2766Z" fill="#D9D9E3"/>
<path d="M9.37549 42.9685H11.113V48.1209H11.1475L13.8934 42.9685H15.6307L12.7111 48.2778L15.8387 54.2767H13.8934L11.1475 48.6226H11.113V54.2767H9.37549V42.9685Z" fill="#D9D9E3"/>
<path d="M16.4717 42.9685H19.3388C21.7021 42.9685 22.1539 43.5478 22.1539 46.1634C22.1539 48.7792 21.7021 49.3588 19.3388 49.3588H18.209V54.2767H16.4717V42.9685ZM18.209 48.0429H19.1135C20.2945 48.0429 20.4164 47.8708 20.4164 46.1634C20.4164 44.4565 20.2945 44.2842 19.1135 44.2842H18.209V48.0429Z" fill="#D9D9E3"/>
<path d="M23.0171 44.4468C23.0171 42.6018 23.6871 40.9753 26.4437 40.9753C29.0587 40.9753 29.8896 42.1994 29.8896 44.2459V50.9149C29.8896 52.7605 29.2213 54.3865 26.4437 54.3865C23.8494 54.3865 23.0171 53.1623 23.0171 51.1157V44.4468ZM25.0455 51.2257C25.0455 52.3583 25.6128 52.9612 26.4437 52.9612C27.2955 52.9612 27.8628 52.3583 27.8628 51.2257V44.3009C27.8628 43.0033 27.3763 42.4005 26.4437 42.4005C25.5313 42.4005 25.0455 43.0033 25.0455 44.3009V51.2257Z" fill="#D9D9E3"/>
<path d="M33.7946 54.2768H30.9614V42.9685H35.7399V44.2842H32.6997V47.6359H33.8985C36.435 47.6359 36.6784 48.4658 36.6784 51.05C36.6784 53.5561 36.3312 54.2768 33.7946 54.2768V54.2768ZM33.8293 48.9515H32.6997V52.9611H33.7772C34.7676 52.9611 34.9408 52.6953 34.9408 50.9098C34.9408 49.2019 34.7849 48.9515 33.8293 48.9515" fill="#D9D9E3"/>
<path d="M37.4834 45.8503C37.4834 44.2681 38.0581 42.8744 40.4204 42.8744C42.6618 42.8744 43.375 43.9235 43.375 45.6775V51.3945C43.375 52.9764 42.8011 54.3704 40.4204 54.3704C38.1966 54.3704 37.4834 53.3213 37.4834 51.5673V45.8503ZM39.2217 51.6606C39.2217 52.6321 39.7082 53.149 40.4204 53.149C41.1503 53.149 41.6368 52.6321 41.6368 51.6606V45.7247C41.6368 44.6127 41.2204 44.096 40.4204 44.096C39.6388 44.096 39.2217 44.6127 39.2217 45.7247V51.6606Z" fill="#D9D9E3"/>
<path d="M44.3252 42.9685H47.1924C49.5557 42.9685 50.0068 43.5478 50.0068 46.1634C50.0068 48.7792 49.5557 49.3588 47.1924 49.3588H46.0635V54.2767H44.3252V42.9685ZM46.0635 48.0429H46.9663C48.148 48.0429 48.2692 47.8708 48.2692 46.1634C48.2692 44.4565 48.148 44.2842 46.9663 44.2842H46.0635V48.0429Z" fill="#D9D9E3"/>
<path d="M50.8276 45.8503C50.8276 44.2681 51.4016 42.8744 53.7647 42.8744C56.0068 42.8744 56.7193 43.9235 56.7193 45.6775V51.3945C56.7193 52.9764 56.1453 54.3704 53.7647 54.3704C51.5409 54.3704 50.8276 53.3213 50.8276 51.5673V45.8503ZM52.5659 51.6606C52.5659 52.6321 53.0524 53.149 53.7647 53.149C54.4945 53.149 54.981 52.6321 54.981 51.6606V45.7247C54.981 44.6127 54.5639 44.096 53.7647 44.096C52.983 44.096 52.5659 44.6127 52.5659 45.7247V51.6606Z" fill="#D9D9E3"/>
<path d="M57.6689 42.9685H59.4072V47.8239H61.7185V42.9685H63.4565V54.2767H61.7185V49.1396H59.4072V54.2767H57.6689V42.9685Z" fill="#D9D9E3"/>
<path d="M64.498 41.0846H71.2501V54.2766H69.2223V42.6192H66.5258V54.2766H64.498V41.0846Z" fill="#D9D9E3"/>
<path d="M72.3677 42.9685H75.2348C77.5974 42.9685 78.0492 43.5478 78.0492 46.1634C78.0492 48.7792 77.5974 49.3588 75.2348 49.3588H74.1052V54.2767H72.3677V42.9685ZM74.1052 48.0429H75.0081C76.1898 48.0429 76.3117 47.8708 76.3117 46.1634C76.3117 44.4565 76.1898 44.2842 75.0081 44.2842H74.1052V48.0429Z" fill="#D9D9E3"/>
<path d="M78.8696 45.8503C78.8696 44.2681 79.4436 42.8744 81.8067 42.8744C84.0481 42.8744 84.7599 43.9235 84.7599 45.6775V51.3945C84.7599 52.9764 84.1866 54.3704 81.8067 54.3704C79.5829 54.3704 78.8696 53.3213 78.8696 51.5673V45.8503ZM80.6072 51.6606C80.6072 52.6321 81.0937 53.149 81.8067 53.149C82.5358 53.149 83.0223 52.6321 83.0223 51.6606V45.7247C83.0223 44.6127 82.6059 44.096 81.8067 44.096C81.0243 44.096 80.6072 44.6127 80.6072 45.7247V51.6606Z" fill="#D9D9E3"/>
<path d="M85.7114 42.9685H88.4745L90.0735 51.5826H90.1082L91.7062 42.9685H94.4001V54.2767H92.7659V44.0961H92.732L90.959 54.2767H89.2217L87.2757 44.0961H87.241V54.2767H85.7114L85.7114 42.9685Z" fill="#D9D9E3"/>
<path d="M20.4237 61.8087C20.7996 61.2171 20.9448 60.4748 20.9448 59.4657V58.0741H23.1976V61.8087H23.6891V63.2003H23.2554V62.2026H20.4931V63.2003H20.0591V61.8087H20.4237ZM22.7573 61.8087V58.4685H21.3619V59.7382C21.3619 60.504 21.2457 61.2287 20.9151 61.8087H22.7573Z" fill="#D9D9E3"/>
<path d="M24.6981 60.8865C24.7098 61.1476 24.7269 61.2635 24.7849 61.4027C24.9182 61.7219 25.1732 61.8725 25.5615 61.8725C25.6942 61.8725 25.822 61.8432 25.9259 61.803C26.053 61.7507 26.1281 61.6985 26.2847 61.5477L26.569 61.7973C26.3598 62.0001 26.2617 62.0698 26.0877 62.1388C25.9318 62.2029 25.7462 62.2378 25.5375 62.2378C24.7155 62.2378 24.2817 61.7276 24.2817 60.7589C24.2817 59.8605 24.7269 59.3148 25.451 59.3148C26.1749 59.3148 26.6203 59.8424 26.6203 60.6954V60.8865H24.6981ZM26.1512 60.1965C26.053 59.8662 25.7866 59.6689 25.451 59.6689C25.1506 59.6689 24.9018 59.8315 24.7849 60.0982C24.7269 60.2256 24.7098 60.3186 24.6981 60.5735H26.2039C26.1923 60.3534 26.1866 60.301 26.1512 60.1965" fill="#D9D9E3"/>
<path d="M28.7028 62.2378C28.5295 62.2378 28.3786 62.2086 28.2457 62.1445C28.1238 62.0874 28.0547 62.0289 27.9159 61.8666V63.479H27.498V59.3497H27.9159V59.6863C28.048 59.5294 28.1181 59.4716 28.24 59.4078C28.3672 59.3443 28.5171 59.3148 28.6971 59.3148C29.4326 59.3148 29.7623 59.7736 29.7623 60.782C29.7623 61.7738 29.4267 62.2378 28.7028 62.2378V62.2378ZM28.6277 59.6863C28.1295 59.6863 27.9159 60.0168 27.9159 60.7763C27.9159 61.5417 28.1295 61.8666 28.6334 61.8666C29.1308 61.8666 29.3459 61.5417 29.3459 60.782C29.3459 60.0054 29.1372 59.6863 28.6277 59.6863" fill="#D9D9E3"/>
<path d="M30.1523 62.2027L31.4892 60.6953L30.2671 59.3496H30.7774L31.9814 60.7183V59.3496H32.3928V60.7183L33.6027 59.3496H34.1073L32.8852 60.6953L34.2228 62.2027H33.6959L32.3928 60.73V62.2027H31.9814V60.73L30.6785 62.2027H30.1523Z" fill="#D9D9E3"/>
<path d="M36.485 62.2026V61.9306C36.3464 62.0634 36.2763 62.116 36.1608 62.1621C36.0279 62.2202 35.8773 62.2376 35.6569 62.2376C34.9972 62.2376 34.6436 61.942 34.6436 61.3967C34.6436 60.8805 35.0145 60.5733 35.6282 60.5733H36.485V60.3008C36.485 59.866 36.2597 59.6744 35.7378 59.6744C35.5531 59.6744 35.4145 59.7034 35.2983 59.7615C35.2002 59.8074 35.1417 59.8602 35.0369 59.999L34.7541 59.7381C34.9043 59.5639 34.9734 59.5002 35.1134 59.4309C35.2745 59.3495 35.478 59.3145 35.7501 59.3145C36.5137 59.3145 36.9021 59.6337 36.9021 60.2665V62.2026H36.485ZM36.485 60.8863H35.6867C35.2636 60.8863 35.0485 61.0543 35.0485 61.3913C35.0485 61.733 35.2572 61.8777 35.7378 61.8777C36.2706 61.8777 36.485 61.6811 36.485 61.194V60.8863Z" fill="#D9D9E3"/>
<path d="M39.2707 62.2027H37.915V59.3496H39.236C39.7398 59.3496 40.0747 59.6452 40.0747 60.0981C40.0747 60.4054 39.9131 60.6193 39.6243 60.7241C39.9304 60.8404 40.1217 61.0661 40.1217 61.4145C40.1217 61.9017 39.8033 62.2027 39.2707 62.2027V62.2027ZM39.1601 59.7092H38.3271V60.562H39.1601C39.49 60.562 39.6647 60.4054 39.6647 60.1329C39.6647 59.8603 39.485 59.7092 39.1601 59.7092V59.7092ZM39.1956 60.9037H38.3271V61.8431H39.1956C39.5197 61.8431 39.7103 61.658 39.7103 61.374C39.7103 61.0899 39.5197 60.9037 39.1956 60.9037Z" fill="#D9D9E3"/>
<path d="M42.8282 62.2027V60.9099H41.4495V62.2027H41.0381V59.3496H41.4495V60.5503H42.8282V59.3496H43.2455V62.2027H42.8282Z" fill="#D9D9E3"/>
<path d="M46.153 62.2027V59.9934L44.6885 62.2027H44.2769V59.3496H44.6885V61.5475L46.153 59.3496H46.5701V62.2027H46.153Z" fill="#D9D9E3"/>
<path d="M49.4794 62.2029V59.9935L48.0139 62.2029H47.6025V59.3497H48.0139V61.5477L49.4794 59.3497H49.8967V62.2029H49.4794ZM48.7495 58.8514C48.2689 58.8514 47.9381 58.6424 47.9044 58.1205H48.2747C48.2977 58.4104 48.466 58.5553 48.7495 58.5553C49.0326 58.5553 49.2008 58.4104 49.2246 58.1205H49.5949C49.5602 58.6424 49.2303 58.8514 48.7495 58.8514" fill="#D9D9E3"/>
<path d="M53.0107 62.2113V59.3287H53.4324V60.7107L54.702 59.3287H55.2229L53.9296 60.6876L55.3406 62.2113H54.7958L53.4324 60.7221V62.2113H53.0107Z" fill="#D9D9E3"/>
<path d="M57.7011 61.9184C57.491 62.1295 57.2037 62.2459 56.8766 62.2459C56.5491 62.2459 56.2618 62.1295 56.0517 61.9184C55.8055 61.6661 55.7002 61.3265 55.7002 60.7698C55.7002 60.2131 55.8055 59.8735 56.0517 59.6212C56.2618 59.4108 56.5491 59.293 56.8766 59.293C57.1979 59.293 57.491 59.4108 57.7011 59.6212C57.9466 59.8676 58.0526 60.2131 58.0526 60.7517C58.0526 61.3265 57.953 61.6597 57.7011 61.9184V61.9184ZM57.4023 59.8792C57.2738 59.744 57.081 59.6681 56.8766 59.6681C56.6768 59.6681 56.484 59.744 56.3557 59.8792C56.1867 60.0492 56.1218 60.3007 56.1218 60.7698C56.1218 61.2382 56.1867 61.484 56.3557 61.6597C56.484 61.7949 56.6718 61.8715 56.8766 61.8715C57.081 61.8715 57.2738 61.7949 57.4023 61.6597C57.5668 61.4898 57.631 61.2439 57.631 60.7872C57.631 60.2948 57.5725 60.0492 57.4023 59.8792" fill="#D9D9E3"/>
<path d="M60.7759 62.2113V60.9052H59.3827V62.2113H58.9678V59.3287H59.3827V60.5415H60.7759V59.3287H61.1975V62.2113H60.7759Z" fill="#D9D9E3"/>
<path d="M64.4984 63.0721V62.2113H62.2456V59.3284H62.6613V61.8476H64.0545V59.3284H64.4754V61.8476H64.9084V63.0721H64.4984Z" fill="#D9D9E3"/>
<path d="M65.9075 60.8812C65.9191 61.1444 65.9372 61.2622 65.9956 61.4024C66.129 61.7247 66.3868 61.8772 66.7787 61.8772C66.9137 61.8772 67.0421 61.8477 67.1469 61.8065C67.2762 61.7544 67.3527 61.7016 67.51 61.5483L67.7971 61.8006C67.5856 62.006 67.486 62.0759 67.312 62.1461C67.1533 62.2111 66.9658 62.2459 66.7557 62.2459C65.9241 62.2459 65.4858 61.7306 65.4858 60.7517C65.4858 59.844 65.9372 59.293 66.6675 59.293C67.3995 59.293 67.8499 59.8266 67.8499 60.6875V60.8812H65.9075ZM67.3757 60.1836C67.2762 59.8504 67.0069 59.651 66.6675 59.651C66.3631 59.651 66.1126 59.815 65.9956 60.0846C65.9372 60.2134 65.9191 60.3071 65.9075 60.5654H67.4283C67.4161 60.3419 67.4111 60.2893 67.3757 60.1836" fill="#D9D9E3"/>
<path d="M69.958 62.2459C69.7827 62.2459 69.6303 62.2161 69.496 62.1526C69.3734 62.094 69.3026 62.0355 69.1619 61.8715V63.4999H68.7417V59.3285H69.1619V59.6681C69.2976 59.5098 69.3677 59.4506 69.4903 59.387C69.6189 59.3235 69.771 59.293 69.9516 59.293C70.695 59.293 71.0292 59.7564 71.0292 60.7755C71.0292 61.7775 70.6886 62.2459 69.958 62.2459ZM69.8822 59.6681C69.3784 59.6681 69.1619 60.0015 69.1619 60.7698C69.1619 61.5426 69.3784 61.8715 69.8879 61.8715C70.3904 61.8715 70.6078 61.5426 70.6078 60.7755C70.6078 59.9906 70.3977 59.6681 69.8822 59.6681" fill="#D9D9E3"/>
<path d="M73.7686 62.2113V60.9052H72.3754V62.2113H71.9604V59.3287H72.3754V60.5415H73.7686V59.3287H74.1902V62.2113H73.7686Z" fill="#D9D9E3"/>
</svg>
