<svg width="73" height="63" viewBox="0 0 73 63" fill="none" xmlns="http://www.w3.org/2000/svg">
<path d="M3.28059 53.5085L5.658 59.5304L7.95789 53.5085H10.3353L6.6529 62.5802H4.61142L0.799805 53.5085H3.28059Z" fill="#D9D9E3"/>
<path d="M11.0848 55.4729C11.4983 54.6975 12.0539 54.1289 12.7257 53.7929C13.3976 53.4569 14.1083 53.2889 14.8318 53.2889C15.8526 53.2889 16.7053 53.5603 17.4031 54.116C18.1008 54.6587 18.5659 55.2919 18.7985 56.0415C19.044 56.8168 19.1732 57.4759 19.1732 58.0186C19.1732 58.9361 18.9665 59.789 18.553 60.5902C18.2429 61.1976 17.8294 61.6886 17.3255 62.0375C16.8216 62.3865 16.3436 62.6061 15.9042 62.6966C15.4649 62.7741 15.1032 62.8258 14.8318 62.8258C14.1083 62.8258 13.4622 62.6837 12.9196 62.4123C12.3769 62.1409 11.9247 61.7662 11.5629 61.3139C11.2011 60.8616 10.9298 60.3576 10.7489 59.789C10.568 59.2204 10.4775 58.6389 10.4775 58.0445C10.4775 57.0882 10.6843 56.2482 11.0848 55.4729ZM12.9066 59.0912C12.9971 59.4272 13.1263 59.7244 13.2943 59.9699C13.4622 60.2155 13.6819 60.4222 13.9403 60.5644C14.1987 60.7065 14.4959 60.7841 14.8318 60.7841H14.9481C15.3099 60.7841 15.6071 60.6936 15.8526 60.4998C16.1239 60.2801 16.3306 60.0216 16.4986 59.7244C16.6536 59.4272 16.7699 59.117 16.8345 58.794C16.8733 58.5614 16.8991 58.3675 16.8991 58.1995C16.8991 58.1349 16.8991 58.0703 16.8862 58.0186C16.8862 57.3337 16.7441 56.7651 16.4598 56.2999C16.1756 55.8347 15.8784 55.5504 15.5554 55.4212C15.2582 55.3049 15.0386 55.2532 14.8706 55.2661H14.8189C14.2892 55.2661 13.8499 55.4599 13.501 55.8347C13.2167 56.1448 13.0229 56.4937 12.9196 56.8814C12.8162 57.2691 12.7645 57.6439 12.7645 58.0186C12.7645 58.3934 12.8162 58.7552 12.9066 59.0912Z" fill="#D9D9E3"/>
<path d="M20.9173 55.4728C21.2015 54.8783 21.6021 54.426 22.1189 54.0901C22.6357 53.7541 23.1138 53.5344 23.566 53.431C23.9795 53.3276 24.3154 53.2889 24.5738 53.2889H24.6514C25.0907 53.2889 25.6075 53.3793 26.2018 53.5602V50.0323H28.5147V62.5931H26.3827L26.2923 61.8953C26.0726 62.1409 25.7884 62.3476 25.4395 62.5285C25.0907 62.7094 24.6772 62.7999 24.1991 62.7999C23.5789 62.7999 23.0233 62.6707 22.5453 62.3993C22.0672 62.1279 21.6667 61.779 21.3436 61.3396C21.0206 60.9003 20.7751 60.3834 20.6072 59.8148C20.4392 59.2333 20.3488 58.6388 20.3488 58.0056C20.3358 57.0364 20.5296 56.1964 20.9173 55.4728ZM22.7391 59.0394C22.8166 59.3883 22.9458 59.6856 23.1138 59.944C23.2818 60.2025 23.5014 60.4092 23.7598 60.5643C24.0182 60.7194 24.3283 60.7969 24.6772 60.7969C24.9615 60.7969 25.2586 60.7194 25.5558 60.5643C25.853 60.4092 26.0726 60.2283 26.2018 60.0086V55.5245C25.7109 55.3435 25.2845 55.2531 24.9356 55.2531C24.2896 55.2531 23.7598 55.4599 23.3593 55.8863C22.9717 56.2998 22.7391 56.7133 22.6745 57.114C22.6228 57.3982 22.597 57.6309 22.597 57.7988C22.597 57.8505 22.597 57.9022 22.6099 57.941C22.6099 58.3287 22.6486 58.6905 22.7391 59.0394Z" fill="#D9D9E3"/>
<path d="M30.1172 58.6388C30.3239 58.277 30.5953 57.9798 30.9312 57.7342C31.2671 57.4887 31.6289 57.2949 32.0036 57.1656C32.3783 57.0364 32.7401 56.946 33.0502 56.9072C33.2311 56.8813 33.8513 56.8038 34.9366 56.6746V56.5454C34.9366 56.0414 34.8074 55.6795 34.549 55.4728C34.2906 55.266 33.9417 55.1497 33.4766 55.1497C33.0244 55.1497 32.5851 55.2531 32.1716 55.4469C31.7581 55.6408 31.448 55.8346 31.2284 56.0155L30.4531 54.3743C30.7115 54.1159 31.2025 53.8574 31.9261 53.6248C32.6755 53.3793 33.3215 53.263 33.8642 53.263C34.4456 53.263 34.9496 53.3535 35.3759 53.5344C35.8023 53.7153 36.1641 53.9608 36.4484 54.2839C36.7326 54.607 36.9393 54.9688 37.0686 55.3952C37.1978 55.8217 37.2624 56.2611 37.2624 56.7392V62.5802H35.1046L35.0142 61.8953C34.7687 62.1667 34.4456 62.3864 34.058 62.5544C33.6704 62.7094 33.244 62.7999 32.7789 62.7999C32.3912 62.7999 32.0165 62.7353 31.6677 62.6061C31.3059 62.4768 30.9958 62.283 30.7115 62.0375C30.4402 61.7919 30.2076 61.4947 30.0397 61.1329C29.8717 60.7711 29.7812 60.3704 29.7812 59.9182C29.8071 59.4271 29.9105 59.0006 30.1172 58.6388ZM32.4171 60.5901C32.6367 60.771 32.9468 60.8615 33.3603 60.8615C33.6575 60.8615 33.9547 60.7969 34.2389 60.6677C34.5232 60.5384 34.7687 60.3834 34.9625 60.1895V58.3416C34.2001 58.4321 33.6833 58.4967 33.4378 58.5354C32.9339 58.6388 32.5851 58.8068 32.3912 59.0523C32.1974 59.2979 32.0941 59.5692 32.0941 59.8535C32.0811 60.1637 32.1845 60.3963 32.4171 60.5901Z" fill="#D9D9E3"/>
<path d="M38.5156 53.5086H39.7173V53.0175C39.7173 52.1388 39.8981 51.4409 40.2599 50.924C40.6088 50.3942 41.0222 50.0841 41.5003 49.9678C41.9525 49.8515 42.3531 49.7868 42.7019 49.7739C43.2705 49.7739 43.7356 49.8256 44.1103 49.929C44.485 50.0324 44.7047 50.1099 44.7693 50.1487L44.4979 52.0871C44.4204 52.0483 44.2783 51.9966 44.0586 51.932C43.839 51.8674 43.5418 51.8286 43.18 51.8286C42.857 51.8286 42.5857 51.9191 42.366 52.1129C42.1464 52.3068 42.0301 52.6169 42.0301 53.0692V53.4956H43.994V55.3823H42.0559V62.5802H39.7173V55.3823H38.5156V53.5086Z" fill="#D9D9E3"/>
<path d="M45.0404 55.4729C45.4538 54.6975 46.0094 54.1289 46.6813 53.7929C47.3532 53.4569 48.0638 53.2889 48.7874 53.2889C49.8081 53.2889 50.6609 53.5603 51.3586 54.116C52.0563 54.6587 52.5215 55.2919 52.7541 56.0415C52.9996 56.8168 53.1288 57.4759 53.1288 58.0186C53.1288 58.9361 52.922 59.789 52.5086 60.5902C52.1985 61.1976 51.785 61.6886 51.2811 62.0375C50.7772 62.3865 50.2991 62.6061 49.8598 62.6966C49.4205 62.7741 49.0587 62.8258 48.7874 62.8258C48.0638 62.8258 47.4178 62.6837 46.8751 62.4123C46.3325 62.1409 45.8802 61.7662 45.5184 61.3139C45.1567 60.8616 44.8853 60.3576 44.7044 59.789C44.5235 59.2204 44.4331 58.6389 44.4331 58.0445C44.446 57.0882 44.6398 56.2482 45.0404 55.4729ZM46.8751 59.0912C46.9656 59.4272 47.0948 59.7244 47.2627 59.9699C47.4307 60.2155 47.6504 60.4222 47.9088 60.5644C48.1672 60.7065 48.4644 60.7841 48.8003 60.7841H48.9166C49.2784 60.7841 49.5756 60.6936 49.8211 60.4998C50.0924 60.2801 50.2991 60.0216 50.4671 59.7244C50.6351 59.4272 50.7384 59.117 50.803 58.794C50.8418 58.5614 50.8676 58.3675 50.8676 58.1995C50.8676 58.1349 50.8676 58.0703 50.8547 58.0186C50.8547 57.3337 50.7126 56.7651 50.4283 56.2999C50.1441 55.8347 49.8469 55.5504 49.5239 55.4212C49.2267 55.3049 49.007 55.2532 48.8391 55.2661H48.7874C48.2576 55.2661 47.8183 55.4599 47.4695 55.8347C47.1852 56.1448 46.9914 56.4937 46.888 56.8814C46.7847 57.2691 46.733 57.6439 46.733 58.0186C46.733 58.3934 46.7847 58.7552 46.8751 59.0912Z" fill="#D9D9E3"/>
<path d="M54.4853 53.5086H56.6043L56.7206 54.2323C57.0824 53.9351 57.4958 53.7025 57.9481 53.5345C58.4132 53.3665 58.8654 53.2889 59.3306 53.2889C60.0541 53.2889 60.6873 53.4569 61.1912 53.78C61.708 54.1031 62.0698 54.5941 62.2765 55.2273C62.4832 55.8605 62.5866 56.5325 62.5866 57.2303V62.6062H60.248V57.4242C60.248 56.7264 60.1058 56.1965 59.8216 55.8218C59.5373 55.447 59.1368 55.2532 58.607 55.2532C58.2452 55.2532 57.9093 55.3436 57.5992 55.5375C57.2891 55.7313 57.0178 55.9381 56.7981 56.1578V62.5932H54.4595V53.5086H54.4853Z" fill="#D9D9E3"/>
<path d="M64.2925 56.0155C64.5121 55.4211 64.8093 54.93 65.1969 54.5294C65.5846 54.1288 66.0239 53.8187 66.5407 53.599C67.0446 53.3793 67.5873 53.2759 68.1687 53.2759C69.1894 53.2759 70.0164 53.5602 70.6624 54.1159C71.3084 54.6845 71.7348 55.3436 71.9157 56.1189C72.1095 56.8684 72.2 57.5663 72.2 58.2124V58.6259H66.321C66.3727 59.3883 66.6053 59.944 67.0317 60.28C67.4581 60.616 68.0137 60.784 68.6855 60.784C69.2799 60.784 69.8096 60.6935 70.2619 60.4997C70.7141 60.3188 71.0242 60.1379 71.1922 59.9699L71.8123 61.8695C71.541 62.0762 71.2697 62.2184 71.0242 62.2959C70.8691 62.3735 70.4944 62.4639 69.913 62.5802C69.3316 62.7095 68.8277 62.7741 68.3625 62.7741C67.7682 62.7741 67.2126 62.6836 66.6699 62.4898C66.1272 62.2959 65.6621 62.0116 65.2615 61.611C64.861 61.2104 64.538 60.7194 64.3054 60.1379C64.0728 59.5434 63.9565 58.8456 63.9565 58.0185C63.9695 57.282 64.0728 56.5971 64.2925 56.0155ZM69.8226 56.9589C69.7838 56.442 69.6417 56.0543 69.3703 55.77C69.1119 55.4986 68.8664 55.3177 68.6209 55.2531C68.3884 55.1885 68.2333 55.1497 68.1429 55.1497C67.7423 55.1497 67.3547 55.3048 66.9929 55.602C66.6311 55.8992 66.4244 56.3515 66.3598 56.9589H69.8226Z" fill="#D9D9E3"/>
<path d="M46.3711 2.64516C42.3656 3.21375 39.2647 6.94839 39.1871 11.4972C44.7301 12.518 48.9165 16.2398 48.9165 22.882C48.9165 29.2916 43.5931 34.4736 36.9389 34.4736C30.3235 34.4865 24.9614 28.6713 24.9614 21.1374C24.9614 10.7476 34.1868 2.12825 45.8542 2.39963C43.128 1.1849 40.1174 0.5 36.9389 0.5C24.9226 0.5 15.1675 10.2437 15.1675 22.2746C15.1675 34.3056 24.9226 44.0493 36.9389 44.0493C48.9552 44.0493 58.7104 34.3056 58.7104 22.2746C58.7104 13.6294 53.6713 6.16011 46.3711 2.64516Z" fill="#D9D9E3"/>
</svg>
